<svg width="1035" height="135" viewBox="0 0 1035 135" fill="none" xmlns="http://www.w3.org/2000/svg">
<path fill-rule="evenodd" clip-rule="evenodd" d="M582.5 12C583.605 12 584.5 12.8954 584.5 14V124C584.5 125.105 583.605 126 582.5 126C581.395 126 580.5 125.105 580.5 124V14C580.5 12.8954 581.395 12 582.5 12Z" fill="white"/>
<path d="M649.982 40H639.573V38.8213C639.95 38.8102 640.431 38.7715 641.018 38.7051C641.615 38.6387 642.025 38.5446 642.246 38.4229C642.589 38.2126 642.838 37.9746 642.993 37.709C643.159 37.4323 643.242 37.0892 643.242 36.6797V19.5469H642.993L634.958 39.6182H634.128L626.475 19.1318H626.259V33.1934C626.259 34.5547 626.342 35.5895 626.508 36.2979C626.685 37.0062 626.951 37.5153 627.305 37.8252C627.548 38.0576 628.052 38.279 628.815 38.4893C629.579 38.6995 630.077 38.8102 630.31 38.8213V40H620.797V38.8213C621.295 38.777 621.815 38.694 622.357 38.5723C622.911 38.4505 623.337 38.2679 623.636 38.0244C624.023 37.7145 624.289 37.2386 624.433 36.5967C624.576 35.9548 624.648 34.8812 624.648 33.376V21.3232C624.648 20.626 624.565 20.056 624.399 19.6133C624.233 19.1706 623.995 18.8109 623.686 18.5342C623.342 18.2354 622.922 18.014 622.424 17.8701C621.926 17.7262 621.433 17.6432 620.946 17.6211V16.4424H628.981L635.722 34.1064L641.482 19.3311C641.693 18.7887 641.87 18.2243 642.014 17.6377C642.169 17.04 642.252 16.6416 642.263 16.4424H649.949V17.6211C649.639 17.6322 649.241 17.682 648.754 17.7705C648.278 17.859 647.929 17.9421 647.708 18.0195C647.332 18.1523 647.077 18.3737 646.944 18.6836C646.812 18.9935 646.745 19.3311 646.745 19.6963V36.6797C646.745 37.0671 646.812 37.3936 646.944 37.6592C647.077 37.9248 647.332 38.1572 647.708 38.3564C647.907 38.4671 648.261 38.5723 648.771 38.6719C649.28 38.7604 649.684 38.8102 649.982 38.8213V40Z" fill="white"/>
<path d="M667.621 36.1484C666.935 37.4544 666.016 38.4948 664.865 39.2695C663.714 40.0443 662.392 40.4316 660.898 40.4316C659.581 40.4316 658.424 40.1992 657.428 39.7344C656.443 39.2695 655.629 38.6387 654.987 37.8418C654.346 37.0449 653.864 36.1152 653.543 35.0527C653.233 33.9902 653.078 32.8669 653.078 31.6826C653.078 30.6201 653.244 29.5798 653.576 28.5615C653.919 27.5322 654.417 26.6081 655.07 25.7891C655.701 25.0033 656.482 24.3724 657.411 23.8965C658.352 23.4095 659.404 23.166 660.566 23.166C661.761 23.166 662.785 23.3542 663.637 23.7305C664.489 24.1068 665.181 24.6214 665.712 25.2744C666.221 25.8942 666.598 26.6247 666.841 27.4658C667.096 28.307 667.223 29.2201 667.223 30.2051V31.3008H656.382C656.382 32.3743 656.482 33.3483 656.681 34.2227C656.891 35.097 657.218 35.8662 657.66 36.5303C658.092 37.1722 658.656 37.6813 659.354 38.0576C660.051 38.4229 660.881 38.6055 661.844 38.6055C662.829 38.6055 663.676 38.3786 664.384 37.9248C665.103 37.46 665.795 36.6299 666.459 35.4346L667.621 36.1484ZM663.952 29.9062C663.952 29.2865 663.897 28.6224 663.786 27.9141C663.687 27.2057 663.521 26.6136 663.288 26.1377C663.034 25.6286 662.685 25.2135 662.242 24.8926C661.8 24.5716 661.23 24.4111 660.532 24.4111C659.37 24.4111 658.402 24.8981 657.627 25.8721C656.863 26.835 656.448 28.1797 656.382 29.9062H663.952Z" fill="white"/>
<path d="M687.784 39.7012L682.073 40.0664L681.824 39.834V38.3066L681.691 38.2734C681.115 38.9154 680.401 39.4411 679.549 39.8506C678.708 40.2601 677.839 40.4648 676.943 40.4648C676.013 40.4648 675.111 40.2601 674.237 39.8506C673.373 39.43 672.621 38.8434 671.979 38.0908C671.326 37.3271 670.806 36.4085 670.418 35.335C670.042 34.2614 669.854 33.0771 669.854 31.7822C669.854 30.598 670.059 29.4746 670.468 28.4121C670.878 27.3496 671.442 26.4199 672.161 25.623C672.837 24.8815 673.661 24.2894 674.635 23.8467C675.62 23.404 676.622 23.1826 677.64 23.1826C678.404 23.1826 679.151 23.2822 679.881 23.4814C680.623 23.6696 681.259 23.9131 681.79 24.2119V18.5176C681.79 18.0527 681.713 17.6322 681.558 17.2559C681.403 16.8685 681.187 16.5752 680.91 16.376C680.601 16.1657 680.18 16.0163 679.649 15.9277C679.129 15.8281 678.564 15.7562 677.955 15.7119V14.6826L684.646 14.3008L684.895 14.5498V36.6299C684.895 37.0173 684.967 37.3493 685.111 37.626C685.266 37.8916 685.487 38.1185 685.775 38.3066C685.985 38.4395 686.289 38.5225 686.688 38.5557C687.086 38.5889 687.451 38.611 687.784 38.6221V39.7012ZM681.79 36.8291V27.25C681.702 26.9622 681.558 26.6523 681.359 26.3203C681.159 25.9883 680.91 25.6839 680.612 25.4072C680.291 25.1305 679.914 24.9036 679.483 24.7266C679.051 24.5384 678.548 24.4443 677.972 24.4443C677.308 24.4443 676.694 24.6159 676.129 24.959C675.576 25.3021 675.083 25.7946 674.652 26.4365C674.242 27.0563 673.916 27.8477 673.672 28.8105C673.44 29.7624 673.324 30.8193 673.324 31.9814C673.324 32.9111 673.412 33.7578 673.589 34.5215C673.766 35.2741 674.065 35.9769 674.486 36.6299C674.873 37.2497 675.366 37.7477 675.963 38.124C676.572 38.5003 677.291 38.6885 678.121 38.6885C679.007 38.6885 679.737 38.4948 680.313 38.1074C680.899 37.7201 681.392 37.2939 681.79 36.8291Z" fill="white"/>
<path d="M697.669 40H689.75V38.9043C690.005 38.8822 690.265 38.86 690.531 38.8379C690.807 38.8158 691.045 38.7715 691.245 38.7051C691.555 38.6055 691.781 38.4339 691.925 38.1904C692.08 37.9359 692.158 37.6094 692.158 37.2109V27.1006C692.158 26.7464 692.075 26.4255 691.909 26.1377C691.754 25.8389 691.532 25.5898 691.245 25.3906C691.034 25.2578 690.73 25.1471 690.332 25.0586C689.933 24.959 689.568 24.8981 689.236 24.876V23.7969L695.013 23.4316L695.246 23.6641V37.0117C695.246 37.3991 695.318 37.7201 695.461 37.9746C695.616 38.2292 695.854 38.4173 696.175 38.5391C696.419 38.6387 696.657 38.7217 696.889 38.7881C697.122 38.8434 697.382 38.8822 697.669 38.9043V40ZM695.578 16.9736C695.578 17.6045 695.367 18.1579 694.947 18.6338C694.537 19.0986 694.028 19.3311 693.419 19.3311C692.855 19.3311 692.362 19.1097 691.942 18.667C691.532 18.2132 691.328 17.6986 691.328 17.123C691.328 16.5143 691.532 15.9831 691.942 15.5293C692.362 15.0755 692.855 14.8486 693.419 14.8486C694.05 14.8486 694.565 15.0645 694.963 15.4961C695.373 15.9167 695.578 16.4092 695.578 16.9736Z" fill="white"/>
<path d="M707.589 40.4316C705.22 40.4316 703.366 39.6458 702.027 38.0742C700.688 36.5026 700.018 34.3942 700.018 31.749C700.018 30.598 700.195 29.5244 700.549 28.5283C700.915 27.5212 701.44 26.6081 702.127 25.7891C702.78 25.0033 703.599 24.3724 704.584 23.8965C705.569 23.4095 706.642 23.166 707.804 23.166C709.409 23.166 710.715 23.5534 711.722 24.3281C712.729 25.0918 713.233 26.1377 713.233 27.4658C713.233 28.0192 713.1 28.5117 712.835 28.9434C712.569 29.3639 712.132 29.5742 711.523 29.5742C710.87 29.5742 710.361 29.4082 709.996 29.0762C709.642 28.7441 709.464 28.3734 709.464 27.9639C709.464 27.4658 709.531 26.9567 709.664 26.4365C709.797 25.9053 709.874 25.5179 709.896 25.2744C709.697 24.9313 709.398 24.7044 709 24.5938C708.612 24.472 708.192 24.4111 707.738 24.4111C707.207 24.4111 706.698 24.5273 706.211 24.7598C705.735 24.9811 705.27 25.3962 704.816 26.0049C704.407 26.5583 704.075 27.3053 703.82 28.2461C703.565 29.1868 703.438 30.3102 703.438 31.6162C703.438 33.6748 703.892 35.3571 704.799 36.6631C705.718 37.958 706.919 38.6055 708.402 38.6055C709.476 38.6055 710.372 38.3454 711.091 37.8252C711.822 37.305 712.497 36.5247 713.117 35.4844L714.179 36.1816C713.449 37.4876 712.486 38.5225 711.291 39.2861C710.095 40.0498 708.861 40.4316 707.589 40.4316Z" fill="white"/>
<path d="M731.304 39.7012C730.783 39.8893 730.324 40.0387 729.926 40.1494C729.538 40.2712 729.096 40.332 728.597 40.332C727.734 40.332 727.042 40.1328 726.522 39.7344C726.013 39.3249 725.687 38.7327 725.543 37.958H725.443C724.724 38.7549 723.949 39.3636 723.119 39.7842C722.3 40.2048 721.309 40.415 720.147 40.415C718.919 40.415 717.906 40.0387 717.109 39.2861C716.323 38.5335 715.93 37.5485 715.93 36.3311C715.93 35.7002 716.019 35.1357 716.196 34.6377C716.373 34.1396 716.639 33.6914 716.993 33.293C717.27 32.9609 717.635 32.6676 718.089 32.4131C718.542 32.1475 718.969 31.9372 719.367 31.7822C719.865 31.5941 720.872 31.2454 722.388 30.7363C723.916 30.2272 724.945 29.8288 725.476 29.541V27.8975C725.476 27.7536 725.443 27.4769 725.377 27.0674C725.321 26.6579 725.194 26.2705 724.995 25.9053C724.774 25.4958 724.458 25.1416 724.049 24.8428C723.65 24.5329 723.08 24.3779 722.339 24.3779C721.83 24.3779 721.354 24.4665 720.911 24.6436C720.479 24.8096 720.175 24.9867 719.998 25.1748C719.998 25.3962 720.048 25.7227 720.147 26.1543C720.258 26.5859 720.313 26.9844 720.313 27.3496C720.313 27.737 720.136 28.0911 719.782 28.4121C719.439 28.7331 718.957 28.8936 718.338 28.8936C717.784 28.8936 717.375 28.6999 717.109 28.3125C716.855 27.9141 716.727 27.4714 716.727 26.9844C716.727 26.4753 716.904 25.9883 717.259 25.5234C717.624 25.0586 718.094 24.6436 718.67 24.2783C719.168 23.9684 719.771 23.7083 720.479 23.498C721.188 23.2767 721.879 23.166 722.555 23.166C723.484 23.166 724.292 23.2324 724.978 23.3652C725.676 23.487 726.306 23.7581 726.871 24.1787C727.435 24.5882 727.861 25.1471 728.149 25.8555C728.448 26.5527 728.597 27.4548 728.597 28.5615C728.597 30.1442 728.581 31.5498 728.548 32.7783C728.514 33.9958 728.498 35.3294 728.498 36.7793C728.498 37.2109 728.57 37.554 728.714 37.8086C728.869 38.0632 729.101 38.279 729.411 38.4561C729.577 38.5557 729.837 38.611 730.191 38.6221C730.556 38.6331 730.927 38.6387 731.304 38.6387V39.7012ZM725.51 30.9355C724.569 31.2122 723.744 31.4834 723.036 31.749C722.328 32.0146 721.669 32.3467 721.06 32.7451C720.507 33.1214 720.07 33.5697 719.749 34.0898C719.428 34.599 719.267 35.2077 719.267 35.916C719.267 36.8346 719.505 37.5098 719.981 37.9414C720.468 38.373 721.082 38.5889 721.824 38.5889C722.61 38.5889 723.302 38.4007 723.899 38.0244C724.497 37.637 725 37.1833 725.41 36.6631L725.51 30.9355Z" fill="white"/>
<path d="M740.94 40H732.955V38.9043C733.21 38.8822 733.481 38.86 733.768 38.8379C734.056 38.8047 734.294 38.7604 734.482 38.7051C734.792 38.6055 735.025 38.4339 735.18 38.1904C735.335 37.9359 735.412 37.6094 735.412 37.2109V18.252C735.412 17.8535 735.324 17.4827 735.146 17.1396C734.98 16.7855 734.759 16.5088 734.482 16.3096C734.283 16.1768 733.918 16.055 733.387 15.9443C732.855 15.8337 732.429 15.7673 732.108 15.7451V14.6826L738.268 14.3008L738.5 14.5498V37.0117C738.5 37.3991 738.572 37.7201 738.716 37.9746C738.86 38.2181 739.092 38.4062 739.413 38.5391C739.657 38.6497 739.894 38.7327 740.127 38.7881C740.37 38.8434 740.642 38.8822 740.94 38.9043V40Z" fill="white"/>
<path d="M771.453 22.834H770.308C770.208 22.4355 770.026 21.9652 769.76 21.4229C769.505 20.8695 769.218 20.3493 768.897 19.8623C768.565 19.3532 768.199 18.9105 767.801 18.5342C767.414 18.1468 767.037 17.9255 766.672 17.8701C766.329 17.8258 765.897 17.7926 765.377 17.7705C764.857 17.7484 764.376 17.7373 763.933 17.7373H762.97V36.5801C762.97 36.9453 763.047 37.2829 763.202 37.5928C763.357 37.8916 763.628 38.124 764.016 38.29C764.215 38.3675 764.63 38.4727 765.261 38.6055C765.903 38.7383 766.401 38.8102 766.755 38.8213V40H755.632V38.8213C755.942 38.7992 756.412 38.7549 757.043 38.6885C757.685 38.6221 758.128 38.5391 758.371 38.4395C758.737 38.2956 759.002 38.0908 759.168 37.8252C759.345 37.5485 759.434 37.1833 759.434 36.7295V17.7373H758.471C758.128 17.7373 757.702 17.7484 757.193 17.7705C756.684 17.7816 756.197 17.8148 755.732 17.8701C755.366 17.9144 754.985 18.1357 754.586 18.5342C754.199 18.9215 753.839 19.3643 753.507 19.8623C753.175 20.3604 752.882 20.8916 752.627 21.4561C752.373 22.0094 752.196 22.4688 752.096 22.834H750.934V16.4424H771.453V22.834Z" fill="white"/>
<path d="M787.814 36.1484C787.128 37.4544 786.209 38.4948 785.058 39.2695C783.907 40.0443 782.584 40.4316 781.09 40.4316C779.773 40.4316 778.617 40.1992 777.621 39.7344C776.636 39.2695 775.822 38.6387 775.18 37.8418C774.538 37.0449 774.057 36.1152 773.736 35.0527C773.426 33.9902 773.271 32.8669 773.271 31.6826C773.271 30.6201 773.437 29.5798 773.769 28.5615C774.112 27.5322 774.61 26.6081 775.263 25.7891C775.894 25.0033 776.674 24.3724 777.604 23.8965C778.545 23.4095 779.596 23.166 780.758 23.166C781.954 23.166 782.977 23.3542 783.83 23.7305C784.682 24.1068 785.373 24.6214 785.905 25.2744C786.414 25.8942 786.79 26.6247 787.034 27.4658C787.288 28.307 787.415 29.2201 787.415 30.2051V31.3008H776.575C776.575 32.3743 776.674 33.3483 776.873 34.2227C777.084 35.097 777.41 35.8662 777.853 36.5303C778.285 37.1722 778.849 37.6813 779.546 38.0576C780.244 38.4229 781.074 38.6055 782.037 38.6055C783.022 38.6055 783.868 38.3786 784.577 37.9248C785.296 37.46 785.988 36.6299 786.652 35.4346L787.814 36.1484ZM784.145 29.9062C784.145 29.2865 784.09 28.6224 783.979 27.9141C783.879 27.2057 783.713 26.6136 783.481 26.1377C783.226 25.6286 782.878 25.2135 782.435 24.8926C781.992 24.5716 781.422 24.4111 780.725 24.4111C779.563 24.4111 778.595 24.8981 777.82 25.8721C777.056 26.835 776.641 28.1797 776.575 29.9062H784.145Z" fill="white"/>
<path d="M797.617 40.4316C795.248 40.4316 793.394 39.6458 792.055 38.0742C790.716 36.5026 790.047 34.3942 790.047 31.749C790.047 30.598 790.224 29.5244 790.578 28.5283C790.943 27.5212 791.469 26.6081 792.155 25.7891C792.808 25.0033 793.627 24.3724 794.612 23.8965C795.597 23.4095 796.671 23.166 797.833 23.166C799.437 23.166 800.743 23.5534 801.751 24.3281C802.758 25.0918 803.261 26.1377 803.261 27.4658C803.261 28.0192 803.129 28.5117 802.863 28.9434C802.597 29.3639 802.16 29.5742 801.551 29.5742C800.898 29.5742 800.389 29.4082 800.024 29.0762C799.67 28.7441 799.493 28.3734 799.493 27.9639C799.493 27.4658 799.559 26.9567 799.692 26.4365C799.825 25.9053 799.902 25.5179 799.924 25.2744C799.725 24.9313 799.426 24.7044 799.028 24.5938C798.641 24.472 798.22 24.4111 797.766 24.4111C797.235 24.4111 796.726 24.5273 796.239 24.7598C795.763 24.9811 795.298 25.3962 794.844 26.0049C794.435 26.5583 794.103 27.3053 793.848 28.2461C793.594 29.1868 793.466 30.3102 793.466 31.6162C793.466 33.6748 793.92 35.3571 794.828 36.6631C795.746 37.958 796.947 38.6055 798.43 38.6055C799.504 38.6055 800.4 38.3454 801.12 37.8252C801.85 37.305 802.525 36.5247 803.145 35.4844L804.208 36.1816C803.477 37.4876 802.514 38.5225 801.319 39.2861C800.124 40.0498 798.89 40.4316 797.617 40.4316Z" fill="white"/>
<path d="M823.606 40H815.571V38.9043C815.826 38.8822 816.108 38.86 816.418 38.8379C816.728 38.8158 816.982 38.7715 817.181 38.7051C817.491 38.6055 817.718 38.4339 817.862 38.1904C818.017 37.9359 818.094 37.6094 818.094 37.2109V28.7939C818.094 27.6318 817.818 26.7354 817.264 26.1045C816.722 25.4736 816.058 25.1582 815.272 25.1582C814.697 25.1582 814.16 25.2523 813.662 25.4404C813.175 25.6175 812.738 25.8389 812.35 26.1045C811.974 26.3812 811.686 26.6579 811.487 26.9346C811.288 27.2113 811.133 27.4437 811.022 27.6318V37.0449C811.022 37.4212 811.094 37.7311 811.238 37.9746C811.393 38.2181 811.625 38.4062 811.935 38.5391C812.179 38.6497 812.428 38.7327 812.682 38.7881C812.948 38.8434 813.236 38.8822 813.546 38.9043V40H805.51V38.9043C805.765 38.8822 806.031 38.86 806.307 38.8379C806.584 38.8047 806.816 38.7604 807.005 38.7051C807.315 38.6055 807.547 38.4339 807.702 38.1904C807.857 37.9359 807.934 37.6094 807.934 37.2109V18.1523C807.934 17.776 807.846 17.3997 807.669 17.0234C807.503 16.6471 807.281 16.3649 807.005 16.1768C806.805 16.0329 806.451 15.9333 805.942 15.8779C805.444 15.8115 805.04 15.7673 804.73 15.7451V14.6826L810.79 14.3008L811.022 14.5498V25.9717H811.089C811.454 25.6064 811.786 25.2855 812.085 25.0088C812.384 24.721 812.776 24.4222 813.263 24.1123C813.684 23.8467 814.177 23.6253 814.741 23.4482C815.316 23.2712 815.958 23.1826 816.667 23.1826C818.128 23.1826 819.251 23.6475 820.037 24.5771C820.823 25.4958 821.216 26.8239 821.216 28.5615V37.0781C821.216 37.4655 821.282 37.7809 821.415 38.0244C821.559 38.2568 821.791 38.4395 822.112 38.5723C822.367 38.6719 822.594 38.7493 822.793 38.8047C823.003 38.849 823.274 38.8822 823.606 38.9043V40Z" fill="white"/>
<path d="M844.034 40H836.016V38.9043C836.27 38.8822 836.547 38.86 836.846 38.8379C837.156 38.8158 837.41 38.7715 837.609 38.7051C837.919 38.6055 838.146 38.4339 838.29 38.1904C838.445 37.9359 838.522 37.6094 838.522 37.2109V28.7939C838.522 27.6318 838.246 26.7354 837.692 26.1045C837.15 25.4736 836.486 25.1582 835.7 25.1582C835.114 25.1582 834.577 25.2523 834.09 25.4404C833.603 25.6175 833.171 25.8389 832.795 26.1045C832.43 26.359 832.136 26.6357 831.915 26.9346C831.705 27.2223 831.55 27.4548 831.45 27.6318V37.0449C831.45 37.4212 831.528 37.7311 831.683 37.9746C831.838 38.2181 832.07 38.4062 832.38 38.5391C832.612 38.6497 832.861 38.7327 833.127 38.7881C833.404 38.8434 833.686 38.8822 833.974 38.9043V40H825.955V38.9043C826.21 38.8822 826.47 38.86 826.735 38.8379C827.012 38.8158 827.25 38.7715 827.449 38.7051C827.759 38.6055 827.986 38.4339 828.13 38.1904C828.285 37.9359 828.362 37.6094 828.362 37.2109V27.1006C828.362 26.7243 828.279 26.3812 828.113 26.0713C827.958 25.7503 827.737 25.4902 827.449 25.291C827.239 25.1582 826.99 25.0641 826.702 25.0088C826.414 24.9424 826.104 24.8981 825.772 24.876V23.7969L831.218 23.4316L831.45 23.6641V25.9717H831.533C831.799 25.7061 832.131 25.3906 832.529 25.0254C832.928 24.6491 833.304 24.3447 833.658 24.1123C834.068 23.8467 834.555 23.6253 835.119 23.4482C835.684 23.2712 836.32 23.1826 837.028 23.1826C838.6 23.1826 839.762 23.6751 840.515 24.6602C841.278 25.6341 841.66 26.9346 841.66 28.5615V37.0781C841.66 37.4655 841.727 37.7809 841.859 38.0244C841.992 38.2568 842.219 38.4395 842.54 38.5723C842.806 38.6829 843.032 38.7604 843.221 38.8047C843.42 38.849 843.691 38.8822 844.034 38.9043V40Z" fill="white"/>
<path d="M862.337 31.6494C862.337 32.8005 862.154 33.9349 861.789 35.0527C861.424 36.1595 860.904 37.1003 860.229 37.875C859.465 38.7604 858.579 39.4189 857.572 39.8506C856.565 40.2822 855.436 40.498 854.186 40.498C853.145 40.498 852.155 40.3044 851.214 39.917C850.273 39.5186 849.438 38.943 848.707 38.1904C847.988 37.4489 847.412 36.5469 846.981 35.4844C846.56 34.4108 846.35 33.21 846.35 31.8818C846.35 29.3252 847.091 27.2334 848.574 25.6064C850.068 23.9795 852.022 23.166 854.435 23.166C856.726 23.166 858.613 23.9408 860.096 25.4902C861.59 27.0286 862.337 29.0817 862.337 31.6494ZM858.9 31.6826C858.9 30.8525 858.817 29.9782 858.651 29.0596C858.485 28.1299 858.236 27.3441 857.904 26.7021C857.55 26.016 857.085 25.4681 856.51 25.0586C855.934 24.638 855.232 24.4277 854.401 24.4277C853.549 24.4277 852.819 24.638 852.21 25.0586C851.612 25.4792 851.125 26.0547 850.749 26.7852C850.395 27.4603 850.146 28.2295 850.002 29.0928C849.858 29.9561 849.786 30.7917 849.786 31.5996C849.786 32.6621 849.869 33.6471 850.035 34.5547C850.212 35.4512 850.489 36.2536 850.865 36.9619C851.242 37.6702 851.712 38.2292 852.276 38.6387C852.852 39.0371 853.56 39.2363 854.401 39.2363C855.785 39.2363 856.881 38.5667 857.689 37.2275C858.496 35.8883 858.9 34.04 858.9 31.6826Z" fill="white"/>
<path d="M872.721 40H864.736V38.9043C864.99 38.8822 865.261 38.86 865.549 38.8379C865.837 38.8047 866.075 38.7604 866.263 38.7051C866.573 38.6055 866.805 38.4339 866.96 38.1904C867.115 37.9359 867.193 37.6094 867.193 37.2109V18.252C867.193 17.8535 867.104 17.4827 866.927 17.1396C866.761 16.7855 866.54 16.5088 866.263 16.3096C866.064 16.1768 865.698 16.055 865.167 15.9443C864.636 15.8337 864.21 15.7673 863.889 15.7451V14.6826L870.048 14.3008L870.281 14.5498V37.0117C870.281 37.3991 870.352 37.7201 870.496 37.9746C870.64 38.2181 870.873 38.4062 871.194 38.5391C871.437 38.6497 871.675 38.7327 871.907 38.7881C872.151 38.8434 872.422 38.8822 872.721 38.9043V40Z" fill="white"/>
<path d="M891.074 31.6494C891.074 32.8005 890.891 33.9349 890.526 35.0527C890.161 36.1595 889.64 37.1003 888.965 37.875C888.202 38.7604 887.316 39.4189 886.309 39.8506C885.302 40.2822 884.173 40.498 882.922 40.498C881.882 40.498 880.891 40.3044 879.951 39.917C879.01 39.5186 878.174 38.943 877.444 38.1904C876.724 37.4489 876.149 36.5469 875.717 35.4844C875.297 34.4108 875.086 33.21 875.086 31.8818C875.086 29.3252 875.828 27.2334 877.311 25.6064C878.805 23.9795 880.759 23.166 883.171 23.166C885.462 23.166 887.349 23.9408 888.832 25.4902C890.327 27.0286 891.074 29.0817 891.074 31.6494ZM887.637 31.6826C887.637 30.8525 887.554 29.9782 887.388 29.0596C887.222 28.1299 886.973 27.3441 886.641 26.7021C886.287 26.016 885.822 25.4681 885.246 25.0586C884.671 24.638 883.968 24.4277 883.138 24.4277C882.286 24.4277 881.555 24.638 880.947 25.0586C880.349 25.4792 879.862 26.0547 879.486 26.7852C879.132 27.4603 878.883 28.2295 878.739 29.0928C878.595 29.9561 878.523 30.7917 878.523 31.5996C878.523 32.6621 878.606 33.6471 878.772 34.5547C878.949 35.4512 879.226 36.2536 879.602 36.9619C879.978 37.6702 880.449 38.2292 881.013 38.6387C881.589 39.0371 882.297 39.2363 883.138 39.2363C884.522 39.2363 885.617 38.5667 886.425 37.2275C887.233 35.8883 887.637 34.04 887.637 31.6826Z" fill="white"/>
<path d="M907.816 38.3066C908.259 38.7272 908.607 39.2031 908.862 39.7344C909.116 40.2656 909.244 40.9242 909.244 41.71C909.244 42.4958 909.072 43.2318 908.729 43.918C908.386 44.6152 907.866 45.2184 907.169 45.7275C906.427 46.2477 905.542 46.6517 904.512 46.9395C903.483 47.2272 902.21 47.3711 900.694 47.3711C898.215 47.3711 896.361 47.0059 895.132 46.2754C893.904 45.556 893.29 44.499 893.29 43.1045C893.29 41.9756 893.732 41.0846 894.618 40.4316C895.503 39.7786 896.632 39.4245 898.004 39.3691V39.1367C897.672 39.0371 897.329 38.9154 896.975 38.7715C896.621 38.6165 896.317 38.4395 896.062 38.2402C895.774 38.0078 895.542 37.7367 895.365 37.4268C895.188 37.1058 895.099 36.7129 895.099 36.248C895.099 35.6615 895.304 35.1247 895.713 34.6377C896.134 34.1396 896.765 33.7135 897.606 33.3594V33.1104C896.544 32.6123 895.719 31.9759 895.132 31.2012C894.546 30.4154 894.253 29.5078 894.253 28.4785C894.253 26.929 894.828 25.6562 895.979 24.6602C897.141 23.6641 898.624 23.166 900.428 23.166C900.926 23.166 901.419 23.2158 901.906 23.3154C902.404 23.415 902.907 23.5423 903.417 23.6973H909.128V25.291H905.276V25.3906C905.685 25.8665 905.99 26.3923 906.189 26.9678C906.388 27.5433 906.488 28.1077 906.488 28.6611C906.488 30.0999 905.901 31.3174 904.728 32.3135C903.566 33.3096 902.21 33.8076 900.661 33.8076H898.652C898.397 33.8962 898.132 34.0566 897.855 34.2891C897.578 34.5215 897.44 34.8369 897.44 35.2354C897.44 35.6449 897.556 35.9603 897.789 36.1816C898.021 36.3919 898.303 36.5358 898.635 36.6133C898.956 36.7018 899.327 36.7572 899.748 36.7793C900.179 36.8014 900.622 36.818 901.076 36.8291C901.563 36.8402 902.227 36.8734 903.068 36.9287C903.92 36.984 904.523 37.0173 904.878 37.0283C905.387 37.0505 905.896 37.1722 906.405 37.3936C906.925 37.6149 907.395 37.9193 907.816 38.3066ZM903.334 28.5947C903.334 27.2998 903.068 26.2705 902.537 25.5068C902.016 24.7321 901.28 24.3447 900.329 24.3447C899.808 24.3447 899.36 24.4554 898.984 24.6768C898.619 24.887 898.32 25.1914 898.087 25.5898C897.866 25.9551 897.706 26.3978 897.606 26.918C897.517 27.4271 897.473 27.9528 897.473 28.4951C897.473 29.7236 897.739 30.7253 898.27 31.5C898.812 32.2747 899.51 32.6621 900.362 32.6621C901.314 32.6621 902.044 32.2803 902.553 31.5166C903.073 30.7419 903.334 29.7679 903.334 28.5947ZM906.521 42.3242C906.521 41.7044 906.377 41.1953 906.089 40.7969C905.802 40.3984 905.364 40.1273 904.778 39.9834C904.468 39.9391 903.832 39.8893 902.869 39.834C901.906 39.7786 900.788 39.751 899.515 39.751C898.32 39.9834 897.468 40.3708 896.959 40.9131C896.461 41.4665 896.211 42.1748 896.211 43.0381C896.211 43.4255 896.294 43.7962 896.461 44.1504C896.627 44.5046 896.914 44.8311 897.324 45.1299C897.711 45.4176 898.231 45.6501 898.884 45.8271C899.537 46.0153 900.334 46.1094 901.275 46.1094C902.902 46.1094 904.18 45.7939 905.11 45.1631C906.051 44.5433 906.521 43.597 906.521 42.3242Z" fill="white"/>
<path d="M910.215 45.3457C910.215 44.7923 910.364 44.3385 910.663 43.9844C910.973 43.6413 911.355 43.4697 911.808 43.4697C912.163 43.4697 912.467 43.5361 912.721 43.6689C912.976 43.8018 913.203 43.9733 913.402 44.1836C913.568 44.3496 913.745 44.5765 913.933 44.8643C914.122 45.152 914.271 45.39 914.382 45.5781C914.935 45.2793 915.594 44.499 916.357 43.2373C917.132 41.9756 917.691 40.8688 918.034 39.917C916.983 37.2939 916.031 34.9476 915.178 32.8779C914.326 30.8083 913.435 28.6667 912.506 26.4531C912.295 25.944 911.941 25.5511 911.443 25.2744C910.945 24.9867 910.447 24.804 909.949 24.7266V23.6309H917.42V24.793C917.088 24.804 916.689 24.876 916.224 25.0088C915.76 25.1305 915.527 25.2744 915.527 25.4404C915.527 25.5068 915.549 25.6175 915.594 25.7725C915.649 25.9274 915.71 26.0879 915.776 26.2539C916.197 27.3496 916.839 28.9323 917.702 31.002C918.565 33.0605 919.235 34.7096 919.711 35.9492C920.209 34.765 920.723 33.542 921.255 32.2803C921.797 31.0075 922.4 29.5078 923.064 27.7812C923.142 27.571 923.252 27.2832 923.396 26.918C923.54 26.5417 923.612 26.2207 923.612 25.9551C923.612 25.6673 923.358 25.4017 922.848 25.1582C922.35 24.9036 921.874 24.7487 921.421 24.6934V23.6309H927.497V24.6602C927.165 24.7155 926.728 24.9092 926.185 25.2412C925.643 25.5622 925.239 26.0215 924.973 26.6191C923.656 29.6738 922.483 32.4574 921.454 34.9697C920.436 37.4821 919.661 39.3304 919.13 40.5146C918.432 42.0641 917.807 43.2705 917.254 44.1338C916.711 45.0081 916.18 45.6943 915.66 46.1924C915.151 46.6572 914.686 46.9671 914.265 47.1221C913.856 47.2881 913.43 47.3711 912.987 47.3711C912.124 47.3711 911.443 47.1663 910.945 46.7568C910.458 46.3473 910.215 45.877 910.215 45.3457Z" fill="white"/>
<path d="M952.581 39.7012C952.061 39.8893 951.602 40.0387 951.203 40.1494C950.816 40.2712 950.373 40.332 949.875 40.332C949.012 40.332 948.32 40.1328 947.8 39.7344C947.291 39.3249 946.964 38.7327 946.82 37.958H946.721C946.001 38.7549 945.227 39.3636 944.396 39.7842C943.577 40.2048 942.587 40.415 941.425 40.415C940.196 40.415 939.184 40.0387 938.387 39.2861C937.601 38.5335 937.208 37.5485 937.208 36.3311C937.208 35.7002 937.297 35.1357 937.474 34.6377C937.651 34.1396 937.916 33.6914 938.271 33.293C938.547 32.9609 938.912 32.6676 939.366 32.4131C939.82 32.1475 940.246 31.9372 940.645 31.7822C941.143 31.5941 942.15 31.2454 943.666 30.7363C945.193 30.2272 946.223 29.8288 946.754 29.541V27.8975C946.754 27.7536 946.721 27.4769 946.654 27.0674C946.599 26.6579 946.472 26.2705 946.272 25.9053C946.051 25.4958 945.736 25.1416 945.326 24.8428C944.928 24.5329 944.358 24.3779 943.616 24.3779C943.107 24.3779 942.631 24.4665 942.188 24.6436C941.757 24.8096 941.452 24.9867 941.275 25.1748C941.275 25.3962 941.325 25.7227 941.425 26.1543C941.535 26.5859 941.591 26.9844 941.591 27.3496C941.591 27.737 941.414 28.0911 941.06 28.4121C940.716 28.7331 940.235 28.8936 939.615 28.8936C939.062 28.8936 938.652 28.6999 938.387 28.3125C938.132 27.9141 938.005 27.4714 938.005 26.9844C938.005 26.4753 938.182 25.9883 938.536 25.5234C938.901 25.0586 939.372 24.6436 939.947 24.2783C940.445 23.9684 941.049 23.7083 941.757 23.498C942.465 23.2767 943.157 23.166 943.832 23.166C944.762 23.166 945.57 23.2324 946.256 23.3652C946.953 23.487 947.584 23.7581 948.148 24.1787C948.713 24.5882 949.139 25.1471 949.427 25.8555C949.726 26.5527 949.875 27.4548 949.875 28.5615C949.875 30.1442 949.858 31.5498 949.825 32.7783C949.792 33.9958 949.775 35.3294 949.775 36.7793C949.775 37.2109 949.847 37.554 949.991 37.8086C950.146 38.0632 950.379 38.279 950.688 38.4561C950.854 38.5557 951.115 38.611 951.469 38.6221C951.834 38.6331 952.205 38.6387 952.581 38.6387V39.7012ZM946.787 30.9355C945.846 31.2122 945.022 31.4834 944.313 31.749C943.605 32.0146 942.947 32.3467 942.338 32.7451C941.785 33.1214 941.347 33.5697 941.026 34.0898C940.705 34.599 940.545 35.2077 940.545 35.916C940.545 36.8346 940.783 37.5098 941.259 37.9414C941.746 38.373 942.36 38.5889 943.102 38.5889C943.887 38.5889 944.579 38.4007 945.177 38.0244C945.774 37.637 946.278 37.1833 946.688 36.6631L946.787 30.9355Z" fill="white"/>
<path d="M972.627 40H964.609V38.9043C964.863 38.8822 965.14 38.86 965.439 38.8379C965.749 38.8158 966.003 38.7715 966.202 38.7051C966.512 38.6055 966.739 38.4339 966.883 38.1904C967.038 37.9359 967.115 37.6094 967.115 37.2109V28.7939C967.115 27.6318 966.839 26.7354 966.285 26.1045C965.743 25.4736 965.079 25.1582 964.293 25.1582C963.707 25.1582 963.17 25.2523 962.683 25.4404C962.196 25.6175 961.764 25.8389 961.388 26.1045C961.023 26.359 960.729 26.6357 960.508 26.9346C960.298 27.2223 960.143 27.4548 960.043 27.6318V37.0449C960.043 37.4212 960.121 37.7311 960.276 37.9746C960.431 38.2181 960.663 38.4062 960.973 38.5391C961.205 38.6497 961.454 38.7327 961.72 38.7881C961.997 38.8434 962.279 38.8822 962.567 38.9043V40H954.548V38.9043C954.803 38.8822 955.063 38.86 955.328 38.8379C955.605 38.8158 955.843 38.7715 956.042 38.7051C956.352 38.6055 956.579 38.4339 956.723 38.1904C956.878 37.9359 956.955 37.6094 956.955 37.2109V27.1006C956.955 26.7243 956.872 26.3812 956.706 26.0713C956.551 25.7503 956.33 25.4902 956.042 25.291C955.832 25.1582 955.583 25.0641 955.295 25.0088C955.007 24.9424 954.697 24.8981 954.365 24.876V23.7969L959.811 23.4316L960.043 23.6641V25.9717H960.126C960.392 25.7061 960.724 25.3906 961.122 25.0254C961.521 24.6491 961.897 24.3447 962.251 24.1123C962.661 23.8467 963.148 23.6253 963.712 23.4482C964.277 23.2712 964.913 23.1826 965.621 23.1826C967.193 23.1826 968.355 23.6751 969.108 24.6602C969.871 25.6341 970.253 26.9346 970.253 28.5615V37.0781C970.253 37.4655 970.32 37.7809 970.452 38.0244C970.585 38.2568 970.812 38.4395 971.133 38.5723C971.399 38.6829 971.626 38.7604 971.814 38.8047C972.013 38.849 972.284 38.8822 972.627 38.9043V40Z" fill="white"/>
<path d="M992.906 39.7012L987.195 40.0664L986.946 39.834V38.3066L986.813 38.2734C986.237 38.9154 985.523 39.4411 984.671 39.8506C983.83 40.2601 982.961 40.4648 982.065 40.4648C981.135 40.4648 980.233 40.2601 979.359 39.8506C978.495 39.43 977.743 38.8434 977.101 38.0908C976.448 37.3271 975.928 36.4085 975.54 35.335C975.164 34.2614 974.976 33.0771 974.976 31.7822C974.976 30.598 975.181 29.4746 975.59 28.4121C976 27.3496 976.564 26.4199 977.284 25.623C977.959 24.8815 978.783 24.2894 979.757 23.8467C980.742 23.404 981.744 23.1826 982.762 23.1826C983.526 23.1826 984.273 23.2822 985.003 23.4814C985.745 23.6696 986.381 23.9131 986.912 24.2119V18.5176C986.912 18.0527 986.835 17.6322 986.68 17.2559C986.525 16.8685 986.309 16.5752 986.033 16.376C985.723 16.1657 985.302 16.0163 984.771 15.9277C984.251 15.8281 983.686 15.7562 983.078 15.7119V14.6826L989.768 14.3008L990.017 14.5498V36.6299C990.017 37.0173 990.089 37.3493 990.233 37.626C990.388 37.8916 990.609 38.1185 990.897 38.3066C991.107 38.4395 991.411 38.5225 991.81 38.5557C992.208 38.5889 992.574 38.611 992.906 38.6221V39.7012ZM986.912 36.8291V27.25C986.824 26.9622 986.68 26.6523 986.481 26.3203C986.282 25.9883 986.033 25.6839 985.734 25.4072C985.413 25.1305 985.036 24.9036 984.605 24.7266C984.173 24.5384 983.67 24.4443 983.094 24.4443C982.43 24.4443 981.816 24.6159 981.251 24.959C980.698 25.3021 980.205 25.7946 979.774 26.4365C979.364 27.0563 979.038 27.8477 978.794 28.8105C978.562 29.7624 978.446 30.8193 978.446 31.9814C978.446 32.9111 978.534 33.7578 978.711 34.5215C978.888 35.2741 979.187 35.9769 979.608 36.6299C979.995 37.2497 980.488 37.7477 981.085 38.124C981.694 38.5003 982.413 38.6885 983.244 38.6885C984.129 38.6885 984.859 38.4948 985.435 38.1074C986.022 37.7201 986.514 37.2939 986.912 36.8291Z" fill="white"/>
<path d="M643.591 81H633.779V79.8213C634.643 79.766 635.356 79.6553 635.921 79.4893C636.496 79.3232 636.784 79.1185 636.784 78.875C636.784 78.7754 636.773 78.6536 636.751 78.5098C636.729 78.3659 636.696 78.2386 636.651 78.1279L634.692 72.8486H626.441C626.132 73.6234 625.877 74.2985 625.678 74.874C625.49 75.4495 625.318 75.9808 625.163 76.4678C625.019 76.9437 624.92 77.3311 624.864 77.6299C624.809 77.9287 624.781 78.1722 624.781 78.3604C624.781 78.8031 625.13 79.1462 625.827 79.3896C626.524 79.6331 627.31 79.777 628.185 79.8213V81H619.319V79.8213C619.607 79.7992 619.967 79.7383 620.398 79.6387C620.83 79.528 621.184 79.3841 621.461 79.207C621.904 78.9082 622.247 78.5983 622.49 78.2773C622.734 77.9453 622.972 77.4915 623.204 76.916C624.388 73.9609 625.694 70.6406 627.122 66.9551C628.55 63.2695 629.823 59.988 630.94 57.1104H632.269L640.121 77.4307C640.287 77.8623 640.475 78.2109 640.686 78.4766C640.896 78.7422 641.189 79.0023 641.565 79.2568C641.82 79.4118 642.152 79.5446 642.562 79.6553C642.971 79.7549 643.314 79.8102 643.591 79.8213V81ZM634.095 71.3711L630.525 62.2402L627.022 71.3711H634.095Z" fill="white"/>
<path d="M659.304 66.5732C659.957 67.348 660.46 68.25 660.815 69.2793C661.18 70.2975 661.362 71.4652 661.362 72.7822C661.362 74.0771 661.147 75.2614 660.715 76.335C660.283 77.3975 659.713 78.305 659.005 79.0576C658.263 79.8213 657.439 80.4079 656.531 80.8174C655.624 81.2269 654.661 81.4316 653.643 81.4316C652.658 81.4316 651.85 81.321 651.219 81.0996C650.588 80.8783 650.073 80.6182 649.675 80.3193H649.542V85.2334C649.542 85.6318 649.62 85.9639 649.775 86.2295C649.93 86.4951 650.167 86.6888 650.488 86.8105C650.754 86.9102 651.13 87.0042 651.617 87.0928C652.115 87.1924 652.525 87.2477 652.846 87.2588V88.3711H643.698V87.2588C644.041 87.2367 644.374 87.209 644.694 87.1758C645.015 87.1426 645.303 87.0872 645.558 87.0098C645.89 86.8991 646.122 86.7054 646.255 86.4287C646.388 86.152 646.454 85.8255 646.454 85.4492V68.0342C646.454 67.7021 646.371 67.3812 646.205 67.0713C646.039 66.7614 645.823 66.5124 645.558 66.3242C645.359 66.1914 645.082 66.0918 644.728 66.0254C644.374 65.9479 644.03 65.8981 643.698 65.876V64.7969L649.277 64.4316L649.509 64.6309V66.4736L649.642 66.5068C650.217 65.8428 650.931 65.2894 651.783 64.8467C652.636 64.404 653.482 64.1826 654.323 64.1826C655.342 64.1826 656.271 64.3984 657.112 64.8301C657.965 65.2617 658.695 65.8428 659.304 66.5732ZM656.598 78.3438C657.041 77.6576 657.367 76.8607 657.577 75.9531C657.788 75.0456 657.893 74.0329 657.893 72.915C657.893 72.096 657.804 71.2604 657.627 70.4082C657.45 69.556 657.173 68.8145 656.797 68.1836C656.421 67.5417 655.928 67.0215 655.319 66.623C654.711 66.2246 653.98 66.0254 653.128 66.0254C652.309 66.0254 651.612 66.208 651.036 66.5732C650.461 66.9274 649.963 67.3535 649.542 67.8516V77.5303C649.642 77.8291 649.802 78.139 650.024 78.46C650.256 78.7809 650.511 79.0576 650.787 79.29C651.13 79.5667 651.501 79.7936 651.9 79.9707C652.298 80.1367 652.785 80.2197 653.361 80.2197C653.98 80.2197 654.578 80.0592 655.153 79.7383C655.729 79.4062 656.21 78.9414 656.598 78.3438Z" fill="white"/>
<path d="M679.068 66.5732C679.721 67.348 680.224 68.25 680.578 69.2793C680.944 70.2975 681.126 71.4652 681.126 72.7822C681.126 74.0771 680.91 75.2614 680.479 76.335C680.047 77.3975 679.477 78.305 678.769 79.0576C678.027 79.8213 677.203 80.4079 676.295 80.8174C675.388 81.2269 674.425 81.4316 673.407 81.4316C672.422 81.4316 671.614 81.321 670.983 81.0996C670.352 80.8783 669.837 80.6182 669.439 80.3193H669.306V85.2334C669.306 85.6318 669.383 85.9639 669.538 86.2295C669.693 86.4951 669.931 86.6888 670.252 86.8105C670.518 86.9102 670.894 87.0042 671.381 87.0928C671.879 87.1924 672.289 87.2477 672.61 87.2588V88.3711H663.462V87.2588C663.805 87.2367 664.137 87.209 664.458 87.1758C664.779 87.1426 665.067 87.0872 665.322 87.0098C665.654 86.8991 665.886 86.7054 666.019 86.4287C666.152 86.152 666.218 85.8255 666.218 85.4492V68.0342C666.218 67.7021 666.135 67.3812 665.969 67.0713C665.803 66.7614 665.587 66.5124 665.322 66.3242C665.122 66.1914 664.846 66.0918 664.492 66.0254C664.137 65.9479 663.794 65.8981 663.462 65.876V64.7969L669.04 64.4316L669.273 64.6309V66.4736L669.406 66.5068C669.981 65.8428 670.695 65.2894 671.547 64.8467C672.399 64.404 673.246 64.1826 674.087 64.1826C675.105 64.1826 676.035 64.3984 676.876 64.8301C677.728 65.2617 678.459 65.8428 679.068 66.5732ZM676.362 78.3438C676.804 77.6576 677.131 76.8607 677.341 75.9531C677.551 75.0456 677.657 74.0329 677.657 72.915C677.657 72.096 677.568 71.2604 677.391 70.4082C677.214 69.556 676.937 68.8145 676.561 68.1836C676.185 67.5417 675.692 67.0215 675.083 66.623C674.475 66.2246 673.744 66.0254 672.892 66.0254C672.073 66.0254 671.376 66.208 670.8 66.5732C670.225 66.9274 669.727 67.3535 669.306 67.8516V77.5303C669.406 77.8291 669.566 78.139 669.787 78.46C670.02 78.7809 670.274 79.0576 670.551 79.29C670.894 79.5667 671.265 79.7936 671.663 79.9707C672.062 80.1367 672.549 80.2197 673.124 80.2197C673.744 80.2197 674.342 80.0592 674.917 79.7383C675.493 79.4062 675.974 78.9414 676.362 78.3438Z" fill="white"/>
<path d="M691.543 81H683.558V79.9043C683.813 79.8822 684.084 79.86 684.372 79.8379C684.659 79.8047 684.897 79.7604 685.085 79.7051C685.395 79.6055 685.628 79.4339 685.783 79.1904C685.938 78.9359 686.015 78.6094 686.015 78.2109V59.252C686.015 58.8535 685.927 58.4827 685.75 58.1396C685.583 57.7855 685.362 57.5088 685.085 57.3096C684.886 57.1768 684.521 57.055 683.99 56.9443C683.458 56.8337 683.032 56.7673 682.711 56.7451V55.6826L688.871 55.3008L689.103 55.5498V78.0117C689.103 78.3991 689.175 78.7201 689.319 78.9746C689.463 79.2181 689.695 79.4062 690.016 79.5391C690.26 79.6497 690.498 79.7327 690.73 79.7881C690.973 79.8434 691.245 79.8822 691.543 79.9043V81Z" fill="white"/>
<path d="M701.894 81H693.975V79.9043C694.23 79.8822 694.49 79.86 694.755 79.8379C695.032 79.8158 695.27 79.7715 695.469 79.7051C695.779 79.6055 696.006 79.4339 696.15 79.1904C696.305 78.9359 696.382 78.6094 696.382 78.2109V68.1006C696.382 67.7464 696.299 67.4255 696.133 67.1377C695.978 66.8389 695.757 66.5898 695.469 66.3906C695.259 66.2578 694.955 66.1471 694.556 66.0586C694.158 65.959 693.793 65.8981 693.461 65.876V64.7969L699.238 64.4316L699.47 64.6641V78.0117C699.47 78.3991 699.542 78.7201 699.686 78.9746C699.841 79.2292 700.079 79.4173 700.4 79.5391C700.644 79.6387 700.881 79.7217 701.114 79.7881C701.346 79.8434 701.606 79.8822 701.894 79.9043V81ZM699.802 57.9736C699.802 58.6045 699.592 59.1579 699.172 59.6338C698.762 60.0986 698.253 60.3311 697.644 60.3311C697.08 60.3311 696.587 60.1097 696.167 59.667C695.757 59.2132 695.552 58.6986 695.552 58.123C695.552 57.5143 695.757 56.9831 696.167 56.5293C696.587 56.0755 697.08 55.8486 697.644 55.8486C698.275 55.8486 698.79 56.0645 699.188 56.4961C699.598 56.9167 699.802 57.4092 699.802 57.9736Z" fill="white"/>
<path d="M711.813 81.4316C709.445 81.4316 707.591 80.6458 706.252 79.0742C704.913 77.5026 704.243 75.3942 704.243 72.749C704.243 71.598 704.42 70.5244 704.774 69.5283C705.139 68.5212 705.665 67.6081 706.351 66.7891C707.004 66.0033 707.823 65.3724 708.808 64.8965C709.793 64.4095 710.867 64.166 712.029 64.166C713.634 64.166 714.94 64.5534 715.947 65.3281C716.954 66.0918 717.458 67.1377 717.458 68.4658C717.458 69.0192 717.325 69.5117 717.059 69.9434C716.794 70.3639 716.357 70.5742 715.748 70.5742C715.095 70.5742 714.586 70.4082 714.221 70.0762C713.866 69.7441 713.689 69.3734 713.689 68.9639C713.689 68.4658 713.756 67.9567 713.888 67.4365C714.021 66.9053 714.099 66.5179 714.121 66.2744C713.922 65.9313 713.623 65.7044 713.224 65.5938C712.837 65.472 712.416 65.4111 711.963 65.4111C711.431 65.4111 710.922 65.5273 710.435 65.7598C709.959 65.9811 709.495 66.3962 709.041 67.0049C708.631 67.5583 708.299 68.3053 708.045 69.2461C707.79 70.1868 707.663 71.3102 707.663 72.6162C707.663 74.6748 708.117 76.3571 709.024 77.6631C709.943 78.958 711.144 79.6055 712.627 79.6055C713.7 79.6055 714.597 79.3454 715.316 78.8252C716.047 78.305 716.722 77.5247 717.342 76.4844L718.404 77.1816C717.674 78.4876 716.711 79.5225 715.515 80.2861C714.32 81.0498 713.086 81.4316 711.813 81.4316Z" fill="white"/>
<path d="M735.528 80.7012C735.008 80.8893 734.549 81.0387 734.15 81.1494C733.763 81.2712 733.32 81.332 732.822 81.332C731.959 81.332 731.267 81.1328 730.747 80.7344C730.238 80.3249 729.911 79.7327 729.768 78.958H729.668C728.949 79.7549 728.174 80.3636 727.344 80.7842C726.525 81.2048 725.534 81.415 724.372 81.415C723.143 81.415 722.131 81.0387 721.334 80.2861C720.548 79.5335 720.155 78.5485 720.155 77.3311C720.155 76.7002 720.244 76.1357 720.421 75.6377C720.598 75.1396 720.864 74.6914 721.218 74.293C721.494 73.9609 721.86 73.6676 722.313 73.4131C722.767 73.1475 723.193 72.9372 723.592 72.7822C724.09 72.5941 725.097 72.2454 726.613 71.7363C728.141 71.2272 729.17 70.8288 729.701 70.541V68.8975C729.701 68.7536 729.668 68.4769 729.602 68.0674C729.546 67.6579 729.419 67.2705 729.22 66.9053C728.998 66.4958 728.683 66.1416 728.273 65.8428C727.875 65.5329 727.305 65.3779 726.563 65.3779C726.054 65.3779 725.578 65.4665 725.136 65.6436C724.704 65.8096 724.4 65.9867 724.223 66.1748C724.223 66.3962 724.272 66.7227 724.372 67.1543C724.483 67.5859 724.538 67.9844 724.538 68.3496C724.538 68.737 724.361 69.0911 724.007 69.4121C723.664 69.7331 723.182 69.8936 722.562 69.8936C722.009 69.8936 721.6 69.6999 721.334 69.3125C721.079 68.9141 720.952 68.4714 720.952 67.9844C720.952 67.4753 721.129 66.9883 721.483 66.5234C721.849 66.0586 722.319 65.6436 722.894 65.2783C723.393 64.9684 723.996 64.7083 724.704 64.498C725.412 64.2767 726.104 64.166 726.779 64.166C727.709 64.166 728.517 64.2324 729.203 64.3652C729.9 64.487 730.531 64.7581 731.096 65.1787C731.66 65.5882 732.086 66.1471 732.374 66.8555C732.673 67.5527 732.822 68.4548 732.822 69.5615C732.822 71.1442 732.806 72.5498 732.772 73.7783C732.739 74.9958 732.723 76.3294 732.723 77.7793C732.723 78.2109 732.795 78.554 732.938 78.8086C733.093 79.0632 733.326 79.279 733.636 79.4561C733.802 79.5557 734.062 79.611 734.416 79.6221C734.781 79.6331 735.152 79.6387 735.528 79.6387V80.7012ZM729.734 71.9355C728.794 72.2122 727.969 72.4834 727.261 72.749C726.552 73.0146 725.894 73.3467 725.285 73.7451C724.732 74.1214 724.295 74.5697 723.974 75.0898C723.653 75.599 723.492 76.2077 723.492 76.916C723.492 77.8346 723.73 78.5098 724.206 78.9414C724.693 79.373 725.307 79.5889 726.049 79.5889C726.835 79.5889 727.526 79.4007 728.124 79.0244C728.722 78.637 729.225 78.1833 729.635 77.6631L729.734 71.9355Z" fill="white"/>
<path d="M747.606 80.2861C746.886 80.585 746.206 80.834 745.564 81.0332C744.922 81.2435 744.136 81.3486 743.206 81.3486C741.834 81.3486 740.865 81.0055 740.301 80.3193C739.748 79.6221 739.471 78.6426 739.471 77.3809V66.291H736.516V64.6973H739.537V59.6006H742.559V64.6973H747.257V66.291H742.592V75.4385C742.592 76.1247 742.614 76.7002 742.658 77.165C742.714 77.6188 742.835 78.0173 743.024 78.3604C743.201 78.6813 743.466 78.9248 743.82 79.0908C744.175 79.2568 744.651 79.3398 745.248 79.3398C745.525 79.3398 745.929 79.3177 746.46 79.2734C747.002 79.2181 747.384 79.1517 747.606 79.0742V80.2861Z" fill="white"/>
<path d="M757.541 81H749.622V79.9043C749.877 79.8822 750.137 79.86 750.403 79.8379C750.679 79.8158 750.917 79.7715 751.116 79.7051C751.426 79.6055 751.653 79.4339 751.797 79.1904C751.952 78.9359 752.03 78.6094 752.03 78.2109V68.1006C752.03 67.7464 751.947 67.4255 751.781 67.1377C751.626 66.8389 751.404 66.5898 751.116 66.3906C750.906 66.2578 750.602 66.1471 750.203 66.0586C749.805 65.959 749.44 65.8981 749.108 65.876V64.7969L754.885 64.4316L755.117 64.6641V78.0117C755.117 78.3991 755.189 78.7201 755.333 78.9746C755.488 79.2292 755.726 79.4173 756.047 79.5391C756.291 79.6387 756.529 79.7217 756.761 79.7881C756.993 79.8434 757.253 79.8822 757.541 79.9043V81ZM755.449 57.9736C755.449 58.6045 755.239 59.1579 754.819 59.6338C754.409 60.0986 753.9 60.3311 753.291 60.3311C752.727 60.3311 752.234 60.1097 751.814 59.667C751.404 59.2132 751.199 58.6986 751.199 58.123C751.199 57.5143 751.404 56.9831 751.814 56.5293C752.234 56.0755 752.727 55.8486 753.291 55.8486C753.922 55.8486 754.437 56.0645 754.835 56.4961C755.245 56.9167 755.449 57.4092 755.449 57.9736Z" fill="white"/>
<path d="M775.844 72.6494C775.844 73.8005 775.662 74.9349 775.296 76.0527C774.931 77.1595 774.411 78.1003 773.736 78.875C772.972 79.7604 772.087 80.4189 771.08 80.8506C770.072 81.2822 768.943 81.498 767.693 81.498C766.652 81.498 765.662 81.3044 764.721 80.917C763.78 80.5186 762.945 79.943 762.214 79.1904C761.495 78.4489 760.919 77.5469 760.488 76.4844C760.067 75.4108 759.857 74.21 759.857 72.8818C759.857 70.3252 760.598 68.2334 762.081 66.6064C763.576 64.9795 765.529 64.166 767.942 64.166C770.233 64.166 772.12 64.9408 773.603 66.4902C775.097 68.0286 775.844 70.0817 775.844 72.6494ZM772.408 72.6826C772.408 71.8525 772.325 70.9782 772.159 70.0596C771.993 69.1299 771.744 68.3441 771.412 67.7021C771.057 67.016 770.593 66.4681 770.017 66.0586C769.442 65.638 768.739 65.4277 767.909 65.4277C767.056 65.4277 766.326 65.638 765.717 66.0586C765.12 66.4792 764.633 67.0547 764.256 67.7852C763.902 68.4603 763.653 69.2295 763.509 70.0928C763.365 70.9561 763.293 71.7917 763.293 72.5996C763.293 73.6621 763.376 74.6471 763.542 75.5547C763.72 76.4512 763.996 77.2536 764.372 77.9619C764.749 78.6702 765.219 79.2292 765.784 79.6387C766.359 80.0371 767.067 80.2363 767.909 80.2363C769.292 80.2363 770.388 79.5667 771.196 78.2275C772.004 76.8883 772.408 75.04 772.408 72.6826Z" fill="white"/>
<path d="M796.637 81H788.619V79.9043C788.873 79.8822 789.15 79.86 789.449 79.8379C789.759 79.8158 790.013 79.7715 790.213 79.7051C790.522 79.6055 790.749 79.4339 790.893 79.1904C791.048 78.9359 791.126 78.6094 791.126 78.2109V69.7939C791.126 68.6318 790.849 67.7354 790.296 67.1045C789.753 66.4736 789.089 66.1582 788.303 66.1582C787.717 66.1582 787.18 66.2523 786.693 66.4404C786.206 66.6175 785.774 66.8389 785.398 67.1045C785.033 67.359 784.74 67.6357 784.518 67.9346C784.308 68.2223 784.153 68.4548 784.053 68.6318V78.0449C784.053 78.4212 784.131 78.7311 784.286 78.9746C784.441 79.2181 784.673 79.4062 784.983 79.5391C785.215 79.6497 785.464 79.7327 785.73 79.7881C786.007 79.8434 786.289 79.8822 786.577 79.9043V81H778.558V79.9043C778.813 79.8822 779.073 79.86 779.339 79.8379C779.615 79.8158 779.853 79.7715 780.052 79.7051C780.362 79.6055 780.589 79.4339 780.733 79.1904C780.888 78.9359 780.965 78.6094 780.965 78.2109V68.1006C780.965 67.7243 780.882 67.3812 780.716 67.0713C780.561 66.7503 780.34 66.4902 780.052 66.291C779.842 66.1582 779.593 66.0641 779.305 66.0088C779.018 65.9424 778.708 65.8981 778.376 65.876V64.7969L783.821 64.4316L784.053 64.6641V66.9717H784.136C784.402 66.7061 784.734 66.3906 785.132 66.0254C785.531 65.6491 785.907 65.3447 786.261 65.1123C786.671 64.8467 787.158 64.6253 787.722 64.4482C788.287 64.2712 788.923 64.1826 789.631 64.1826C791.203 64.1826 792.365 64.6751 793.118 65.6602C793.881 66.6341 794.263 67.9346 794.263 69.5615V78.0781C794.263 78.4655 794.33 78.7809 794.463 79.0244C794.595 79.2568 794.822 79.4395 795.143 79.5723C795.409 79.6829 795.636 79.7604 795.824 79.8047C796.023 79.849 796.294 79.8822 796.637 79.9043V81Z" fill="white"/>
<path d="M809.794 72.9814C810.247 73.3799 810.596 73.8392 810.84 74.3594C811.083 74.8796 811.205 75.516 811.205 76.2686C811.205 77.7848 810.635 79.0244 809.495 79.9873C808.366 80.9502 806.899 81.4316 805.095 81.4316C804.144 81.4316 803.264 81.2601 802.456 80.917C801.659 80.5739 801.089 80.2585 800.746 79.9707L800.414 81.0498H799.169L799.003 75.3555H800.148C800.237 75.7871 800.425 76.2907 800.713 76.8662C801 77.4417 801.349 77.9619 801.759 78.4268C802.19 78.9137 802.705 79.3232 803.302 79.6553C803.911 79.9873 804.592 80.1533 805.344 80.1533C806.407 80.1533 807.226 79.9154 807.802 79.4395C808.377 78.9525 808.665 78.2607 808.665 77.3643C808.665 76.8994 808.571 76.501 808.383 76.1689C808.205 75.8258 807.94 75.527 807.586 75.2725C807.22 75.0179 806.772 74.791 806.241 74.5918C805.71 74.3815 805.118 74.1768 804.465 73.9775C803.944 73.8226 803.363 73.6123 802.721 73.3467C802.091 73.07 801.548 72.749 801.094 72.3838C800.608 71.9964 800.209 71.5205 799.899 70.9561C799.589 70.3916 799.434 69.7275 799.434 68.9639C799.434 67.6247 799.932 66.4902 800.928 65.5605C801.925 64.6309 803.258 64.166 804.929 64.166C805.571 64.166 806.224 64.249 806.888 64.415C807.564 64.5811 808.111 64.7803 808.532 65.0127L808.914 64.1494H810.109L810.358 69.4121H809.213C808.98 68.2389 808.477 67.2871 807.702 66.5566C806.938 65.8151 806.003 65.4443 804.896 65.4443C803.989 65.4443 803.275 65.6712 802.755 66.125C802.234 66.5788 801.974 67.1266 801.974 67.7686C801.974 68.2666 802.057 68.6816 802.223 69.0137C802.4 69.3457 802.661 69.6279 803.004 69.8604C803.336 70.0817 803.751 70.292 804.249 70.4912C804.758 70.6794 805.383 70.8952 806.125 71.1387C806.855 71.3711 807.541 71.6423 808.183 71.9521C808.836 72.262 809.373 72.6051 809.794 72.9814Z" fill="white"/>
<path d="M833.301 81H822.692V79.8213C822.991 79.7992 823.423 79.766 823.987 79.7217C824.552 79.6774 824.95 79.611 825.183 79.5225C825.548 79.3786 825.814 79.1849 825.98 78.9414C826.146 78.6868 826.229 78.3382 826.229 77.8955V60.8291C826.229 60.4417 826.168 60.1208 826.046 59.8662C825.924 59.6006 825.636 59.3792 825.183 59.2021C824.851 59.0693 824.43 58.9476 823.921 58.8369C823.423 58.7152 823.013 58.6432 822.692 58.6211V57.4424H833.301V58.6211C832.958 58.6322 832.548 58.6764 832.072 58.7539C831.596 58.8203 831.181 58.9089 830.827 59.0195C830.407 59.1523 830.124 59.3682 829.981 59.667C829.837 59.9658 829.765 60.2979 829.765 60.6631V77.7129C829.765 78.0781 829.842 78.4046 829.997 78.6924C830.163 78.9691 830.44 79.1904 830.827 79.3564C831.06 79.445 831.436 79.5446 831.956 79.6553C832.487 79.7549 832.936 79.8102 833.301 79.8213V81Z" fill="white"/>
<path d="M854.243 81H846.225V79.9043C846.479 79.8822 846.756 79.86 847.055 79.8379C847.365 79.8158 847.619 79.7715 847.819 79.7051C848.128 79.6055 848.355 79.4339 848.499 79.1904C848.654 78.9359 848.732 78.6094 848.732 78.2109V69.7939C848.732 68.6318 848.455 67.7354 847.902 67.1045C847.359 66.4736 846.695 66.1582 845.909 66.1582C845.323 66.1582 844.786 66.2523 844.299 66.4404C843.812 66.6175 843.38 66.8389 843.004 67.1045C842.639 67.359 842.346 67.6357 842.124 67.9346C841.914 68.2223 841.759 68.4548 841.659 68.6318V78.0449C841.659 78.4212 841.737 78.7311 841.892 78.9746C842.047 79.2181 842.279 79.4062 842.589 79.5391C842.822 79.6497 843.071 79.7327 843.336 79.7881C843.613 79.8434 843.895 79.8822 844.183 79.9043V81H836.164V79.9043C836.419 79.8822 836.679 79.86 836.945 79.8379C837.221 79.8158 837.459 79.7715 837.658 79.7051C837.968 79.6055 838.195 79.4339 838.339 79.1904C838.494 78.9359 838.572 78.6094 838.572 78.2109V68.1006C838.572 67.7243 838.489 67.3812 838.323 67.0713C838.168 66.7503 837.946 66.4902 837.658 66.291C837.448 66.1582 837.199 66.0641 836.911 66.0088C836.624 65.9424 836.314 65.8981 835.982 65.876V64.7969L841.427 64.4316L841.659 64.6641V66.9717H841.742C842.008 66.7061 842.34 66.3906 842.739 66.0254C843.137 65.6491 843.513 65.3447 843.867 65.1123C844.277 64.8467 844.764 64.6253 845.328 64.4482C845.893 64.2712 846.529 64.1826 847.238 64.1826C848.809 64.1826 849.971 64.6751 850.724 65.6602C851.488 66.6341 851.869 67.9346 851.869 69.5615V78.0781C851.869 78.4655 851.936 78.7809 852.069 79.0244C852.201 79.2568 852.428 79.4395 852.749 79.5723C853.015 79.6829 853.242 79.7604 853.43 79.8047C853.629 79.849 853.9 79.8822 854.243 79.9043V81Z" fill="white"/>
<path d="M866.703 80.2861C865.983 80.585 865.302 80.834 864.661 81.0332C864.019 81.2435 863.233 81.3486 862.303 81.3486C860.931 81.3486 859.962 81.0055 859.398 80.3193C858.844 79.6221 858.568 78.6426 858.568 77.3809V66.291H855.613V64.6973H858.634V59.6006H861.656V64.6973H866.354V66.291H861.689V75.4385C861.689 76.1247 861.711 76.7002 861.755 77.165C861.811 77.6188 861.932 78.0173 862.12 78.3604C862.298 78.6813 862.563 78.9248 862.917 79.0908C863.272 79.2568 863.747 79.3398 864.345 79.3398C864.622 79.3398 865.026 79.3177 865.557 79.2734C866.099 79.2181 866.481 79.1517 866.703 79.0742V80.2861Z" fill="white"/>
<path d="M883.229 77.1484C882.543 78.4544 881.624 79.4948 880.473 80.2695C879.322 81.0443 878 81.4316 876.505 81.4316C875.188 81.4316 874.032 81.1992 873.036 80.7344C872.051 80.2695 871.237 79.6387 870.595 78.8418C869.953 78.0449 869.472 77.1152 869.151 76.0527C868.841 74.9902 868.686 73.8669 868.686 72.6826C868.686 71.6201 868.852 70.5798 869.184 69.5615C869.527 68.5322 870.025 67.6081 870.678 66.7891C871.309 66.0033 872.089 65.3724 873.019 64.8965C873.96 64.4095 875.011 64.166 876.173 64.166C877.369 64.166 878.392 64.3542 879.245 64.7305C880.097 65.1068 880.789 65.6214 881.32 66.2744C881.829 66.8942 882.205 67.6247 882.449 68.4658C882.703 69.307 882.831 70.2201 882.831 71.2051V72.3008H871.99C871.99 73.3743 872.089 74.3483 872.289 75.2227C872.499 76.097 872.825 76.8662 873.268 77.5303C873.7 78.1722 874.264 78.6813 874.961 79.0576C875.659 79.4229 876.489 79.6055 877.452 79.6055C878.437 79.6055 879.283 79.3786 879.992 78.9248C880.711 78.46 881.403 77.6299 882.067 76.4346L883.229 77.1484ZM879.56 70.9062C879.56 70.2865 879.505 69.6224 879.394 68.9141C879.294 68.2057 879.128 67.6136 878.896 67.1377C878.641 66.6286 878.293 66.2135 877.85 65.8926C877.407 65.5716 876.837 65.4111 876.14 65.4111C874.978 65.4111 874.01 65.8981 873.235 66.8721C872.471 67.835 872.056 69.1797 871.99 70.9062H879.56Z" fill="white"/>
<path d="M897.996 66.7393C897.996 67.3037 897.858 67.8073 897.581 68.25C897.304 68.6816 896.878 68.8975 896.302 68.8975C895.683 68.8975 895.207 68.737 894.875 68.416C894.554 68.0951 894.393 67.7409 894.393 67.3535C894.393 67.11 894.41 66.8887 894.443 66.6895C894.487 66.4902 894.526 66.291 894.559 66.0918C894.039 66.0918 893.43 66.3021 892.733 66.7227C892.036 67.1432 891.444 67.7409 890.957 68.5156V78.0449C890.957 78.4323 891.029 78.7477 891.173 78.9912C891.328 79.2347 891.566 79.4173 891.886 79.5391C892.163 79.6497 892.517 79.7327 892.949 79.7881C893.392 79.8434 893.774 79.8822 894.094 79.9043V81H885.462V79.9043C885.716 79.8822 885.976 79.86 886.242 79.8379C886.519 79.8158 886.757 79.7715 886.956 79.7051C887.266 79.6055 887.493 79.4339 887.636 79.1904C887.791 78.9359 887.869 78.6094 887.869 78.2109V68.1006C887.869 67.7575 887.786 67.4199 887.62 67.0879C887.465 66.7559 887.244 66.4902 886.956 66.291C886.746 66.1582 886.497 66.0641 886.209 66.0088C885.921 65.9424 885.611 65.8981 885.279 65.876V64.7969L890.724 64.4316L890.957 64.6641V66.9717H891.04C891.726 66.0752 892.49 65.3945 893.331 64.9297C894.172 64.4648 894.941 64.2324 895.638 64.2324C896.336 64.2324 896.9 64.4593 897.332 64.9131C897.774 65.3669 897.996 65.9756 897.996 66.7393Z" fill="white"/>
<path d="M917.826 81H909.807V79.9043C910.062 79.8822 910.339 79.86 910.638 79.8379C910.947 79.8158 911.202 79.7715 911.401 79.7051C911.711 79.6055 911.938 79.4339 912.082 79.1904C912.237 78.9359 912.314 78.6094 912.314 78.2109V69.7939C912.314 68.6318 912.038 67.7354 911.484 67.1045C910.942 66.4736 910.278 66.1582 909.492 66.1582C908.905 66.1582 908.369 66.2523 907.882 66.4404C907.395 66.6175 906.963 66.8389 906.587 67.1045C906.222 67.359 905.928 67.6357 905.707 67.9346C905.497 68.2223 905.342 68.4548 905.242 68.6318V78.0449C905.242 78.4212 905.32 78.7311 905.474 78.9746C905.629 79.2181 905.862 79.4062 906.172 79.5391C906.404 79.6497 906.653 79.7327 906.919 79.7881C907.196 79.8434 907.478 79.8822 907.766 79.9043V81H899.747V79.9043C900.002 79.8822 900.262 79.86 900.527 79.8379C900.804 79.8158 901.042 79.7715 901.241 79.7051C901.551 79.6055 901.778 79.4339 901.922 79.1904C902.077 78.9359 902.154 78.6094 902.154 78.2109V68.1006C902.154 67.7243 902.071 67.3812 901.905 67.0713C901.75 66.7503 901.529 66.4902 901.241 66.291C901.031 66.1582 900.782 66.0641 900.494 66.0088C900.206 65.9424 899.896 65.8981 899.564 65.876V64.7969L905.01 64.4316L905.242 64.6641V66.9717H905.325C905.591 66.7061 905.923 66.3906 906.321 66.0254C906.72 65.6491 907.096 65.3447 907.45 65.1123C907.86 64.8467 908.347 64.6253 908.911 64.4482C909.475 64.2712 910.112 64.1826 910.82 64.1826C912.392 64.1826 913.554 64.6751 914.307 65.6602C915.07 66.6341 915.452 67.9346 915.452 69.5615V78.0781C915.452 78.4655 915.518 78.7809 915.651 79.0244C915.784 79.2568 916.011 79.4395 916.332 79.5723C916.598 79.6829 916.824 79.7604 917.013 79.8047C917.212 79.849 917.483 79.8822 917.826 79.9043V81Z" fill="white"/>
<path d="M935.681 80.7012C935.16 80.8893 934.701 81.0387 934.303 81.1494C933.915 81.2712 933.473 81.332 932.975 81.332C932.111 81.332 931.42 81.1328 930.899 80.7344C930.39 80.3249 930.064 79.7327 929.92 78.958H929.82C929.101 79.7549 928.326 80.3636 927.496 80.7842C926.677 81.2048 925.687 81.415 924.524 81.415C923.296 81.415 922.283 81.0387 921.486 80.2861C920.701 79.5335 920.308 78.5485 920.308 77.3311C920.308 76.7002 920.396 76.1357 920.573 75.6377C920.75 75.1396 921.016 74.6914 921.37 74.293C921.647 73.9609 922.012 73.6676 922.466 73.4131C922.92 73.1475 923.346 72.9372 923.744 72.7822C924.242 72.5941 925.249 72.2454 926.766 71.7363C928.293 71.2272 929.322 70.8288 929.854 70.541V68.8975C929.854 68.7536 929.82 68.4769 929.754 68.0674C929.699 67.6579 929.571 67.2705 929.372 66.9053C929.151 66.4958 928.835 66.1416 928.426 65.8428C928.027 65.5329 927.457 65.3779 926.716 65.3779C926.207 65.3779 925.731 65.4665 925.288 65.6436C924.856 65.8096 924.552 65.9867 924.375 66.1748C924.375 66.3962 924.425 66.7227 924.524 67.1543C924.635 67.5859 924.69 67.9844 924.69 68.3496C924.69 68.737 924.513 69.0911 924.159 69.4121C923.816 69.7331 923.335 69.8936 922.715 69.8936C922.161 69.8936 921.752 69.6999 921.486 69.3125C921.232 68.9141 921.104 68.4714 921.104 67.9844C921.104 67.4753 921.282 66.9883 921.636 66.5234C922.001 66.0586 922.471 65.6436 923.047 65.2783C923.545 64.9684 924.148 64.7083 924.856 64.498C925.565 64.2767 926.257 64.166 926.932 64.166C927.861 64.166 928.669 64.2324 929.355 64.3652C930.053 64.487 930.684 64.7581 931.248 65.1787C931.812 65.5882 932.239 66.1471 932.526 66.8555C932.825 67.5527 932.975 68.4548 932.975 69.5615C932.975 71.1442 932.958 72.5498 932.925 73.7783C932.892 74.9958 932.875 76.3294 932.875 77.7793C932.875 78.2109 932.947 78.554 933.091 78.8086C933.246 79.0632 933.478 79.279 933.788 79.4561C933.954 79.5557 934.214 79.611 934.568 79.6221C934.934 79.6331 935.304 79.6387 935.681 79.6387V80.7012ZM929.887 71.9355C928.946 72.2122 928.121 72.4834 927.413 72.749C926.705 73.0146 926.046 73.3467 925.438 73.7451C924.884 74.1214 924.447 74.5697 924.126 75.0898C923.805 75.599 923.645 76.2077 923.645 76.916C923.645 77.8346 923.882 78.5098 924.358 78.9414C924.845 79.373 925.46 79.5889 926.201 79.5889C926.987 79.5889 927.679 79.4007 928.276 79.0244C928.874 78.637 929.378 78.1833 929.787 77.6631L929.887 71.9355Z" fill="white"/>
<path d="M947.758 80.2861C947.039 80.585 946.358 80.834 945.716 81.0332C945.074 81.2435 944.288 81.3486 943.359 81.3486C941.986 81.3486 941.018 81.0055 940.453 80.3193C939.9 79.6221 939.623 78.6426 939.623 77.3809V66.291H936.668V64.6973H939.69V59.6006H942.711V64.6973H947.409V66.291H942.744V75.4385C942.744 76.1247 942.766 76.7002 942.811 77.165C942.866 77.6188 942.988 78.0173 943.176 78.3604C943.353 78.6813 943.619 78.9248 943.973 79.0908C944.327 79.2568 944.803 79.3398 945.401 79.3398C945.677 79.3398 946.081 79.3177 946.612 79.2734C947.155 79.2181 947.537 79.1517 947.758 79.0742V80.2861Z" fill="white"/>
<path d="M957.694 81H949.775V79.9043C950.029 79.8822 950.289 79.86 950.555 79.8379C950.832 79.8158 951.07 79.7715 951.269 79.7051C951.579 79.6055 951.806 79.4339 951.95 79.1904C952.105 78.9359 952.182 78.6094 952.182 78.2109V68.1006C952.182 67.7464 952.099 67.4255 951.933 67.1377C951.778 66.8389 951.557 66.5898 951.269 66.3906C951.059 66.2578 950.754 66.1471 950.356 66.0586C949.957 65.959 949.592 65.8981 949.26 65.876V64.7969L955.037 64.4316L955.27 64.6641V78.0117C955.27 78.3991 955.342 78.7201 955.486 78.9746C955.641 79.2292 955.879 79.4173 956.2 79.5391C956.443 79.6387 956.681 79.7217 956.913 79.7881C957.146 79.8434 957.406 79.8822 957.694 79.9043V81ZM955.602 57.9736C955.602 58.6045 955.392 59.1579 954.971 59.6338C954.562 60.0986 954.052 60.3311 953.444 60.3311C952.879 60.3311 952.387 60.1097 951.966 59.667C951.557 59.2132 951.352 58.6986 951.352 58.123C951.352 57.5143 951.557 56.9831 951.966 56.5293C952.387 56.0755 952.879 55.8486 953.444 55.8486C954.075 55.8486 954.589 56.0645 954.988 56.4961C955.397 56.9167 955.602 57.4092 955.602 57.9736Z" fill="white"/>
<path d="M975.997 72.6494C975.997 73.8005 975.814 74.9349 975.449 76.0527C975.083 77.1595 974.563 78.1003 973.888 78.875C973.125 79.7604 972.239 80.4189 971.232 80.8506C970.225 81.2822 969.096 81.498 967.845 81.498C966.805 81.498 965.814 81.3044 964.874 80.917C963.933 80.5186 963.097 79.943 962.367 79.1904C961.647 78.4489 961.072 77.5469 960.64 76.4844C960.22 75.4108 960.009 74.21 960.009 72.8818C960.009 70.3252 960.751 68.2334 962.234 66.6064C963.728 64.9795 965.681 64.166 968.094 64.166C970.385 64.166 972.272 64.9408 973.755 66.4902C975.25 68.0286 975.997 70.0817 975.997 72.6494ZM972.56 72.6826C972.56 71.8525 972.477 70.9782 972.311 70.0596C972.145 69.1299 971.896 68.3441 971.564 67.7021C971.21 67.016 970.745 66.4681 970.169 66.0586C969.594 65.638 968.891 65.4277 968.061 65.4277C967.209 65.4277 966.478 65.638 965.87 66.0586C965.272 66.4792 964.785 67.0547 964.409 67.7852C964.055 68.4603 963.806 69.2295 963.662 70.0928C963.518 70.9561 963.446 71.7917 963.446 72.5996C963.446 73.6621 963.529 74.6471 963.695 75.5547C963.872 76.4512 964.149 77.2536 964.525 77.9619C964.901 78.6702 965.372 79.2292 965.936 79.6387C966.512 80.0371 967.22 80.2363 968.061 80.2363C969.444 80.2363 970.54 79.5667 971.348 78.2275C972.156 76.8883 972.56 75.04 972.56 72.6826Z" fill="white"/>
<path d="M996.79 81H988.771V79.9043C989.026 79.8822 989.302 79.86 989.601 79.8379C989.911 79.8158 990.166 79.7715 990.365 79.7051C990.675 79.6055 990.902 79.4339 991.046 79.1904C991.201 78.9359 991.278 78.6094 991.278 78.2109V69.7939C991.278 68.6318 991.001 67.7354 990.448 67.1045C989.906 66.4736 989.242 66.1582 988.456 66.1582C987.869 66.1582 987.332 66.2523 986.845 66.4404C986.358 66.6175 985.927 66.8389 985.55 67.1045C985.185 67.359 984.892 67.6357 984.671 67.9346C984.46 68.2223 984.305 68.4548 984.206 68.6318V78.0449C984.206 78.4212 984.283 78.7311 984.438 78.9746C984.593 79.2181 984.826 79.4062 985.135 79.5391C985.368 79.6497 985.617 79.7327 985.883 79.7881C986.159 79.8434 986.441 79.8822 986.729 79.9043V81H978.711V79.9043C978.965 79.8822 979.225 79.86 979.491 79.8379C979.768 79.8158 980.006 79.7715 980.205 79.7051C980.515 79.6055 980.742 79.4339 980.885 79.1904C981.04 78.9359 981.118 78.6094 981.118 78.2109V68.1006C981.118 67.7243 981.035 67.3812 980.869 67.0713C980.714 66.7503 980.493 66.4902 980.205 66.291C979.994 66.1582 979.745 66.0641 979.458 66.0088C979.17 65.9424 978.86 65.8981 978.528 65.876V64.7969L983.973 64.4316L984.206 64.6641V66.9717H984.289C984.554 66.7061 984.886 66.3906 985.285 66.0254C985.683 65.6491 986.06 65.3447 986.414 65.1123C986.823 64.8467 987.31 64.6253 987.875 64.4482C988.439 64.2712 989.076 64.1826 989.784 64.1826C991.355 64.1826 992.518 64.6751 993.27 65.6602C994.034 66.6341 994.416 67.9346 994.416 69.5615V78.0781C994.416 78.4655 994.482 78.7809 994.615 79.0244C994.748 79.2568 994.975 79.4395 995.296 79.5723C995.561 79.6829 995.788 79.7604 995.976 79.8047C996.175 79.849 996.447 79.8822 996.79 79.9043V81Z" fill="white"/>
<path d="M1014.64 80.7012C1014.12 80.8893 1013.66 81.0387 1013.27 81.1494C1012.88 81.2712 1012.44 81.332 1011.94 81.332C1011.08 81.332 1010.38 81.1328 1009.86 80.7344C1009.35 80.3249 1009.03 79.7327 1008.88 78.958H1008.78C1008.06 79.7549 1007.29 80.3636 1006.46 80.7842C1005.64 81.2048 1004.65 81.415 1003.49 81.415C1002.26 81.415 1001.25 81.0387 1000.45 80.2861C999.664 79.5335 999.271 78.5485 999.271 77.3311C999.271 76.7002 999.36 76.1357 999.537 75.6377C999.714 75.1396 999.98 74.6914 1000.33 74.293C1000.61 73.9609 1000.98 73.6676 1001.43 73.4131C1001.88 73.1475 1002.31 72.9372 1002.71 72.7822C1003.21 72.5941 1004.21 72.2454 1005.73 71.7363C1007.26 71.2272 1008.29 70.8288 1008.82 70.541V68.8975C1008.82 68.7536 1008.78 68.4769 1008.72 68.0674C1008.66 67.6579 1008.54 67.2705 1008.34 66.9053C1008.11 66.4958 1007.8 66.1416 1007.39 65.8428C1006.99 65.5329 1006.42 65.3779 1005.68 65.3779C1005.17 65.3779 1004.69 65.4665 1004.25 65.6436C1003.82 65.8096 1003.52 65.9867 1003.34 66.1748C1003.34 66.3962 1003.39 66.7227 1003.49 67.1543C1003.6 67.5859 1003.65 67.9844 1003.65 68.3496C1003.65 68.737 1003.48 69.0911 1003.12 69.4121C1002.78 69.7331 1002.3 69.8936 1001.68 69.8936C1001.13 69.8936 1000.72 69.6999 1000.45 69.3125C1000.2 68.9141 1000.07 68.4714 1000.07 67.9844C1000.07 67.4753 1000.25 66.9883 1000.6 66.5234C1000.96 66.0586 1001.44 65.6436 1002.01 65.2783C1002.51 64.9684 1003.11 64.7083 1003.82 64.498C1004.53 64.2767 1005.22 64.166 1005.9 64.166C1006.83 64.166 1007.63 64.2324 1008.32 64.3652C1009.02 64.487 1009.65 64.7581 1010.21 65.1787C1010.78 65.5882 1011.2 66.1471 1011.49 66.8555C1011.79 67.5527 1011.94 68.4548 1011.94 69.5615C1011.94 71.1442 1011.92 72.5498 1011.89 73.7783C1011.86 74.9958 1011.84 76.3294 1011.84 77.7793C1011.84 78.2109 1011.91 78.554 1012.05 78.8086C1012.21 79.0632 1012.44 79.279 1012.75 79.4561C1012.92 79.5557 1013.18 79.611 1013.53 79.6221C1013.9 79.6331 1014.27 79.6387 1014.64 79.6387V80.7012ZM1008.85 71.9355C1007.91 72.2122 1007.09 72.4834 1006.38 72.749C1005.67 73.0146 1005.01 73.3467 1004.4 73.7451C1003.85 74.1214 1003.41 74.5697 1003.09 75.0898C1002.77 75.599 1002.61 76.2077 1002.61 76.916C1002.61 77.8346 1002.85 78.5098 1003.32 78.9414C1003.81 79.373 1004.42 79.5889 1005.16 79.5889C1005.95 79.5889 1006.64 79.4007 1007.24 79.0244C1007.84 78.637 1008.34 78.1833 1008.75 77.6631L1008.85 71.9355Z" fill="white"/>
<path d="M1024.28 81H1016.3V79.9043C1016.55 79.8822 1016.82 79.86 1017.11 79.8379C1017.4 79.8047 1017.64 79.7604 1017.82 79.7051C1018.13 79.6055 1018.37 79.4339 1018.52 79.1904C1018.68 78.9359 1018.75 78.6094 1018.75 78.2109V59.252C1018.75 58.8535 1018.66 58.4827 1018.49 58.1396C1018.32 57.7855 1018.1 57.5088 1017.82 57.3096C1017.62 57.1768 1017.26 57.055 1016.73 56.9443C1016.2 56.8337 1015.77 56.7673 1015.45 56.7451V55.6826L1021.61 55.3008L1021.84 55.5498V78.0117C1021.84 78.3991 1021.91 78.7201 1022.06 78.9746C1022.2 79.2181 1022.43 79.4062 1022.75 79.5391C1023 79.6497 1023.24 79.7327 1023.47 79.7881C1023.71 79.8434 1023.98 79.8822 1024.28 79.9043V81Z" fill="white"/>
<path d="M632.003 122.548C630.597 122.548 629.247 122.271 627.952 121.718C626.668 121.164 625.528 120.368 624.532 119.327C623.547 118.287 622.761 117.02 622.175 115.525C621.588 114.02 621.295 112.327 621.295 110.445C621.295 108.564 621.583 106.859 622.158 105.332C622.734 103.794 623.531 102.471 624.549 101.364C625.556 100.269 626.746 99.4219 628.118 98.8242C629.491 98.2266 630.957 97.9277 632.518 97.9277C633.68 97.9277 634.731 98.0716 635.672 98.3594C636.613 98.6471 637.509 99.0511 638.361 99.5713L639.042 98.4424H640.37L640.52 106.843H639.158C638.981 106.024 638.715 105.138 638.361 104.187C638.007 103.224 637.592 102.41 637.116 101.746C636.585 100.993 635.954 100.407 635.224 99.9863C634.493 99.5547 633.658 99.3389 632.717 99.3389C631.643 99.3389 630.642 99.5768 629.712 100.053C628.793 100.529 627.996 101.231 627.321 102.161C626.679 103.058 626.176 104.198 625.811 105.581C625.445 106.965 625.263 108.508 625.263 110.213C625.263 111.718 625.451 113.102 625.827 114.363C626.215 115.614 626.762 116.715 627.471 117.667C628.179 118.608 629.015 119.344 629.978 119.875C630.951 120.406 632.036 120.672 633.231 120.672C634.128 120.672 634.952 120.534 635.705 120.257C636.458 119.969 637.111 119.593 637.664 119.128C638.217 118.641 638.704 118.088 639.125 117.468C639.546 116.848 639.889 116.173 640.154 115.442L641.399 116.04C640.448 118.375 639.186 120.047 637.614 121.054C636.043 122.05 634.172 122.548 632.003 122.548Z" fill="white"/>
<path d="M659.337 113.649C659.337 114.8 659.154 115.935 658.789 117.053C658.424 118.16 657.904 119.1 657.229 119.875C656.465 120.76 655.58 121.419 654.572 121.851C653.565 122.282 652.436 122.498 651.186 122.498C650.145 122.498 649.155 122.304 648.214 121.917C647.273 121.519 646.438 120.943 645.707 120.19C644.988 119.449 644.412 118.547 643.981 117.484C643.56 116.411 643.35 115.21 643.35 113.882C643.35 111.325 644.091 109.233 645.574 107.606C647.069 105.979 649.022 105.166 651.435 105.166C653.726 105.166 655.613 105.941 657.096 107.49C658.59 109.029 659.337 111.082 659.337 113.649ZM655.901 113.683C655.901 112.853 655.818 111.978 655.652 111.06C655.486 110.13 655.236 109.344 654.904 108.702C654.55 108.016 654.085 107.468 653.51 107.059C652.934 106.638 652.232 106.428 651.402 106.428C650.549 106.428 649.819 106.638 649.21 107.059C648.612 107.479 648.125 108.055 647.749 108.785C647.395 109.46 647.146 110.229 647.002 111.093C646.858 111.956 646.786 112.792 646.786 113.6C646.786 114.662 646.869 115.647 647.035 116.555C647.212 117.451 647.489 118.254 647.865 118.962C648.242 119.67 648.712 120.229 649.277 120.639C649.852 121.037 650.56 121.236 651.402 121.236C652.785 121.236 653.881 120.567 654.689 119.228C655.497 117.888 655.901 116.04 655.901 113.683Z" fill="white"/>
<path d="M680.13 122H672.112V120.904C672.366 120.882 672.643 120.86 672.942 120.838C673.252 120.816 673.506 120.771 673.705 120.705C674.015 120.605 674.242 120.434 674.386 120.19C674.541 119.936 674.618 119.609 674.618 119.211V110.794C674.618 109.632 674.342 108.735 673.788 108.104C673.246 107.474 672.582 107.158 671.796 107.158C671.21 107.158 670.673 107.252 670.186 107.44C669.699 107.618 669.267 107.839 668.891 108.104C668.526 108.359 668.232 108.636 668.011 108.935C667.801 109.222 667.646 109.455 667.546 109.632V119.045C667.546 119.421 667.624 119.731 667.779 119.975C667.934 120.218 668.166 120.406 668.476 120.539C668.708 120.65 668.957 120.733 669.223 120.788C669.5 120.843 669.782 120.882 670.07 120.904V122H662.051V120.904C662.306 120.882 662.566 120.86 662.831 120.838C663.108 120.816 663.346 120.771 663.545 120.705C663.855 120.605 664.082 120.434 664.226 120.19C664.381 119.936 664.458 119.609 664.458 119.211V109.101C664.458 108.724 664.375 108.381 664.209 108.071C664.054 107.75 663.833 107.49 663.545 107.291C663.335 107.158 663.086 107.064 662.798 107.009C662.51 106.942 662.201 106.898 661.868 106.876V105.797L667.314 105.432L667.546 105.664V107.972H667.629C667.895 107.706 668.227 107.391 668.625 107.025C669.024 106.649 669.4 106.345 669.754 106.112C670.164 105.847 670.651 105.625 671.215 105.448C671.78 105.271 672.416 105.183 673.124 105.183C674.696 105.183 675.858 105.675 676.611 106.66C677.374 107.634 677.756 108.935 677.756 110.562V119.078C677.756 119.465 677.823 119.781 677.955 120.024C678.088 120.257 678.315 120.439 678.636 120.572C678.902 120.683 679.129 120.76 679.317 120.805C679.516 120.849 679.787 120.882 680.13 120.904V122Z" fill="white"/>
<path d="M694.665 98.2764C694.665 98.7744 694.532 99.195 694.266 99.5381C694 99.8812 693.597 100.053 693.054 100.053C692.711 100.053 692.407 99.9808 692.141 99.8369C691.887 99.693 691.649 99.4993 691.427 99.2559C691.206 99.0124 691.001 98.7357 690.813 98.4258C690.625 98.1159 690.464 97.8669 690.332 97.6787C689.59 97.7119 689.014 98.2321 688.605 99.2393C688.207 100.235 688.007 101.829 688.007 104.021V105.697H692.224V107.291H688.007V119.045C688.007 119.432 688.079 119.748 688.223 119.991C688.378 120.235 688.616 120.417 688.937 120.539C689.203 120.639 689.557 120.722 690 120.788C690.442 120.843 690.824 120.882 691.145 120.904V122H682.512V120.904C682.767 120.882 683.027 120.86 683.292 120.838C683.569 120.816 683.807 120.771 684.006 120.705C684.316 120.605 684.543 120.434 684.687 120.19C684.842 119.936 684.919 119.609 684.919 119.211V107.291H681.682V105.697H684.919V104.651C684.919 102.161 685.561 100.147 686.845 98.6084C688.14 97.0589 689.756 96.2842 691.693 96.2842C692.678 96.2842 693.419 96.4779 693.917 96.8652C694.416 97.2526 694.665 97.723 694.665 98.2764Z" fill="white"/>
<path d="M708.419 118.148C707.732 119.454 706.814 120.495 705.663 121.27C704.512 122.044 703.189 122.432 701.695 122.432C700.378 122.432 699.221 122.199 698.225 121.734C697.24 121.27 696.427 120.639 695.785 119.842C695.143 119.045 694.661 118.115 694.34 117.053C694.031 115.99 693.876 114.867 693.876 113.683C693.876 112.62 694.042 111.58 694.374 110.562C694.717 109.532 695.215 108.608 695.868 107.789C696.499 107.003 697.279 106.372 698.209 105.896C699.149 105.41 700.201 105.166 701.363 105.166C702.558 105.166 703.582 105.354 704.434 105.73C705.286 106.107 705.978 106.621 706.509 107.274C707.019 107.894 707.395 108.625 707.638 109.466C707.893 110.307 708.02 111.22 708.02 112.205V113.301H697.179C697.179 114.374 697.279 115.348 697.478 116.223C697.688 117.097 698.015 117.866 698.458 118.53C698.889 119.172 699.454 119.681 700.151 120.058C700.848 120.423 701.678 120.605 702.641 120.605C703.626 120.605 704.473 120.379 705.181 119.925C705.901 119.46 706.592 118.63 707.256 117.435L708.419 118.148ZM704.75 111.906C704.75 111.286 704.694 110.622 704.584 109.914C704.484 109.206 704.318 108.614 704.086 108.138C703.831 107.629 703.482 107.214 703.04 106.893C702.597 106.572 702.027 106.411 701.33 106.411C700.168 106.411 699.199 106.898 698.424 107.872C697.661 108.835 697.246 110.18 697.179 111.906H704.75Z" fill="white"/>
<path d="M723.185 107.739C723.185 108.304 723.047 108.807 722.77 109.25C722.494 109.682 722.068 109.897 721.492 109.897C720.872 109.897 720.396 109.737 720.064 109.416C719.743 109.095 719.583 108.741 719.583 108.354C719.583 108.11 719.599 107.889 719.633 107.689C719.677 107.49 719.716 107.291 719.749 107.092C719.229 107.092 718.62 107.302 717.923 107.723C717.225 108.143 716.633 108.741 716.146 109.516V119.045C716.146 119.432 716.218 119.748 716.362 119.991C716.517 120.235 716.755 120.417 717.076 120.539C717.353 120.65 717.707 120.733 718.138 120.788C718.581 120.843 718.963 120.882 719.284 120.904V122H710.651V120.904C710.906 120.882 711.166 120.86 711.431 120.838C711.708 120.816 711.946 120.771 712.145 120.705C712.455 120.605 712.682 120.434 712.826 120.19C712.981 119.936 713.058 119.609 713.058 119.211V109.101C713.058 108.757 712.975 108.42 712.809 108.088C712.654 107.756 712.433 107.49 712.145 107.291C711.935 107.158 711.686 107.064 711.398 107.009C711.11 106.942 710.801 106.898 710.469 106.876V105.797L715.914 105.432L716.146 105.664V107.972H716.229C716.916 107.075 717.679 106.395 718.52 105.93C719.361 105.465 720.131 105.232 720.828 105.232C721.525 105.232 722.09 105.459 722.521 105.913C722.964 106.367 723.185 106.976 723.185 107.739Z" fill="white"/>
<path d="M739.479 118.148C738.793 119.454 737.875 120.495 736.724 121.27C735.573 122.044 734.25 122.432 732.756 122.432C731.439 122.432 730.282 122.199 729.286 121.734C728.301 121.27 727.488 120.639 726.846 119.842C726.204 119.045 725.722 118.115 725.401 117.053C725.091 115.99 724.936 114.867 724.936 113.683C724.936 112.62 725.102 111.58 725.435 110.562C725.778 109.532 726.276 108.608 726.929 107.789C727.56 107.003 728.34 106.372 729.269 105.896C730.21 105.41 731.262 105.166 732.424 105.166C733.619 105.166 734.643 105.354 735.495 105.73C736.347 106.107 737.039 106.621 737.57 107.274C738.079 107.894 738.456 108.625 738.699 109.466C738.954 110.307 739.081 111.22 739.081 112.205V113.301H728.24C728.24 114.374 728.34 115.348 728.539 116.223C728.749 117.097 729.076 117.866 729.518 118.53C729.95 119.172 730.515 119.681 731.212 120.058C731.909 120.423 732.739 120.605 733.702 120.605C734.687 120.605 735.534 120.379 736.242 119.925C736.962 119.46 737.653 118.63 738.317 117.435L739.479 118.148ZM735.81 111.906C735.81 111.286 735.755 110.622 735.644 109.914C735.545 109.206 735.379 108.614 735.146 108.138C734.892 107.629 734.543 107.214 734.101 106.893C733.658 106.572 733.088 106.411 732.391 106.411C731.228 106.411 730.26 106.898 729.485 107.872C728.722 108.835 728.307 110.18 728.24 111.906H735.81Z" fill="white"/>
<path d="M759.791 122H751.773V120.904C752.027 120.882 752.304 120.86 752.603 120.838C752.913 120.816 753.167 120.771 753.366 120.705C753.676 120.605 753.903 120.434 754.047 120.19C754.202 119.936 754.279 119.609 754.279 119.211V110.794C754.279 109.632 754.003 108.735 753.449 108.104C752.907 107.474 752.243 107.158 751.457 107.158C750.871 107.158 750.334 107.252 749.847 107.44C749.36 107.618 748.928 107.839 748.552 108.104C748.187 108.359 747.893 108.636 747.672 108.935C747.462 109.222 747.307 109.455 747.207 109.632V119.045C747.207 119.421 747.285 119.731 747.44 119.975C747.595 120.218 747.827 120.406 748.137 120.539C748.369 120.65 748.618 120.733 748.884 120.788C749.161 120.843 749.443 120.882 749.731 120.904V122H741.712V120.904C741.967 120.882 742.227 120.86 742.492 120.838C742.769 120.816 743.007 120.771 743.206 120.705C743.516 120.605 743.743 120.434 743.887 120.19C744.042 119.936 744.119 119.609 744.119 119.211V109.101C744.119 108.724 744.036 108.381 743.87 108.071C743.715 107.75 743.494 107.49 743.206 107.291C742.996 107.158 742.747 107.064 742.459 107.009C742.171 106.942 741.861 106.898 741.529 106.876V105.797L746.975 105.432L747.207 105.664V107.972H747.29C747.556 107.706 747.888 107.391 748.286 107.025C748.685 106.649 749.061 106.345 749.415 106.112C749.825 105.847 750.312 105.625 750.876 105.448C751.441 105.271 752.077 105.183 752.785 105.183C754.357 105.183 755.519 105.675 756.272 106.66C757.035 107.634 757.417 108.935 757.417 110.562V119.078C757.417 119.465 757.484 119.781 757.616 120.024C757.749 120.257 757.976 120.439 758.297 120.572C758.563 120.683 758.79 120.76 758.978 120.805C759.177 120.849 759.448 120.882 759.791 120.904V122Z" fill="white"/>
<path d="M769.71 122.432C767.342 122.432 765.488 121.646 764.149 120.074C762.809 118.503 762.14 116.394 762.14 113.749C762.14 112.598 762.317 111.524 762.671 110.528C763.036 109.521 763.562 108.608 764.248 107.789C764.901 107.003 765.72 106.372 766.705 105.896C767.69 105.41 768.764 105.166 769.926 105.166C771.531 105.166 772.837 105.553 773.844 106.328C774.851 107.092 775.355 108.138 775.355 109.466C775.355 110.019 775.222 110.512 774.956 110.943C774.691 111.364 774.253 111.574 773.645 111.574C772.992 111.574 772.483 111.408 772.117 111.076C771.763 110.744 771.586 110.373 771.586 109.964C771.586 109.466 771.653 108.957 771.785 108.437C771.918 107.905 771.996 107.518 772.018 107.274C771.819 106.931 771.52 106.704 771.121 106.594C770.734 106.472 770.313 106.411 769.86 106.411C769.328 106.411 768.819 106.527 768.332 106.76C767.856 106.981 767.392 107.396 766.938 108.005C766.528 108.558 766.196 109.305 765.942 110.246C765.687 111.187 765.56 112.31 765.56 113.616C765.56 115.675 766.014 117.357 766.921 118.663C767.84 119.958 769.041 120.605 770.524 120.605C771.597 120.605 772.494 120.345 773.213 119.825C773.944 119.305 774.619 118.525 775.239 117.484L776.301 118.182C775.571 119.488 774.608 120.522 773.412 121.286C772.217 122.05 770.983 122.432 769.71 122.432Z" fill="white"/>
<path d="M792.462 118.148C791.776 119.454 790.858 120.495 789.706 121.27C788.555 122.044 787.233 122.432 785.739 122.432C784.422 122.432 783.265 122.199 782.269 121.734C781.284 121.27 780.47 120.639 779.829 119.842C779.187 119.045 778.705 118.115 778.384 117.053C778.074 115.99 777.919 114.867 777.919 113.683C777.919 112.62 778.085 111.58 778.417 110.562C778.761 109.532 779.259 108.608 779.912 107.789C780.542 107.003 781.323 106.372 782.252 105.896C783.193 105.41 784.245 105.166 785.407 105.166C786.602 105.166 787.626 105.354 788.478 105.73C789.33 106.107 790.022 106.621 790.553 107.274C791.062 107.894 791.439 108.625 791.682 109.466C791.937 110.307 792.064 111.22 792.064 112.205V113.301H781.223C781.223 114.374 781.323 115.348 781.522 116.223C781.732 117.097 782.059 117.866 782.501 118.53C782.933 119.172 783.497 119.681 784.195 120.058C784.892 120.423 785.722 120.605 786.685 120.605C787.67 120.605 788.517 120.379 789.225 119.925C789.944 119.46 790.636 118.63 791.3 117.435L792.462 118.148ZM788.793 111.906C788.793 111.286 788.738 110.622 788.627 109.914C788.528 109.206 788.362 108.614 788.129 108.138C787.875 107.629 787.526 107.214 787.083 106.893C786.641 106.572 786.071 106.411 785.373 106.411C784.211 106.411 783.243 106.898 782.468 107.872C781.705 108.835 781.289 110.18 781.223 111.906H788.793Z" fill="white"/>
<path d="M274.63 124H229.625V118.904C231.252 118.856 233.334 118.688 235.87 118.401C238.454 118.114 240.225 117.708 241.182 117.181C242.665 116.272 243.742 115.243 244.412 114.095C245.129 112.898 245.488 111.415 245.488 109.645V35.5703H244.412L209.671 122.349H206.083L172.993 33.7759H172.06V94.5713C172.06 100.457 172.419 104.931 173.137 107.994C173.902 111.056 175.051 113.257 176.582 114.597C177.635 115.602 179.812 116.559 183.114 117.468C186.416 118.377 188.569 118.856 189.574 118.904V124H148.445V118.904C150.599 118.712 152.848 118.354 155.192 117.827C157.585 117.301 159.427 116.511 160.719 115.458C162.394 114.119 163.542 112.061 164.165 109.286C164.787 106.51 165.098 101.869 165.098 95.3608V43.2505C165.098 40.2358 164.739 37.7715 164.021 35.8574C163.303 33.9434 162.274 32.3882 160.935 31.1919C159.451 29.8999 157.633 28.9429 155.479 28.3208C153.326 27.6987 151.197 27.3398 149.091 27.2441V22.1479H183.832L212.973 98.519L237.88 34.6372C238.789 32.2925 239.555 29.8521 240.177 27.3159C240.847 24.7319 241.206 23.0093 241.253 22.1479H274.486V27.2441C273.146 27.292 271.424 27.5073 269.318 27.8901C267.261 28.2729 265.753 28.6318 264.796 28.9668C263.169 29.541 262.069 30.498 261.495 31.8379C260.92 33.1777 260.633 34.6372 260.633 36.2163V109.645C260.633 111.319 260.92 112.731 261.495 113.879C262.069 115.028 263.169 116.033 264.796 116.894C265.658 117.373 267.189 117.827 269.39 118.258C271.591 118.641 273.338 118.856 274.63 118.904V124Z" fill="white"/>
<path d="M350.892 107.348C347.925 112.994 343.953 117.492 338.977 120.842C334 124.191 328.282 125.866 321.822 125.866C316.128 125.866 311.127 124.861 306.821 122.852C302.562 120.842 299.045 118.114 296.269 114.669C293.494 111.224 291.412 107.204 290.025 102.61C288.685 98.0166 288.015 93.1597 288.015 88.0396C288.015 83.4458 288.733 78.9478 290.168 74.5454C291.652 70.0952 293.805 66.0996 296.628 62.5586C299.356 59.1611 302.729 56.4336 306.749 54.376C310.816 52.2705 315.362 51.2178 320.387 51.2178C325.554 51.2178 329.981 52.0312 333.665 53.6582C337.35 55.2852 340.341 57.5103 342.637 60.3335C344.839 63.0132 346.466 66.1714 347.518 69.8081C348.619 73.4448 349.169 77.3926 349.169 81.6514V86.3887H302.299C302.299 91.0303 302.729 95.2412 303.591 99.0215C304.5 102.802 305.911 106.127 307.825 108.999C309.692 111.774 312.132 113.975 315.147 115.602C318.161 117.181 321.75 117.971 325.913 117.971C330.172 117.971 333.833 116.99 336.895 115.028C340.006 113.018 342.996 109.429 345.867 104.261L350.892 107.348ZM335.029 80.3594C335.029 77.6797 334.79 74.8086 334.311 71.7461C333.881 68.6836 333.163 66.1235 332.158 64.0659C331.057 61.8647 329.55 60.0703 327.636 58.6826C325.722 57.2949 323.258 56.6011 320.243 56.6011C315.219 56.6011 311.032 58.7065 307.682 62.9175C304.38 67.0806 302.586 72.8945 302.299 80.3594H335.029Z" fill="white"/>
<path d="M445.17 49.7822H440.217C439.787 48.0596 438.997 46.0259 437.849 43.6812C436.748 41.2886 435.504 39.0396 434.116 36.9341C432.681 34.7329 431.102 32.8188 429.379 31.1919C427.704 29.5171 426.077 28.5601 424.498 28.3208C423.015 28.1294 421.148 27.9858 418.899 27.8901C416.65 27.7944 414.569 27.7466 412.655 27.7466H408.492V109.214C408.492 110.793 408.827 112.252 409.497 113.592C410.167 114.884 411.339 115.889 413.014 116.607C413.875 116.942 415.669 117.396 418.397 117.971C421.172 118.545 423.326 118.856 424.857 118.904V124H376.766V118.904C378.106 118.808 380.14 118.617 382.867 118.33C385.643 118.042 387.557 117.684 388.609 117.253C390.189 116.631 391.337 115.746 392.055 114.597C392.82 113.401 393.203 111.822 393.203 109.86V27.7466H389.04C387.557 27.7466 385.714 27.7944 383.513 27.8901C381.312 27.938 379.207 28.0815 377.197 28.3208C375.618 28.5122 373.967 29.4692 372.244 31.1919C370.569 32.8667 369.014 34.7808 367.579 36.9341C366.143 39.0874 364.875 41.3843 363.774 43.8247C362.674 46.2173 361.908 48.2031 361.478 49.7822H356.453V22.1479H445.17V49.7822Z" fill="white"/>
<path d="M549.856 124H507.435V118.904C511.168 118.665 514.254 118.186 516.695 117.468C519.183 116.75 520.427 115.865 520.427 114.812C520.427 114.382 520.379 113.855 520.284 113.233C520.188 112.611 520.044 112.061 519.853 111.583L511.383 88.7573H475.71C474.37 92.1069 473.269 95.0259 472.408 97.5142C471.595 100.002 470.853 102.299 470.183 104.405C469.561 106.462 469.13 108.137 468.891 109.429C468.652 110.721 468.532 111.774 468.532 112.587C468.532 114.501 470.039 115.985 473.054 117.038C476.069 118.09 479.466 118.712 483.246 118.904V124H444.917V118.904C446.161 118.808 447.717 118.545 449.583 118.114C451.449 117.636 452.98 117.014 454.177 116.248C456.091 114.956 457.574 113.616 458.627 112.229C459.68 110.793 460.708 108.831 461.713 106.343C466.833 93.5664 472.48 79.2109 478.653 63.2764C484.826 47.3418 490.328 33.1538 495.161 20.7124H500.904L534.854 108.568C535.572 110.434 536.386 111.941 537.295 113.09C538.204 114.238 539.472 115.363 541.099 116.463C542.2 117.133 543.635 117.708 545.406 118.186C547.176 118.617 548.66 118.856 549.856 118.904V124ZM508.799 82.3691L493.367 42.8916L478.222 82.3691H508.799Z" fill="white"/>
<path d="M42.8271 67.0969L52.5099 67.0973V92.4914H42.8271V67.0969Z" fill="white"/>
<path d="M6 24.521V27.2775C6 41.5019 17.5352 53.0387 31.7612 53.0387H42.827V55.5962H52.5095V53.0387H63.0498C77.5671 53.0387 89.3365 41.268 89.3365 26.752V24.521H6Z" fill="white"/>
<path d="M52.5095 133.303V104.508C50.859 104.504 52.1554 104.507 46.9456 104.508H42.827V125.417H33.3735C29.0174 125.417 25.4872 128.949 25.4872 133.303H52.5095Z" fill="white"/>
<path fill-rule="evenodd" clip-rule="evenodd" d="M74.7818 128.792C74.7818 131.212 76.7436 133.173 79.1633 133.173C81.583 133.173 83.5448 131.212 83.5448 128.792V115.717C83.5448 103.734 73.7963 93.9878 61.814 93.9878H31.9486C24.2178 93.9878 17.9293 87.6978 17.9293 79.9686V79.603C17.9293 71.8738 24.2178 65.5837 31.9486 65.5837H67.6872C87.1584 65.5837 103 49.7425 103 30.2714V25.4829C103 15.9141 95.2146 8.12866 85.6458 8.12866H42.827C40.4069 8.12866 38.4454 10.0905 38.4454 12.5102C38.4454 14.9299 40.4069 16.8917 42.827 16.8917H85.6458C90.383 16.8917 94.2369 20.7457 94.2369 25.4829V30.2714C94.2369 44.911 82.3268 56.8227 67.6872 56.8227H31.9486C19.3862 56.8227 9.16833 67.0422 9.16833 79.603V79.9686C9.16833 92.5294 19.3862 102.749 31.9486 102.749H61.814C68.9648 102.749 74.7818 108.566 74.7818 115.717V128.792ZM43.5388 14.6927C44.7855 14.6927 45.7949 13.6825 45.7949 12.4374C45.7949 11.19 44.7855 10.1798 43.5388 10.1798C42.2939 10.1798 41.2821 11.19 41.2821 12.4374C41.2821 13.6825 42.2939 14.6927 43.5388 14.6927Z" fill="white"/>
</svg>
