<svg width="343" height="134" viewBox="0 0 343 134" fill="none" xmlns="http://www.w3.org/2000/svg">
<g clip-path="url(#clip0_90_4132)">
<g clip-path="url(#clip1_90_4132)">
<path d="M123.132 92.7774L119.747 50.4369H119.312L104.683 92.3419H94.9842L80.356 50.4369H79.9205L76.5356 92.7774H60.2645L66.678 21.3389H83.9784L99.8338 62.5511L115.669 21.3389H132.99L139.403 92.7774H123.132Z" fill="white"/>
<path d="M178.688 21.3389V35.6305H154.103V49.8232H177.639V64.1149H154.103V78.4857H178.688V92.7774H137.812V21.3389H178.688Z" fill="white"/>
<path d="M175.385 35.6305V21.3389H225.604V35.6305H208.64V92.7774H192.349V35.6305H175.385Z" fill="white"/>
<path d="M259.613 21.3389L288.453 92.7774H270.955L265.67 78.4857H238.492L233.207 92.7774H215.728L244.549 21.3389H259.613ZM260.127 64.2139L252.17 43.4296H251.992L244.034 64.2139H260.127Z" fill="white"/>
<path d="M70.5876 101.845C70.7707 101.845 70.9291 101.914 71.0627 102.043C71.1914 102.161 71.2607 102.315 71.2607 102.498V110.772C71.2607 110.96 71.1914 111.118 71.0627 111.247C70.9439 111.366 70.7856 111.425 70.5876 111.425C70.3897 111.425 70.2214 111.366 70.0928 111.247C69.9592 111.118 69.8948 110.96 69.8948 110.772V104.438L67.2424 108.456C67.1731 108.535 67.0939 108.61 67.0048 108.674C66.9108 108.728 66.8118 108.748 66.7079 108.733C66.6139 108.748 66.5199 108.728 66.4308 108.674C66.3368 108.61 66.2576 108.535 66.1932 108.456L63.521 104.319V110.772C63.521 110.96 63.4616 111.118 63.3428 111.247C63.234 111.366 63.0855 111.425 62.8876 111.425C62.7144 111.425 62.5708 111.366 62.4521 111.247C62.3333 111.118 62.2739 110.96 62.2739 110.772V102.498C62.2739 102.33 62.3383 102.176 62.4719 102.043C62.6005 101.914 62.7589 101.845 62.9469 101.845C63.0657 101.845 63.1696 101.874 63.2637 101.924C63.3676 101.978 63.4517 102.053 63.521 102.142L66.7673 107.051L70.0532 102.142C70.1967 101.944 70.3748 101.845 70.5876 101.845Z" fill="white"/>
<path d="M86.9967 107.565C86.9819 107.739 86.9077 107.882 86.779 108.001C86.6602 108.11 86.5118 108.159 86.3435 108.159H81.5335C81.5829 108.822 81.8304 109.357 82.2659 109.763C82.7112 110.158 83.2605 110.356 83.9088 110.356C84.3443 110.356 84.6907 110.297 84.9579 110.178C85.235 110.05 85.4775 109.881 85.6903 109.683C85.8338 109.594 85.9674 109.545 86.0862 109.545C86.2446 109.545 86.3732 109.604 86.4821 109.723C86.586 109.832 86.6404 109.956 86.6404 110.099C86.6404 110.287 86.5464 110.455 86.3633 110.614C86.0961 110.881 85.7497 111.104 85.3142 111.287C84.8787 111.47 84.4284 111.564 83.9682 111.564C83.2259 111.564 82.5727 111.415 82.0085 111.109C81.4543 110.792 81.0237 110.356 80.7219 109.802C80.4151 109.248 80.2666 108.614 80.2666 107.902C80.2666 107.14 80.425 106.472 80.7417 105.903C81.0584 105.324 81.4741 104.883 81.9887 104.576C82.5034 104.26 83.0576 104.101 83.6515 104.101C84.2305 104.101 84.7699 104.255 85.2746 104.557C85.7893 104.849 86.1951 105.259 86.5019 105.784C86.8186 106.313 86.9819 106.907 86.9967 107.565ZM83.6515 105.289C83.1368 105.289 82.6865 105.437 82.3054 105.724C81.9343 106.016 81.6918 106.467 81.573 107.071H85.6111V106.952C85.5715 106.467 85.3538 106.071 84.9579 105.764C84.5719 105.447 84.1364 105.289 83.6515 105.289Z" fill="white"/>
<path d="M101.663 101.31C101.846 101.31 101.999 101.37 102.118 101.488C102.247 101.607 102.316 101.766 102.316 101.964V110.772C102.316 110.96 102.247 111.119 102.118 111.247C101.999 111.366 101.846 111.425 101.663 111.425C101.465 111.425 101.306 111.366 101.188 111.247C101.069 111.119 101.009 110.96 101.009 110.772V110.376C100.782 110.708 100.46 110.99 100.04 111.227C99.6288 111.45 99.1884 111.564 98.7133 111.564C98.0898 111.564 97.5306 111.406 97.0307 111.089C96.526 110.772 96.1301 110.332 95.8431 109.763C95.5511 109.184 95.4076 108.535 95.4076 107.823C95.4076 107.11 95.5462 106.472 95.8233 105.903C96.1103 105.338 96.5062 104.893 97.011 104.576C97.5108 104.26 98.065 104.101 98.6737 104.101C99.1587 104.101 99.609 104.2 100.02 104.398C100.426 104.596 100.757 104.854 101.009 105.17V101.964C101.009 101.766 101.069 101.607 101.188 101.488C101.306 101.37 101.465 101.31 101.663 101.31ZM98.8716 110.356C99.2923 110.356 99.6684 110.252 99.9999 110.04C100.341 109.817 100.604 109.515 100.792 109.129C100.975 108.748 101.069 108.313 101.069 107.823C101.069 107.348 100.975 106.922 100.792 106.536C100.604 106.155 100.341 105.853 99.9999 105.626C99.6684 105.403 99.2923 105.289 98.8716 105.289C98.4362 105.289 98.0502 105.403 97.7236 105.626C97.392 105.853 97.1347 106.155 96.9516 106.536C96.7635 106.922 96.6744 107.348 96.6744 107.823C96.6744 108.313 96.7635 108.748 96.9516 109.129C97.1347 109.515 97.392 109.817 97.7236 110.04C98.0502 110.252 98.4362 110.356 98.8716 110.356Z" fill="white"/>
<path d="M112.813 110.772C112.813 110.96 112.753 111.118 112.635 111.247C112.516 111.366 112.358 111.425 112.16 111.425C111.972 111.425 111.823 111.366 111.704 111.247C111.586 111.118 111.526 110.96 111.526 110.772V104.853C111.526 104.67 111.586 104.512 111.704 104.378C111.823 104.25 111.972 104.18 112.16 104.18C112.358 104.18 112.516 104.25 112.635 104.378C112.753 104.512 112.813 104.67 112.813 104.853V110.772ZM112.16 103.29C111.892 103.29 111.704 103.245 111.586 103.151C111.477 103.047 111.427 102.889 111.427 102.676V102.458C111.427 102.25 111.487 102.097 111.605 102.003C111.724 101.914 111.912 101.865 112.179 101.865C112.427 101.865 112.605 101.919 112.714 102.023C112.833 102.117 112.892 102.26 112.892 102.458V102.676C112.892 102.904 112.833 103.062 112.714 103.151C112.595 103.245 112.407 103.29 112.16 103.29Z" fill="white"/>
<path d="M125.164 104.101C125.877 104.101 126.471 104.215 126.946 104.438C127.431 104.665 127.678 104.952 127.678 105.309C127.678 105.467 127.624 105.616 127.52 105.744C127.426 105.863 127.302 105.922 127.144 105.922C127.025 105.922 126.926 105.903 126.847 105.863C126.777 105.823 126.688 105.764 126.57 105.685C126.515 105.635 126.431 105.566 126.312 105.487C126.203 105.437 126.055 105.388 125.857 105.348C125.659 105.309 125.471 105.289 125.303 105.289C124.828 105.289 124.402 105.403 124.036 105.625C123.68 105.853 123.403 106.155 123.205 106.536C123.007 106.922 122.908 107.348 122.908 107.823C122.908 108.313 122.997 108.748 123.185 109.129C123.383 109.515 123.66 109.817 124.016 110.04C124.372 110.252 124.778 110.356 125.243 110.356C125.718 110.356 126.1 110.287 126.391 110.139C126.456 110.099 126.54 110.04 126.649 109.961C126.738 109.896 126.817 109.842 126.886 109.802C126.951 109.763 127.035 109.743 127.144 109.743C127.327 109.743 127.47 109.802 127.579 109.921C127.683 110.03 127.738 110.173 127.738 110.356C127.738 110.554 127.609 110.747 127.361 110.93C127.124 111.118 126.797 111.267 126.391 111.386C125.981 111.504 125.545 111.564 125.085 111.564C124.397 111.564 123.784 111.406 123.244 111.089C122.715 110.762 122.304 110.312 122.017 109.743C121.74 109.164 121.601 108.525 121.601 107.823C121.601 107.125 121.75 106.492 122.056 105.922C122.358 105.358 122.774 104.913 123.304 104.596C123.843 104.27 124.462 104.101 125.164 104.101Z" fill="white"/>
<path d="M142.231 104.161C142.414 104.161 142.568 104.23 142.687 104.359C142.815 104.477 142.885 104.636 142.885 104.834V110.772C142.885 110.96 142.815 111.118 142.687 111.247C142.568 111.366 142.414 111.425 142.231 111.425C142.033 111.425 141.875 111.366 141.756 111.247C141.638 111.118 141.578 110.96 141.578 110.772V110.416C141.341 110.732 141.014 111.005 140.608 111.227C140.198 111.45 139.757 111.564 139.282 111.564C138.658 111.564 138.094 111.406 137.58 111.089C137.075 110.772 136.679 110.332 136.392 109.763C136.115 109.184 135.976 108.535 135.976 107.823C135.976 107.11 136.115 106.472 136.392 105.903C136.679 105.338 137.075 104.893 137.58 104.576C138.079 104.26 138.634 104.101 139.242 104.101C139.727 104.101 140.178 104.2 140.588 104.398C141.009 104.596 141.341 104.854 141.578 105.17V104.834C141.578 104.636 141.638 104.477 141.756 104.359C141.875 104.23 142.033 104.161 142.231 104.161ZM139.44 110.356C139.861 110.356 140.237 110.252 140.569 110.04C140.91 109.817 141.172 109.515 141.36 109.129C141.544 108.748 141.638 108.313 141.638 107.823C141.638 107.348 141.544 106.922 141.36 106.536C141.172 106.155 140.91 105.853 140.569 105.625C140.237 105.403 139.861 105.289 139.44 105.289C139.005 105.289 138.619 105.403 138.292 105.625C137.961 105.853 137.703 106.155 137.52 106.536C137.332 106.922 137.243 107.348 137.243 107.823C137.243 108.313 137.332 108.748 137.52 109.129C137.703 109.515 137.961 109.817 138.292 110.04C138.619 110.252 139.005 110.356 139.44 110.356Z" fill="white"/>
<path d="M153.56 110.772C153.56 110.96 153.491 111.119 153.362 111.247C153.243 111.366 153.09 111.425 152.907 111.425C152.719 111.425 152.57 111.366 152.451 111.247C152.333 111.119 152.273 110.96 152.273 110.772V101.964C152.273 101.78 152.333 101.627 152.451 101.508C152.58 101.38 152.738 101.31 152.926 101.31C153.11 101.31 153.263 101.38 153.382 101.508C153.5 101.627 153.56 101.78 153.56 101.964V110.772Z" fill="white"/>
<path d="M180.469 101.845C180.667 101.845 180.826 101.904 180.945 102.023C181.063 102.142 181.123 102.295 181.123 102.478C181.123 102.676 181.063 102.83 180.945 102.933C180.826 103.042 180.667 103.092 180.469 103.092H178.035V110.772C178.035 110.96 177.965 111.118 177.837 111.247C177.703 111.366 177.54 111.425 177.342 111.425C177.144 111.425 176.976 111.366 176.847 111.247C176.713 111.118 176.649 110.96 176.649 110.772V103.092H174.214C174.026 103.092 173.868 103.042 173.739 102.933C173.621 102.815 173.561 102.656 173.561 102.458C173.561 102.29 173.621 102.142 173.739 102.023C173.868 101.904 174.026 101.845 174.214 101.845H180.469Z" fill="white"/>
<path d="M196.174 107.565C196.159 107.739 196.085 107.882 195.956 108.001C195.837 108.11 195.689 108.159 195.521 108.159H190.711C190.76 108.822 191.007 109.357 191.443 109.763C191.888 110.158 192.438 110.356 193.086 110.356C193.521 110.356 193.868 110.297 194.135 110.178C194.412 110.05 194.655 109.881 194.867 109.683C195.011 109.594 195.145 109.545 195.263 109.545C195.422 109.545 195.55 109.604 195.659 109.723C195.763 109.832 195.818 109.956 195.818 110.099C195.818 110.287 195.724 110.455 195.54 110.614C195.273 110.881 194.927 111.104 194.491 111.287C194.056 111.47 193.606 111.564 193.145 111.564C192.403 111.564 191.75 111.415 191.186 111.109C190.631 110.792 190.201 110.356 189.899 109.802C189.592 109.248 189.444 108.614 189.444 107.902C189.444 107.14 189.602 106.472 189.919 105.903C190.236 105.324 190.651 104.883 191.166 104.576C191.681 104.26 192.235 104.101 192.829 104.101C193.408 104.101 193.947 104.255 194.452 104.557C194.966 104.849 195.372 105.259 195.679 105.784C195.996 106.313 196.159 106.907 196.174 107.565ZM192.829 105.289C192.314 105.289 191.864 105.437 191.483 105.724C191.111 106.016 190.869 106.467 190.75 107.071H194.788V106.952C194.749 106.467 194.531 106.071 194.135 105.764C193.749 105.447 193.314 105.289 192.829 105.289Z" fill="white"/>
<path d="M208.148 104.101C208.86 104.101 209.454 104.215 209.929 104.438C210.414 104.665 210.662 104.952 210.662 105.309C210.662 105.467 210.607 105.616 210.503 105.744C210.409 105.863 210.286 105.922 210.127 105.922C210.008 105.922 209.909 105.903 209.83 105.863C209.761 105.823 209.672 105.764 209.553 105.685C209.499 105.635 209.415 105.566 209.296 105.487C209.187 105.437 209.038 105.388 208.841 105.348C208.643 105.309 208.455 105.289 208.286 105.289C207.811 105.289 207.386 105.403 207.019 105.625C206.663 105.853 206.386 106.155 206.188 106.536C205.99 106.922 205.891 107.348 205.891 107.823C205.891 108.313 205.98 108.748 206.168 109.129C206.366 109.515 206.643 109.817 207 110.04C207.356 110.252 207.762 110.356 208.227 110.356C208.702 110.356 209.083 110.287 209.375 110.139C209.439 110.099 209.523 110.04 209.632 109.961C209.721 109.896 209.801 109.842 209.87 109.802C209.934 109.763 210.018 109.743 210.127 109.743C210.31 109.743 210.454 109.802 210.563 109.921C210.667 110.03 210.721 110.173 210.721 110.356C210.721 110.554 210.592 110.747 210.345 110.93C210.107 111.118 209.781 111.267 209.375 111.386C208.964 111.504 208.529 111.564 208.069 111.564C207.381 111.564 206.767 111.406 206.228 111.089C205.698 110.762 205.287 110.312 205 109.743C204.723 109.164 204.585 108.525 204.585 107.823C204.585 107.125 204.733 106.492 205.04 105.922C205.342 105.358 205.758 104.913 206.287 104.596C206.826 104.27 207.445 104.101 208.148 104.101Z" fill="white"/>
<path d="M222.958 104.141C224.567 104.141 225.373 105.131 225.373 107.11V110.772C225.373 110.96 225.304 111.119 225.175 111.247C225.057 111.366 224.903 111.425 224.72 111.425C224.532 111.425 224.374 111.366 224.245 111.247C224.126 111.119 224.067 110.96 224.067 110.772V107.11C224.067 105.937 223.562 105.348 222.563 105.348C222.033 105.348 221.593 105.522 221.236 105.863C220.88 106.195 220.702 106.61 220.702 107.11V110.772C220.702 110.96 220.633 111.119 220.504 111.247C220.385 111.366 220.232 111.425 220.049 111.425C219.851 111.425 219.692 111.366 219.574 111.247C219.455 111.119 219.395 110.96 219.395 110.772V101.964C219.395 101.78 219.455 101.627 219.574 101.508C219.702 101.38 219.861 101.31 220.049 101.31C220.232 101.31 220.385 101.38 220.504 101.508C220.633 101.627 220.702 101.78 220.702 101.964V105.428C220.925 105.071 221.241 104.769 221.652 104.517C222.058 104.27 222.493 104.141 222.958 104.141Z" fill="white"/>
<path d="M238.321 104.101C239.954 104.101 240.776 105.086 240.776 107.051V110.772C240.776 110.96 240.707 111.118 240.578 111.247C240.459 111.366 240.306 111.425 240.123 111.425C239.935 111.425 239.776 111.366 239.648 111.247C239.529 111.118 239.469 110.96 239.469 110.772V107.071C239.469 106.531 239.341 106.101 239.093 105.784C238.856 105.457 238.46 105.289 237.906 105.289C237.534 105.289 237.198 105.378 236.896 105.546C236.604 105.705 236.372 105.917 236.203 106.18C236.045 106.447 235.966 106.744 235.966 107.071V110.772C235.966 110.96 235.896 111.118 235.768 111.247C235.649 111.366 235.496 111.425 235.313 111.425C235.115 111.425 234.956 111.366 234.837 111.247C234.719 111.118 234.659 110.96 234.659 110.772V104.913C234.659 104.73 234.719 104.576 234.837 104.458C234.966 104.329 235.124 104.26 235.313 104.26C235.496 104.26 235.649 104.329 235.768 104.458C235.896 104.576 235.966 104.73 235.966 104.913V105.388C236.203 105.032 236.53 104.73 236.955 104.477C237.376 104.23 237.831 104.101 238.321 104.101Z" fill="white"/>
<path d="M256.85 107.842C256.85 108.555 256.681 109.198 256.355 109.763C256.038 110.332 255.602 110.772 255.048 111.089C254.504 111.406 253.9 111.564 253.227 111.564C252.564 111.564 251.96 111.406 251.406 111.089C250.852 110.772 250.416 110.332 250.1 109.763C249.783 109.198 249.625 108.555 249.625 107.842C249.625 107.13 249.783 106.492 250.1 105.922C250.416 105.343 250.852 104.893 251.406 104.576C251.96 104.26 252.564 104.101 253.227 104.101C253.9 104.101 254.504 104.26 255.048 104.576C255.602 104.893 256.038 105.343 256.355 105.922C256.681 106.492 256.85 107.13 256.85 107.842ZM255.543 107.842C255.543 107.358 255.434 106.922 255.226 106.536C255.028 106.14 254.751 105.838 254.395 105.625C254.049 105.403 253.663 105.289 253.227 105.289C252.802 105.289 252.416 105.403 252.059 105.625C251.713 105.838 251.436 106.14 251.228 106.536C251.03 106.922 250.931 107.358 250.931 107.842C250.931 108.332 251.03 108.768 251.228 109.149C251.436 109.535 251.713 109.832 252.059 110.04C252.416 110.252 252.802 110.356 253.227 110.356C253.663 110.356 254.049 110.252 254.395 110.04C254.751 109.832 255.028 109.535 255.226 109.149C255.434 108.768 255.543 108.332 255.543 107.842Z" fill="white"/>
<path d="M267.099 110.772C267.099 110.96 267.029 111.119 266.901 111.247C266.782 111.366 266.629 111.425 266.445 111.425C266.257 111.425 266.109 111.366 265.99 111.247C265.871 111.119 265.812 110.96 265.812 110.772V101.964C265.812 101.78 265.871 101.627 265.99 101.508C266.119 101.38 266.277 101.31 266.465 101.31C266.648 101.31 266.802 101.38 266.921 101.508C267.039 101.627 267.099 101.78 267.099 101.964V110.772Z" fill="white"/>
<path d="M283.289 107.842C283.289 108.555 283.121 109.198 282.795 109.763C282.478 110.332 282.042 110.772 281.488 111.089C280.944 111.406 280.34 111.564 279.667 111.564C279.004 111.564 278.4 111.406 277.846 111.089C277.292 110.772 276.856 110.332 276.54 109.763C276.223 109.198 276.064 108.555 276.064 107.842C276.064 107.13 276.223 106.492 276.54 105.922C276.856 105.343 277.292 104.893 277.846 104.576C278.4 104.26 279.004 104.101 279.667 104.101C280.34 104.101 280.944 104.26 281.488 104.576C282.042 104.893 282.478 105.343 282.795 105.922C283.121 106.492 283.289 107.13 283.289 107.842ZM281.983 107.842C281.983 107.358 281.874 106.922 281.666 106.536C281.468 106.14 281.191 105.838 280.835 105.625C280.489 105.403 280.103 105.289 279.667 105.289C279.241 105.289 278.855 105.403 278.499 105.625C278.153 105.838 277.876 106.14 277.668 106.536C277.47 106.922 277.371 107.358 277.371 107.842C277.371 108.332 277.47 108.768 277.668 109.149C277.876 109.535 278.153 109.832 278.499 110.04C278.855 110.252 279.241 110.356 279.667 110.356C280.103 110.356 280.489 110.252 280.835 110.04C281.191 109.832 281.468 109.535 281.666 109.149C281.874 108.768 281.983 108.332 281.983 107.842Z" fill="white"/>
<path d="M298.131 104.161C298.314 104.161 298.467 104.23 298.586 104.359C298.715 104.477 298.784 104.636 298.784 104.834V110.851C298.784 111.589 298.626 112.202 298.309 112.692C297.992 113.192 297.562 113.563 297.022 113.801C296.493 114.038 295.894 114.157 295.221 114.157C294.85 114.157 294.419 114.088 293.934 113.959C293.444 113.84 293.133 113.707 293.004 113.563C292.712 113.415 292.568 113.237 292.568 113.029C292.568 112.974 292.588 112.9 292.628 112.811C292.732 112.583 292.905 112.474 293.143 112.474C293.246 112.474 293.37 112.499 293.519 112.554C294.241 112.831 294.81 112.969 295.221 112.969C295.958 112.969 296.517 112.791 296.903 112.435C297.285 112.088 297.478 111.613 297.478 111.01V110.257C297.289 110.614 296.968 110.925 296.508 111.188C296.057 111.435 295.582 111.564 295.082 111.564C294.459 111.564 293.885 111.406 293.36 111.089C292.846 110.772 292.435 110.332 292.133 109.763C291.841 109.184 291.698 108.535 291.698 107.823C291.698 107.11 291.841 106.472 292.133 105.903C292.435 105.338 292.846 104.893 293.36 104.576C293.875 104.26 294.439 104.101 295.063 104.101C295.562 104.101 296.033 104.215 296.468 104.438C296.903 104.665 297.24 104.943 297.478 105.269V104.834C297.478 104.636 297.537 104.477 297.656 104.359C297.774 104.23 297.933 104.161 298.131 104.161ZM295.241 110.356C295.686 110.356 296.082 110.252 296.428 110.04C296.77 109.832 297.042 109.535 297.24 109.149C297.438 108.753 297.537 108.313 297.537 107.823C297.537 107.348 297.438 106.922 297.24 106.536C297.042 106.155 296.77 105.853 296.428 105.625C296.082 105.403 295.686 105.289 295.241 105.289C294.805 105.289 294.409 105.403 294.053 105.625C293.707 105.853 293.439 106.155 293.241 106.536C293.053 106.922 292.964 107.348 292.964 107.823C292.964 108.298 293.053 108.733 293.241 109.129C293.439 109.515 293.707 109.817 294.053 110.04C294.409 110.252 294.805 110.356 295.241 110.356Z" fill="white"/>
<path d="M313.398 104.18C313.581 104.18 313.735 104.25 313.853 104.378C313.982 104.512 314.051 104.67 314.051 104.853V110.752C314.051 111.9 313.735 112.751 313.101 113.306C312.468 113.87 311.636 114.157 310.607 114.157C310.275 114.157 309.944 114.122 309.617 114.058C309.286 114.003 309.014 113.919 308.806 113.801C308.459 113.642 308.291 113.429 308.291 113.167C308.291 113.128 308.301 113.068 308.331 112.989C308.38 112.841 308.454 112.722 308.548 112.633C308.652 112.554 308.771 112.514 308.905 112.514C308.969 112.514 309.033 112.524 309.103 112.554C309.39 112.682 309.642 112.781 309.855 112.85C310.077 112.93 310.335 112.969 310.627 112.969C312.037 112.969 312.745 112.242 312.745 110.792V110.515C312.492 110.846 312.176 111.104 311.795 111.287C311.409 111.47 310.968 111.564 310.468 111.564C309.701 111.564 309.108 111.326 308.687 110.851C308.261 110.366 308.053 109.723 308.053 108.931V104.853C308.053 104.655 308.113 104.497 308.232 104.378C308.35 104.25 308.509 104.18 308.707 104.18C308.89 104.18 309.043 104.25 309.162 104.378C309.291 104.512 309.36 104.67 309.36 104.853V108.595C309.36 109.203 309.489 109.654 309.756 109.941C310.018 110.218 310.419 110.356 310.963 110.356C311.478 110.356 311.899 110.193 312.23 109.861C312.572 109.535 312.745 109.109 312.745 108.595V104.853C312.745 104.655 312.804 104.497 312.923 104.378C313.042 104.25 313.2 104.18 313.398 104.18Z" fill="white"/>
<path d="M67.9351 123.163C68.1182 123.163 68.2716 123.233 68.3904 123.361C68.5191 123.48 68.5884 123.638 68.5884 123.836V129.775C68.5884 129.963 68.5191 130.121 68.3904 130.25C68.2716 130.369 68.1182 130.428 67.9351 130.428C67.7372 130.428 67.5788 130.369 67.4601 130.25C67.3413 130.121 67.2819 129.963 67.2819 129.775V129.418C67.0444 129.735 66.7178 130.007 66.312 130.23C65.9012 130.453 65.4608 130.567 64.9857 130.567C64.3622 130.567 63.7981 130.408 63.2834 130.091C62.7787 129.775 62.3828 129.334 62.0957 128.765C61.8186 128.186 61.6801 127.538 61.6801 126.825C61.6801 126.113 61.8186 125.474 62.0957 124.905C62.3828 124.341 62.7787 123.896 63.2834 123.579C63.7832 123.262 64.3375 123.104 64.9462 123.104C65.4311 123.104 65.8814 123.203 66.2922 123.401C66.7128 123.599 67.0444 123.856 67.2819 124.173V123.836C67.2819 123.638 67.3413 123.48 67.4601 123.361C67.5788 123.233 67.7372 123.163 67.9351 123.163ZM65.1441 129.359C65.5647 129.359 65.9408 129.255 66.2724 129.042C66.6138 128.82 66.8761 128.518 67.0642 128.132C67.2473 127.751 67.3413 127.315 67.3413 126.825C67.3413 126.35 67.2473 125.925 67.0642 125.539C66.8761 125.158 66.6138 124.856 66.2724 124.628C65.9408 124.405 65.5647 124.292 65.1441 124.292C64.7086 124.292 64.3226 124.405 63.996 124.628C63.6645 124.856 63.4071 125.158 63.224 125.539C63.036 125.925 62.9469 126.35 62.9469 126.825C62.9469 127.315 63.036 127.751 63.224 128.132C63.4071 128.518 63.6645 128.82 63.996 129.042C64.3226 129.255 64.7086 129.359 65.1441 129.359Z" fill="white"/>
<path d="M81.52 123.104C83.1531 123.104 83.9745 124.089 83.9745 126.053V129.775C83.9745 129.963 83.9053 130.121 83.7766 130.25C83.6578 130.369 83.5044 130.428 83.3213 130.428C83.1333 130.428 82.9749 130.369 82.8463 130.25C82.7275 130.121 82.6681 129.963 82.6681 129.775V126.073C82.6681 125.534 82.5394 125.103 82.292 124.787C82.0545 124.46 81.6586 124.292 81.1043 124.292C80.7332 124.292 80.3967 124.381 80.0948 124.549C79.8028 124.707 79.5703 124.92 79.402 125.182C79.2437 125.45 79.1645 125.747 79.1645 126.073V129.775C79.1645 129.963 79.0952 130.121 78.9665 130.25C78.8478 130.369 78.6944 130.428 78.5113 130.428C78.3133 130.428 78.155 130.369 78.0362 130.25C77.9174 130.121 77.858 129.963 77.858 129.775V123.916C77.858 123.732 77.9174 123.579 78.0362 123.46C78.1648 123.332 78.3232 123.262 78.5113 123.262C78.6944 123.262 78.8478 123.332 78.9665 123.46C79.0952 123.579 79.1645 123.732 79.1645 123.916V124.391C79.402 124.034 79.7286 123.732 80.1542 123.48C80.5748 123.233 81.0301 123.104 81.52 123.104Z" fill="white"/>
<path d="M99.0784 120.313C99.2615 120.313 99.415 120.372 99.5337 120.491C99.6624 120.61 99.7317 120.768 99.7317 120.966V129.775C99.7317 129.963 99.6624 130.121 99.5337 130.25C99.415 130.369 99.2615 130.428 99.0784 130.428C98.8805 130.428 98.7221 130.369 98.6034 130.25C98.4846 130.121 98.4252 129.963 98.4252 129.775V129.379C98.1976 129.71 97.8759 129.993 97.4553 130.23C97.0446 130.453 96.6041 130.567 96.1291 130.567C95.5055 130.567 94.9463 130.408 94.4465 130.091C93.9418 129.775 93.5459 129.334 93.2588 128.765C92.9669 128.186 92.8234 127.538 92.8234 126.825C92.8234 126.113 92.9619 125.474 93.239 124.905C93.5261 124.341 93.922 123.896 94.4267 123.579C94.9265 123.262 95.4808 123.104 96.0895 123.104C96.5744 123.104 97.0248 123.203 97.4355 123.401C97.8413 123.599 98.1728 123.856 98.4252 124.173V120.966C98.4252 120.768 98.4846 120.61 98.6034 120.491C98.7221 120.372 98.8805 120.313 99.0784 120.313ZM96.2874 129.359C96.708 129.359 97.0841 129.255 97.4157 129.042C97.7572 128.82 98.0194 128.518 98.2075 128.132C98.3906 127.751 98.4846 127.315 98.4846 126.825C98.4846 126.35 98.3906 125.925 98.2075 125.539C98.0194 125.158 97.7572 124.856 97.4157 124.628C97.0841 124.406 96.708 124.292 96.2874 124.292C95.8519 124.292 95.4659 124.406 95.1393 124.628C94.8078 124.856 94.5504 125.158 94.3673 125.539C94.1793 125.925 94.0902 126.35 94.0902 126.825C94.0902 127.315 94.1793 127.751 94.3673 128.132C94.5504 128.518 94.8078 128.82 95.1393 129.042C95.4659 129.255 95.8519 129.359 96.2874 129.359Z" fill="white"/>
<path d="M121.66 129.755C121.66 129.953 121.586 130.121 121.443 130.25C121.309 130.369 121.151 130.428 120.967 130.428C120.77 130.428 120.601 130.369 120.473 130.25C120.354 130.121 120.294 129.953 120.294 129.755V121.501C120.294 121.332 120.359 121.179 120.492 121.045C120.621 120.917 120.789 120.847 120.987 120.847C121.17 120.847 121.329 120.917 121.462 121.045C121.591 121.179 121.66 121.332 121.66 121.501V129.755Z" fill="white"/>
<path d="M133.047 124.529V128.607C133.047 129.072 133.249 129.3 133.66 129.3C133.725 129.3 133.809 129.29 133.918 129.26C134.036 129.22 134.125 129.201 134.195 129.201C134.313 129.201 134.412 129.255 134.492 129.359C134.571 129.453 134.61 129.577 134.61 129.735C134.61 129.923 134.497 130.086 134.274 130.23C134.061 130.363 133.819 130.428 133.541 130.428C133.235 130.428 132.957 130.398 132.71 130.329C132.458 130.264 132.235 130.106 132.037 129.854C131.849 129.591 131.76 129.196 131.76 128.666V124.529H130.948C130.775 124.529 130.632 124.48 130.513 124.371C130.404 124.252 130.354 124.108 130.354 123.935C130.354 123.767 130.404 123.628 130.513 123.519C130.632 123.401 130.775 123.341 130.948 123.341H131.76V122.193C131.76 122.01 131.819 121.857 131.938 121.738C132.057 121.609 132.215 121.54 132.413 121.54C132.596 121.54 132.75 121.609 132.868 121.738C132.987 121.857 133.047 122.01 133.047 122.193V123.341H134.195C134.363 123.341 134.501 123.401 134.61 123.519C134.729 123.628 134.788 123.767 134.788 123.935C134.788 124.123 134.729 124.267 134.61 124.371C134.501 124.48 134.363 124.529 134.195 124.529H133.047Z" fill="white"/>
<path d="M143.234 129.3C143.155 129.181 143.115 129.062 143.115 128.943C143.115 128.76 143.214 128.602 143.412 128.468C143.501 128.404 143.61 128.369 143.729 128.369C143.887 128.369 144.031 128.444 144.164 128.587C144.441 128.894 144.738 129.122 145.055 129.28C145.372 129.438 145.748 129.517 146.183 129.517C146.525 129.508 146.827 129.428 147.094 129.28C147.356 129.122 147.49 128.879 147.49 128.548C147.49 128.231 147.351 127.993 147.074 127.835C146.807 127.667 146.421 127.513 145.906 127.38C145.392 127.251 144.961 127.112 144.62 126.964C144.288 126.806 144.006 126.583 143.768 126.291C143.541 126.004 143.432 125.628 143.432 125.163C143.432 124.757 143.541 124.401 143.768 124.094C144.006 123.777 144.313 123.535 144.699 123.361C145.095 123.193 145.52 123.104 145.985 123.104C146.421 123.104 146.847 123.193 147.272 123.361C147.708 123.52 148.064 123.767 148.341 124.094C148.445 124.227 148.499 124.361 148.499 124.49C148.499 124.638 148.425 124.782 148.282 124.925C148.188 125.004 148.074 125.044 147.945 125.044C147.787 125.044 147.653 124.984 147.549 124.866C147.351 124.658 147.114 124.49 146.837 124.371C146.559 124.252 146.253 124.193 145.926 124.193C145.58 124.193 145.283 124.267 145.035 124.41C144.798 124.544 144.679 124.782 144.679 125.123C144.689 125.44 144.827 125.677 145.095 125.836C145.357 125.994 145.768 126.147 146.322 126.291C146.807 126.41 147.213 126.543 147.529 126.687C147.846 126.835 148.113 127.053 148.341 127.34C148.564 127.632 148.678 128.008 148.678 128.468C148.678 128.904 148.549 129.28 148.301 129.597C148.049 129.903 147.727 130.141 147.331 130.309C146.936 130.477 146.51 130.567 146.065 130.567C145.496 130.567 144.966 130.468 144.481 130.27C143.991 130.072 143.575 129.75 143.234 129.3Z" fill="white"/>
<path d="M176.176 129.577C176.2 129.656 176.215 129.745 176.215 129.834C176.215 130.022 176.156 130.171 176.037 130.289C175.918 130.408 175.77 130.467 175.602 130.467C175.468 130.467 175.349 130.428 175.245 130.349C175.151 130.27 175.072 130.166 175.008 130.032L174.157 128.013H169.921L169.089 130.052C169.05 130.185 168.975 130.289 168.872 130.369C168.763 130.433 168.644 130.467 168.515 130.467C168.327 130.467 168.184 130.423 168.08 130.329C167.971 130.225 167.921 130.086 167.921 129.913C167.921 129.874 167.931 129.804 167.961 129.695L171.445 121.243C171.509 121.1 171.593 120.986 171.702 120.907C171.821 120.828 171.95 120.798 172.098 120.808C172.242 120.808 172.365 120.847 172.474 120.927C172.578 120.996 172.657 121.1 172.712 121.243L176.176 129.577ZM170.455 126.786H173.642L172.039 122.946L170.455 126.786Z" fill="white"/>
<path d="M188.382 123.144C189 123.144 189.56 123.302 190.064 123.619C190.564 123.925 190.955 124.361 191.232 124.925C191.519 125.494 191.668 126.133 191.668 126.845C191.668 127.558 191.519 128.201 191.232 128.765C190.955 129.319 190.564 129.755 190.064 130.072C189.56 130.388 189.005 130.547 188.402 130.547C187.927 130.547 187.481 130.438 187.075 130.23C186.665 130.022 186.333 129.77 186.086 129.478V132.506C186.086 132.689 186.016 132.843 185.888 132.962C185.769 133.09 185.615 133.16 185.432 133.16C185.244 133.16 185.086 133.1 184.957 132.981C184.839 132.863 184.779 132.704 184.779 132.506V123.896C184.779 123.713 184.839 123.559 184.957 123.44C185.076 123.312 185.234 123.243 185.432 123.243C185.615 123.243 185.769 123.312 185.888 123.44C186.016 123.559 186.086 123.713 186.086 123.896V124.292C186.293 123.975 186.61 123.708 187.036 123.48C187.456 123.257 187.907 123.144 188.382 123.144ZM188.223 129.339C188.644 129.339 189.02 129.235 189.352 129.023C189.693 128.8 189.955 128.503 190.143 128.132C190.327 127.751 190.421 127.32 190.421 126.845C190.421 126.37 190.327 125.949 190.143 125.578C189.955 125.197 189.693 124.9 189.352 124.688C189.02 124.465 188.644 124.351 188.223 124.351C187.798 124.351 187.417 124.46 187.075 124.668C186.744 124.881 186.482 125.177 186.284 125.558C186.096 125.944 186.006 126.37 186.006 126.845C186.006 127.32 186.096 127.751 186.284 128.132C186.482 128.518 186.744 128.815 187.075 129.023C187.417 129.235 187.798 129.339 188.223 129.339Z" fill="white"/>
<path d="M204.124 123.144C204.743 123.144 205.302 123.302 205.807 123.619C206.307 123.925 206.698 124.361 206.975 124.925C207.262 125.494 207.41 126.133 207.41 126.845C207.41 127.558 207.262 128.201 206.975 128.765C206.698 129.319 206.307 129.755 205.807 130.072C205.302 130.388 204.748 130.547 204.144 130.547C203.669 130.547 203.224 130.438 202.818 130.23C202.407 130.022 202.076 129.77 201.828 129.478V132.506C201.828 132.689 201.759 132.843 201.63 132.962C201.511 133.09 201.358 133.16 201.175 133.16C200.987 133.16 200.829 133.1 200.7 132.981C200.581 132.863 200.522 132.704 200.522 132.506V123.896C200.522 123.713 200.581 123.559 200.7 123.44C200.819 123.312 200.977 123.243 201.175 123.243C201.358 123.243 201.511 123.312 201.63 123.44C201.759 123.559 201.828 123.713 201.828 123.896V124.292C202.036 123.975 202.353 123.708 202.778 123.48C203.199 123.257 203.649 123.144 204.124 123.144ZM203.966 129.339C204.387 129.339 204.763 129.235 205.094 129.023C205.436 128.8 205.698 128.503 205.886 128.132C206.069 127.751 206.163 127.32 206.163 126.845C206.163 126.37 206.069 125.949 205.886 125.578C205.698 125.197 205.436 124.9 205.094 124.688C204.763 124.465 204.387 124.351 203.966 124.351C203.54 124.351 203.159 124.46 202.818 124.668C202.486 124.881 202.224 125.177 202.026 125.558C201.838 125.944 201.749 126.37 201.749 126.845C201.749 127.32 201.838 127.751 202.026 128.132C202.224 128.518 202.486 128.815 202.818 129.023C203.159 129.235 203.54 129.339 203.966 129.339Z" fill="white"/>
<path d="M217.67 129.775C217.67 129.963 217.6 130.121 217.472 130.25C217.353 130.369 217.199 130.428 217.016 130.428C216.828 130.428 216.68 130.369 216.561 130.25C216.442 130.121 216.383 129.963 216.383 129.775V120.966C216.383 120.783 216.442 120.63 216.561 120.511C216.69 120.382 216.848 120.313 217.036 120.313C217.219 120.313 217.373 120.382 217.491 120.511C217.61 120.63 217.67 120.783 217.67 120.966V129.775Z" fill="white"/>
<path d="M228.298 129.775C228.298 129.963 228.239 130.121 228.12 130.25C228.001 130.369 227.843 130.428 227.645 130.428C227.457 130.428 227.308 130.369 227.19 130.25C227.071 130.121 227.011 129.963 227.011 129.775V123.856C227.011 123.673 227.071 123.515 227.19 123.381C227.308 123.252 227.457 123.183 227.645 123.183C227.843 123.183 228.001 123.252 228.12 123.381C228.239 123.515 228.298 123.673 228.298 123.856V129.775ZM227.645 122.292C227.378 122.292 227.19 122.248 227.071 122.154C226.962 122.05 226.912 121.892 226.912 121.679V121.461C226.912 121.253 226.972 121.1 227.091 121.006C227.209 120.917 227.397 120.867 227.665 120.867C227.912 120.867 228.09 120.922 228.199 121.026C228.318 121.12 228.377 121.263 228.377 121.461V121.679C228.377 121.906 228.318 122.065 228.199 122.154C228.08 122.248 227.892 122.292 227.645 122.292Z" fill="white"/>
<path d="M240.649 123.104C241.362 123.104 241.956 123.218 242.431 123.441C242.916 123.668 243.163 123.955 243.163 124.311C243.163 124.47 243.109 124.618 243.005 124.747C242.911 124.866 242.787 124.925 242.629 124.925C242.51 124.925 242.411 124.905 242.332 124.866C242.263 124.826 242.174 124.767 242.055 124.688C242 124.638 241.916 124.569 241.798 124.49C241.689 124.44 241.54 124.391 241.342 124.351C241.144 124.311 240.956 124.292 240.788 124.292C240.313 124.292 239.887 124.405 239.521 124.628C239.165 124.856 238.888 125.158 238.69 125.539C238.492 125.925 238.393 126.35 238.393 126.825C238.393 127.315 238.482 127.751 238.67 128.132C238.868 128.518 239.145 128.82 239.501 129.042C239.858 129.255 240.263 129.359 240.729 129.359C241.204 129.359 241.585 129.29 241.877 129.141C241.941 129.102 242.025 129.042 242.134 128.963C242.223 128.899 242.302 128.844 242.372 128.805C242.436 128.765 242.52 128.745 242.629 128.745C242.812 128.745 242.956 128.805 243.064 128.924C243.168 129.032 243.223 129.176 243.223 129.359C243.223 129.557 243.094 129.75 242.847 129.933C242.609 130.121 242.282 130.27 241.877 130.388C241.466 130.507 241.03 130.567 240.57 130.567C239.882 130.567 239.269 130.408 238.729 130.091C238.2 129.765 237.789 129.315 237.502 128.745C237.225 128.166 237.086 127.528 237.086 126.825C237.086 126.128 237.235 125.494 237.542 124.925C237.844 124.361 238.259 123.916 238.789 123.599C239.328 123.272 239.947 123.104 240.649 123.104Z" fill="white"/>
<path d="M257.717 123.163C257.9 123.163 258.053 123.233 258.172 123.361C258.301 123.48 258.37 123.638 258.37 123.836V129.775C258.37 129.963 258.301 130.121 258.172 130.25C258.053 130.369 257.9 130.428 257.717 130.428C257.519 130.428 257.36 130.369 257.242 130.25C257.123 130.121 257.063 129.963 257.063 129.775V129.418C256.826 129.735 256.499 130.007 256.093 130.23C255.683 130.453 255.242 130.567 254.767 130.567C254.144 130.567 253.58 130.408 253.065 130.091C252.56 129.775 252.164 129.334 251.877 128.765C251.6 128.186 251.462 127.538 251.462 126.825C251.462 126.113 251.6 125.474 251.877 124.905C252.164 124.341 252.56 123.896 253.065 123.579C253.565 123.262 254.119 123.104 254.728 123.104C255.213 123.104 255.663 123.203 256.074 123.401C256.494 123.599 256.826 123.856 257.063 124.173V123.836C257.063 123.638 257.123 123.48 257.242 123.361C257.36 123.233 257.519 123.163 257.717 123.163ZM254.926 129.359C255.346 129.359 255.722 129.255 256.054 129.042C256.395 128.82 256.658 128.518 256.846 128.132C257.029 127.751 257.123 127.315 257.123 126.825C257.123 126.35 257.029 125.925 256.846 125.539C256.658 125.158 256.395 124.856 256.054 124.628C255.722 124.405 255.346 124.292 254.926 124.292C254.49 124.292 254.104 124.405 253.778 124.628C253.446 124.856 253.189 125.158 253.006 125.539C252.817 125.925 252.728 126.35 252.728 126.825C252.728 127.315 252.817 127.751 253.006 128.132C253.189 128.518 253.446 128.82 253.778 129.042C254.104 129.255 254.49 129.359 254.926 129.359Z" fill="white"/>
<path d="M269.579 124.529V128.607C269.579 129.072 269.782 129.3 270.193 129.3C270.257 129.3 270.341 129.29 270.45 129.26C270.569 129.22 270.658 129.201 270.727 129.201C270.846 129.201 270.945 129.255 271.024 129.359C271.104 129.453 271.143 129.577 271.143 129.735C271.143 129.923 271.029 130.086 270.807 130.23C270.594 130.363 270.351 130.428 270.074 130.428C269.767 130.428 269.49 130.398 269.243 130.329C268.991 130.264 268.768 130.106 268.57 129.854C268.382 129.591 268.293 129.196 268.293 128.666V124.529H267.481C267.308 124.529 267.164 124.48 267.046 124.371C266.937 124.252 266.887 124.108 266.887 123.935C266.887 123.767 266.937 123.628 267.046 123.519C267.164 123.401 267.308 123.341 267.481 123.341H268.293V122.193C268.293 122.01 268.352 121.857 268.471 121.738C268.59 121.609 268.748 121.54 268.946 121.54C269.129 121.54 269.282 121.609 269.401 121.738C269.52 121.857 269.579 122.01 269.579 122.193V123.341H270.727C270.896 123.341 271.034 123.401 271.143 123.519C271.262 123.628 271.321 123.767 271.321 123.935C271.321 124.123 271.262 124.267 271.143 124.371C271.034 124.48 270.896 124.529 270.727 124.529H269.579Z" fill="white"/>
<path d="M281.41 129.775C281.41 129.963 281.351 130.121 281.232 130.25C281.113 130.369 280.955 130.428 280.757 130.428C280.569 130.428 280.42 130.369 280.301 130.25C280.183 130.121 280.123 129.963 280.123 129.775V123.856C280.123 123.673 280.183 123.515 280.301 123.381C280.42 123.252 280.569 123.183 280.757 123.183C280.955 123.183 281.113 123.252 281.232 123.381C281.351 123.515 281.41 123.673 281.41 123.856V129.775ZM280.757 122.292C280.489 122.292 280.301 122.248 280.183 122.154C280.074 122.05 280.024 121.892 280.024 121.679V121.461C280.024 121.253 280.084 121.1 280.202 121.006C280.321 120.917 280.509 120.867 280.776 120.867C281.024 120.867 281.202 120.922 281.311 121.026C281.43 121.12 281.489 121.263 281.489 121.461V121.679C281.489 121.906 281.43 122.065 281.311 122.154C281.192 122.248 281.004 122.292 280.757 122.292Z" fill="white"/>
<path d="M297.423 126.845C297.423 127.558 297.255 128.201 296.928 128.765C296.612 129.334 296.176 129.775 295.622 130.091C295.077 130.408 294.474 130.567 293.801 130.567C293.138 130.567 292.534 130.408 291.98 130.091C291.425 129.775 290.99 129.334 290.673 128.765C290.356 128.201 290.198 127.558 290.198 126.845C290.198 126.133 290.356 125.494 290.673 124.925C290.99 124.346 291.425 123.896 291.98 123.579C292.534 123.262 293.138 123.104 293.801 123.104C294.474 123.104 295.077 123.262 295.622 123.579C296.176 123.896 296.612 124.346 296.928 124.925C297.255 125.494 297.423 126.133 297.423 126.845ZM296.117 126.845C296.117 126.36 296.008 125.925 295.8 125.539C295.602 125.143 295.325 124.841 294.969 124.628C294.622 124.405 294.236 124.292 293.801 124.292C293.375 124.292 292.989 124.405 292.633 124.628C292.286 124.841 292.009 125.143 291.801 125.539C291.604 125.925 291.505 126.36 291.505 126.845C291.505 127.335 291.604 127.771 291.801 128.152C292.009 128.538 292.286 128.835 292.633 129.042C292.989 129.255 293.375 129.359 293.801 129.359C294.236 129.359 294.622 129.255 294.969 129.042C295.325 128.835 295.602 128.538 295.8 128.152C296.008 127.771 296.117 127.335 296.117 126.845Z" fill="white"/>
<path d="M309.929 123.104C311.562 123.104 312.383 124.089 312.383 126.053V129.775C312.383 129.963 312.314 130.121 312.185 130.25C312.067 130.369 311.913 130.428 311.73 130.428C311.542 130.428 311.384 130.369 311.255 130.25C311.136 130.121 311.077 129.963 311.077 129.775V126.073C311.077 125.534 310.948 125.103 310.701 124.787C310.463 124.46 310.067 124.292 309.513 124.292C309.142 124.292 308.805 124.381 308.504 124.549C308.212 124.707 307.979 124.92 307.811 125.182C307.652 125.45 307.573 125.747 307.573 126.073V129.775C307.573 129.963 307.504 130.121 307.375 130.25C307.257 130.369 307.103 130.428 306.92 130.428C306.722 130.428 306.564 130.369 306.445 130.25C306.326 130.121 306.267 129.963 306.267 129.775V123.916C306.267 123.732 306.326 123.579 306.445 123.46C306.574 123.332 306.732 123.262 306.92 123.262C307.103 123.262 307.257 123.332 307.375 123.46C307.504 123.579 307.573 123.732 307.573 123.916V124.391C307.811 124.034 308.137 123.732 308.563 123.48C308.984 123.233 309.439 123.104 309.929 123.104Z" fill="white"/>
<path d="M321.252 129.3C321.173 129.181 321.133 129.062 321.133 128.943C321.133 128.76 321.232 128.602 321.43 128.468C321.519 128.404 321.628 128.369 321.747 128.369C321.905 128.369 322.049 128.444 322.182 128.587C322.459 128.894 322.756 129.122 323.073 129.28C323.39 129.438 323.766 129.517 324.201 129.517C324.543 129.508 324.845 129.428 325.112 129.28C325.374 129.122 325.508 128.879 325.508 128.548C325.508 128.231 325.369 127.993 325.092 127.835C324.825 127.667 324.439 127.513 323.924 127.38C323.409 127.251 322.979 127.112 322.637 126.964C322.306 126.806 322.024 126.583 321.786 126.291C321.559 126.004 321.45 125.628 321.45 125.163C321.45 124.757 321.559 124.401 321.786 124.094C322.024 123.777 322.331 123.535 322.717 123.361C323.113 123.193 323.538 123.104 324.003 123.104C324.439 123.104 324.864 123.193 325.29 123.361C325.725 123.52 326.082 123.767 326.359 124.094C326.463 124.227 326.517 124.361 326.517 124.49C326.517 124.638 326.443 124.782 326.299 124.925C326.205 125.004 326.092 125.044 325.963 125.044C325.805 125.044 325.671 124.984 325.567 124.866C325.369 124.658 325.132 124.49 324.854 124.371C324.577 124.252 324.27 124.193 323.944 124.193C323.597 124.193 323.301 124.267 323.053 124.41C322.816 124.544 322.697 124.782 322.697 125.123C322.707 125.44 322.845 125.677 323.113 125.836C323.375 125.994 323.786 126.147 324.34 126.291C324.825 126.41 325.231 126.543 325.547 126.687C325.864 126.835 326.131 127.053 326.359 127.34C326.582 127.632 326.695 128.008 326.695 128.468C326.695 128.904 326.567 129.28 326.319 129.597C326.067 129.903 325.745 130.141 325.349 130.309C324.953 130.477 324.528 130.567 324.082 130.567C323.513 130.567 322.984 130.468 322.499 130.27C322.009 130.072 321.593 129.75 321.252 129.3Z" fill="white"/>
<path d="M315.874 51.2369C316.191 51.2369 316.453 51.3507 316.666 51.5734C316.888 51.7862 317.002 52.0485 317.002 52.3652C317.002 52.7116 316.888 52.9887 316.666 53.1966C316.453 53.3945 316.191 53.4935 315.874 53.4935H301.305C300.934 53.4935 300.632 53.3945 300.395 53.1966C300.167 52.9887 300.058 52.6968 300.058 52.3256C300.058 52.0386 300.162 51.7664 300.375 51.514L309.342 41.597C310.792 40.0431 311.865 38.6476 312.568 37.4203C313.266 36.1931 313.617 34.9807 313.617 33.7781C313.617 32.0263 313.083 30.6456 312.014 29.6411C310.955 28.6266 309.485 28.1169 307.6 28.1169C306.333 28.1169 305.195 28.4237 304.195 29.0274C303.191 29.6361 302.443 30.5615 301.958 31.7987C301.681 32.2639 301.345 32.4915 300.949 32.4915C300.657 32.4915 300.38 32.3925 300.117 32.1946C299.865 31.9867 299.741 31.7492 299.741 31.482C299.741 31.3385 299.791 31.1603 299.9 30.9475C300.004 30.7397 300.137 30.5269 300.296 30.3141C300.969 28.9186 301.978 27.8348 303.324 27.0678C304.67 26.2908 306.145 25.8999 307.758 25.8999C310.371 25.8999 312.415 26.6125 313.894 28.0377C315.369 29.4629 316.111 31.3236 316.111 33.6198C316.111 35.045 315.72 36.5048 314.944 37.9944C314.162 39.4889 312.885 41.2209 311.103 43.2003L303.938 51.2369H315.874Z" fill="white"/>
<path d="M332.626 53.8894C330.578 53.8894 328.856 53.2857 327.46 52.0683C326.06 50.841 325.006 49.1733 324.293 47.0603C323.58 44.9522 323.224 42.562 323.224 39.8946C323.224 37.1927 323.57 34.7877 324.273 32.6894C324.971 30.5912 326.025 28.9384 327.44 27.721C328.851 26.5086 330.578 25.8999 332.626 25.8999C334.67 25.8999 336.397 26.5036 337.813 27.7012C339.238 28.9037 340.307 30.5615 341.019 32.6696C341.732 34.7827 342.088 37.1927 342.088 39.8946C342.088 42.562 341.732 44.9522 341.019 47.0603C340.307 49.1733 339.238 50.841 337.813 52.0683C336.397 53.2857 334.67 53.8894 332.626 53.8894ZM332.626 51.4745C334.853 51.4745 336.57 50.4352 337.773 48.3469C338.985 46.2635 339.594 43.4478 339.594 39.8946C339.594 36.3217 338.985 33.4911 337.773 31.4028C336.57 29.3046 334.853 28.2555 332.626 28.2555C330.419 28.2555 328.717 29.3046 327.519 31.4028C326.317 33.4911 325.718 36.3217 325.718 39.8946C325.718 43.4478 326.317 46.2635 327.519 48.3469C328.717 50.4352 330.419 51.4745 332.626 51.4745Z" fill="white"/>
<path d="M316.627 88.0089C316.943 88.0089 317.206 88.1227 317.418 88.3454C317.641 88.5582 317.755 88.8205 317.755 89.1372C317.755 89.4836 317.641 89.7607 317.418 89.9686C317.206 90.1665 316.943 90.2655 316.627 90.2655H302.058C301.687 90.2655 301.385 90.1665 301.147 89.9686C300.92 89.7607 300.811 89.4687 300.811 89.0976C300.811 88.8106 300.915 88.5384 301.128 88.286L310.094 78.369C311.544 76.8151 312.618 75.4196 313.321 74.1923C314.019 72.965 314.37 71.7526 314.37 70.5501C314.37 68.7983 313.836 67.4176 312.767 66.413C311.708 65.3986 310.238 64.8889 308.353 64.8889C307.086 64.8889 305.948 65.1957 304.948 65.7994C303.943 66.4081 303.196 67.3335 302.711 68.5707C302.434 69.0358 302.097 69.2635 301.702 69.2635C301.41 69.2635 301.133 69.1645 300.87 68.9665C300.618 68.7587 300.494 68.5212 300.494 68.2539C300.494 68.1104 300.544 67.9323 300.652 67.7195C300.756 67.5116 300.89 67.2989 301.048 67.0861C301.721 65.6905 302.731 64.6068 304.077 63.8398C305.423 63.0628 306.898 62.6719 308.511 62.6719C311.124 62.6719 313.168 63.3845 314.647 64.8097C316.122 66.2349 316.864 68.0956 316.864 70.3917C316.864 71.817 316.473 73.2768 315.696 74.7663C314.914 76.2608 313.638 77.9929 311.856 79.9723L304.691 88.0089H316.627Z" fill="white"/>
<path d="M340.703 79.6951C341.005 79.6951 341.263 79.8039 341.475 80.0118C341.698 80.2097 341.812 80.4671 341.812 80.7838C341.812 81.0906 341.698 81.3479 341.475 81.5558C341.263 81.7685 341.005 81.8725 340.703 81.8725H338.09V89.0975C338.09 89.4439 337.972 89.726 337.734 89.9486C337.507 90.1614 337.224 90.2654 336.883 90.2654C336.551 90.2654 336.279 90.1614 336.071 89.9486C335.859 89.726 335.755 89.4439 335.755 89.0975V81.8725H324.333C324.017 81.8725 323.739 81.7488 323.502 81.4964C323.274 81.2489 323.165 80.9718 323.165 80.665C323.165 80.3483 323.254 80.091 323.443 79.893L335.953 63.5229C336.161 63.2062 336.487 63.0479 336.923 63.0479C337.264 63.0479 337.541 63.1617 337.754 63.3844C337.977 63.612 338.09 63.8891 338.09 64.2157V79.6951H340.703ZM326.352 79.6951H335.755V67.2443L326.352 79.6951Z" fill="white"/>
<path d="M8.13973 12.6739C8.12488 12.8223 8.0655 12.9461 7.96157 13.05C7.85271 13.1589 7.72899 13.2083 7.58548 13.2083C7.42712 13.2083 7.29351 13.1638 7.18959 13.0698C7.09556 12.9659 7.05103 12.8322 7.05103 12.6739V1.54935C7.05103 1.39099 7.10051 1.26727 7.20938 1.17325C7.3133 1.06933 7.44692 1.01489 7.60527 1.01489C7.74878 1.01489 7.8725 1.06933 7.98137 1.17325C8.08529 1.28212 8.13973 1.40584 8.13973 1.54935V12.6739Z" fill="white"/>
<path d="M16.3893 4.10278C17.4582 4.10278 18.2401 4.4195 18.7449 5.05292C19.2595 5.68635 19.5169 6.52762 19.5169 7.56683V12.6936C19.5169 12.8421 19.4624 12.9658 19.3585 13.0697C19.2496 13.1637 19.1309 13.2083 19.0022 13.2083C18.8438 13.2083 18.7102 13.1637 18.6063 13.0697C18.5123 12.9658 18.4677 12.8421 18.4677 12.6936V7.62621C18.4677 6.86412 18.2747 6.25049 17.8937 5.78532C17.5226 5.31025 16.9436 5.07272 16.1518 5.07272C15.647 5.07272 15.172 5.19148 14.7266 5.42902C14.2911 5.65665 13.9249 5.96347 13.6379 6.35936C13.3607 6.74536 13.2222 7.16599 13.2222 7.62621V12.6936C13.2222 12.8421 13.1678 12.9658 13.0638 13.0697C12.9698 13.1637 12.851 13.2083 12.7075 13.2083C12.5492 13.2083 12.4205 13.1637 12.3314 13.0697C12.2374 12.9658 12.1929 12.8421 12.1929 12.6936V4.87477C12.1929 4.73126 12.2374 4.61249 12.3314 4.51847C12.4205 4.41455 12.5492 4.36011 12.7075 4.36011C12.851 4.36011 12.9698 4.41455 13.0638 4.51847C13.1678 4.61249 13.2222 4.73126 13.2222 4.87477V5.8447C13.5389 5.34489 13.9843 4.92921 14.5682 4.59765C15.1621 4.27104 15.7658 4.10278 16.3893 4.10278Z" fill="white"/>
<path d="M25.0462 5.3102V11.1496C25.0462 11.5999 25.1254 11.9018 25.2837 12.0601C25.4421 12.2086 25.6499 12.2779 25.9172 12.2779C25.9963 12.2779 26.0854 12.268 26.1943 12.2383C26.2982 12.2135 26.3774 12.1987 26.4318 12.1987C26.5357 12.1987 26.6199 12.2482 26.6891 12.3373C26.7683 12.4164 26.8079 12.5154 26.8079 12.6342C26.8079 12.7925 26.7139 12.9311 26.5308 13.0499C26.3427 13.1587 26.125 13.2082 25.8776 13.2082C25.5609 13.2082 25.2738 13.1835 25.0264 13.129C24.7889 13.0647 24.5563 12.8866 24.3336 12.5946C24.106 12.3076 23.9971 11.8424 23.9971 11.209V5.3102H22.7104C22.5768 5.3102 22.4581 5.26566 22.3541 5.17164C22.2601 5.08256 22.2156 4.96874 22.2156 4.83513C22.2156 4.69162 22.2601 4.57285 22.3541 4.47883C22.4581 4.38975 22.5768 4.34027 22.7104 4.34027H23.9971V2.4004C23.9971 2.25689 24.0416 2.13812 24.1356 2.0441C24.2396 1.94018 24.3633 1.88574 24.5117 1.88574C24.6701 1.88574 24.7938 1.94018 24.8878 2.0441C24.9918 2.13812 25.0462 2.25689 25.0462 2.4004V4.34027H26.7881C26.9069 4.34027 27.0108 4.3947 27.1048 4.49862C27.2088 4.60749 27.2632 4.72626 27.2632 4.85492C27.2632 4.98854 27.2137 5.10236 27.1246 5.19143C27.0306 5.27061 26.9168 5.3102 26.7881 5.3102H25.0462Z" fill="white"/>
<path d="M37.7756 8.23984C37.7756 8.3883 37.7211 8.51202 37.6172 8.61594C37.5083 8.70996 37.3846 8.7545 37.2411 8.7545H30.6693C30.6693 9.45721 30.8079 10.0807 31.085 10.635C31.372 11.1793 31.7828 11.6148 32.3123 11.9414C32.8368 12.2581 33.4603 12.4165 34.1729 12.4165C34.7371 12.4165 35.2419 12.2977 35.6773 12.0602C36.1227 11.8227 36.479 11.5257 36.7462 11.1694C36.865 11.0655 36.9838 11.0111 37.1025 11.0111C37.2213 11.0111 37.3252 11.0606 37.4193 11.1496C37.5083 11.2437 37.5578 11.3476 37.5578 11.4664C37.5578 11.6 37.4984 11.7187 37.3797 11.8227C37.0085 12.2878 36.5384 12.6639 35.9743 12.9509C35.42 13.238 34.8262 13.3864 34.1927 13.3864C33.3069 13.3864 32.5201 13.1984 31.8372 12.8124C31.1493 12.4313 30.6149 11.8969 30.2338 11.209C29.8478 10.5113 29.6598 9.70464 29.6598 8.79409C29.6598 7.84395 29.8429 7.01258 30.214 6.29998C30.5951 5.58737 31.0949 5.04797 31.7184 4.67683C32.3519 4.29578 33.0249 4.10278 33.7375 4.10278C34.4204 4.10278 35.0687 4.27104 35.6773 4.59765C36.2959 4.91436 36.7957 5.38943 37.1817 6.02285C37.5628 6.64638 37.7607 7.38373 37.7756 8.23984ZM33.7375 5.11231C33.0496 5.11231 32.4162 5.34489 31.8372 5.80511C31.2681 6.27029 30.9068 6.9334 30.7485 7.80436H36.6869V7.6658C36.6324 7.15114 36.4592 6.70577 36.1722 6.31977C35.8802 5.92388 35.519 5.62696 35.0835 5.42902C34.648 5.22117 34.1977 5.11231 33.7375 5.11231Z" fill="white"/>
<path d="M45.1388 4.10278C45.3615 4.10278 45.5644 4.15227 45.7524 4.24135C45.9504 4.33537 46.0493 4.47393 46.0493 4.65703C46.0493 4.81539 45.9999 4.949 45.9108 5.05292C45.8168 5.14695 45.7029 5.19148 45.5743 5.19148C45.505 5.19148 45.3862 5.16674 45.218 5.11231C45.0596 5.04797 44.9013 5.01333 44.7429 5.01333C44.3173 5.01333 43.8967 5.18654 43.476 5.52799C43.0505 5.85955 42.7041 6.29008 42.4269 6.81464C42.1498 7.3293 42.0113 7.85385 42.0113 8.37841V12.6936C42.0113 12.8421 41.9568 12.9658 41.8529 13.0697C41.7589 13.1637 41.6401 13.2083 41.4966 13.2083C41.3382 13.2083 41.2096 13.1637 41.1205 13.0697C41.0265 12.9658 40.9819 12.8421 40.9819 12.6936V4.87477C40.9819 4.73126 41.0265 4.61249 41.1205 4.51847C41.2096 4.41455 41.3382 4.36011 41.4966 4.36011C41.6401 4.36011 41.7589 4.41455 41.8529 4.51847C41.9568 4.61249 42.0113 4.73126 42.0113 4.87477V6.41875C42.2884 5.76058 42.6892 5.21128 43.2187 4.7758C43.7581 4.34032 44.3965 4.11763 45.1388 4.10278Z" fill="white"/>
<path d="M52.9287 4.10278C53.9977 4.10278 54.7795 4.4195 55.2843 5.05292C55.799 5.68635 56.0563 6.52762 56.0563 7.56683V12.6936C56.0563 12.8421 56.0018 12.9658 55.8979 13.0697C55.7891 13.1637 55.6703 13.2083 55.5416 13.2083C55.3833 13.2083 55.2497 13.1637 55.1457 13.0697C55.0517 12.9658 55.0072 12.8421 55.0072 12.6936V7.62621C55.0072 6.86412 54.8142 6.25049 54.4331 5.78532C54.062 5.31025 53.483 5.07272 52.6912 5.07272C52.1864 5.07272 51.7114 5.19148 51.266 5.42902C50.8305 5.65665 50.4643 5.96347 50.1773 6.35936C49.9002 6.74536 49.7616 7.16599 49.7616 7.62621V12.6936C49.7616 12.8421 49.7072 12.9658 49.6033 13.0697C49.5092 13.1637 49.3905 13.2083 49.247 13.2083C49.0886 13.2083 48.9599 13.1637 48.8709 13.0697C48.7768 12.9658 48.7323 12.8421 48.7323 12.6936V4.87477C48.7323 4.73126 48.7768 4.61249 48.8709 4.51847C48.9599 4.41455 49.0886 4.36011 49.247 4.36011C49.3905 4.36011 49.5092 4.41455 49.6033 4.51847C49.7072 4.61249 49.7616 4.73126 49.7616 4.87477V5.8447C50.0783 5.34489 50.5237 4.92921 51.1076 4.59765C51.7015 4.27104 52.3052 4.10278 52.9287 4.10278Z" fill="white"/>
<path d="M67.0687 4.30073C67.2122 4.30073 67.331 4.35516 67.425 4.45909C67.529 4.56796 67.5834 4.69662 67.5834 4.85498V12.6936C67.5834 12.8421 67.529 12.9658 67.425 13.0697C67.331 13.1637 67.2122 13.2083 67.0687 13.2083C66.9104 13.2083 66.7768 13.1637 66.6728 13.0697C66.5788 12.9658 66.5343 12.8421 66.5343 12.6936V11.5257C66.2423 12.0404 65.8068 12.4858 65.2278 12.852C64.6439 13.2083 64.0105 13.3864 63.3276 13.3864C62.5457 13.3864 61.8479 13.1835 61.2293 12.7728C60.6058 12.367 60.1208 11.8128 59.7645 11.1101C59.4181 10.3975 59.2499 9.60072 59.2499 8.71491C59.2499 7.83406 59.428 7.04227 59.7843 6.33957C60.1406 5.64181 60.6256 5.09251 61.2491 4.69662C61.8677 4.30073 62.5605 4.10278 63.3276 4.10278C64.0105 4.10278 64.6439 4.27599 65.2278 4.61744C65.8068 4.949 66.2423 5.38448 66.5343 5.92388V4.85498C66.5343 4.69662 66.5788 4.56796 66.6728 4.45909C66.7768 4.35516 66.9104 4.30073 67.0687 4.30073ZM63.4463 12.4165C64.0402 12.4165 64.5746 12.2581 65.0497 11.9414C65.5347 11.6148 65.9206 11.1694 66.1978 10.6152C66.4749 10.051 66.6135 9.41762 66.6135 8.71491C66.6135 8.0419 66.4749 7.42827 66.1978 6.87402C65.9206 6.30988 65.5347 5.8645 65.0497 5.54779C64.5746 5.23107 64.0402 5.07272 63.4463 5.07272C62.8376 5.07272 62.2883 5.23107 61.8034 5.54779C61.3283 5.8645 60.9522 6.29998 60.6751 6.85423C60.4079 7.39858 60.2792 8.01716 60.2792 8.71491C60.2792 9.41762 60.4079 10.051 60.6751 10.6152C60.9374 11.1694 61.3085 11.6148 61.7836 11.9414C62.2685 12.2581 62.8228 12.4165 63.4463 12.4165Z" fill="white"/>
<path d="M73.115 5.3102V11.1496C73.115 11.5999 73.1942 11.9018 73.3526 12.0601C73.5109 12.2086 73.7188 12.2779 73.986 12.2779C74.0652 12.2779 74.1543 12.268 74.2631 12.2383C74.367 12.2135 74.4462 12.1987 74.5007 12.1987C74.6046 12.1987 74.6887 12.2482 74.758 12.3373C74.8372 12.4164 74.8768 12.5154 74.8768 12.6342C74.8768 12.7925 74.7827 12.9311 74.5996 13.0499C74.4116 13.1587 74.1938 13.2082 73.9464 13.2082C73.6297 13.2082 73.3427 13.1835 73.0952 13.129C72.8577 13.0647 72.6251 12.8866 72.4024 12.5946C72.1748 12.3076 72.0659 11.8424 72.0659 11.209V5.3102H70.7793C70.6457 5.3102 70.5269 5.26566 70.423 5.17164C70.329 5.08256 70.2844 4.96874 70.2844 4.83513C70.2844 4.69162 70.329 4.57285 70.423 4.47883C70.5269 4.38975 70.6457 4.34027 70.7793 4.34027H72.0659V2.4004C72.0659 2.25689 72.1105 2.13812 72.2045 2.0441C72.3084 1.94018 72.4321 1.88574 72.5806 1.88574C72.7389 1.88574 72.8627 1.94018 72.9567 2.0441C73.0606 2.13812 73.115 2.25689 73.115 2.4004V4.34027H74.857C74.9757 4.34027 75.0797 4.3947 75.1737 4.49862C75.2776 4.60749 75.332 4.72626 75.332 4.85492C75.332 4.98854 75.2825 5.10236 75.1935 5.19143C75.0994 5.27061 74.9856 5.3102 74.857 5.3102H73.115Z" fill="white"/>
<path d="M79.3319 12.6937C79.3319 12.8421 79.2775 12.9658 79.1736 13.0698C79.0795 13.1638 78.9558 13.2083 78.7975 13.2083C78.649 13.2083 78.5253 13.1638 78.4214 13.0698C78.3273 12.9658 78.2828 12.8421 78.2828 12.6937V4.67687C78.2828 4.51852 78.3273 4.3948 78.4214 4.30078C78.5253 4.19686 78.649 4.14242 78.7975 4.14242C78.9558 4.14242 79.0795 4.19686 79.1736 4.30078C79.2775 4.3948 79.3319 4.51852 79.3319 4.67687V12.6937ZM78.7975 2.99434C78.5599 2.99434 78.3719 2.94485 78.2432 2.83598C78.1244 2.71721 78.0651 2.55391 78.0651 2.34112V2.16297C78.0651 1.95512 78.1294 1.79677 78.263 1.6879C78.3917 1.58398 78.5797 1.52954 78.8173 1.52954C79.2775 1.52954 79.5101 1.74233 79.5101 2.16297V2.34112C79.5101 2.55391 79.4507 2.71721 79.3319 2.83598C79.2131 2.94485 79.035 2.99434 78.7975 2.99434Z" fill="white"/>
<path d="M91.3096 8.7545C91.3096 9.62546 91.1166 10.4172 90.7355 11.1298C90.3495 11.8326 89.825 12.3868 89.1519 12.7926C88.4789 13.1885 87.7267 13.3864 86.8954 13.3864C86.0739 13.3864 85.3316 13.1885 84.6586 12.7926C83.9856 12.3868 83.4561 11.8326 83.075 11.1298C82.689 10.4172 82.501 9.62546 82.501 8.7545C82.501 7.88354 82.689 7.09176 83.075 6.37916C83.4561 5.66655 83.9856 5.11231 84.6586 4.71641C85.3316 4.31063 86.0739 4.10278 86.8954 4.10278C87.7267 4.10278 88.4789 4.31063 89.1519 4.71641C89.825 5.11231 90.3495 5.66655 90.7355 6.37916C91.1166 7.09176 91.3096 7.88354 91.3096 8.7545ZM90.2604 8.7545C90.2604 8.05674 90.112 7.42827 89.825 6.87402C89.533 6.30988 89.1322 5.8645 88.6175 5.54779C88.1028 5.23107 87.5288 5.07272 86.8954 5.07272C86.2718 5.07272 85.7077 5.23107 85.193 5.54779C84.6784 5.8645 84.2676 6.30988 83.9658 6.87402C83.6738 7.42827 83.5303 8.05674 83.5303 8.7545C83.5303 9.44236 83.6738 10.0609 83.9658 10.6152C84.2676 11.1694 84.6784 11.6148 85.193 11.9414C85.7077 12.2581 86.2718 12.4165 86.8954 12.4165C87.5288 12.4165 88.1028 12.2581 88.6175 11.9414C89.1322 11.6247 89.533 11.1892 89.825 10.635C90.112 10.0807 90.2604 9.45721 90.2604 8.7545Z" fill="white"/>
<path d="M98.6988 4.10278C99.7677 4.10278 100.55 4.4195 101.054 5.05292C101.569 5.68635 101.826 6.52762 101.826 7.56683V12.6936C101.826 12.8421 101.772 12.9658 101.668 13.0697C101.559 13.1637 101.44 13.2083 101.312 13.2083C101.153 13.2083 101.02 13.1637 100.916 13.0697C100.822 12.9658 100.777 12.8421 100.777 12.6936V7.62621C100.777 6.86412 100.584 6.25049 100.203 5.78532C99.832 5.31025 99.253 5.07272 98.4612 5.07272C97.9565 5.07272 97.4814 5.19148 97.036 5.42902C96.6005 5.65665 96.2343 5.96347 95.9473 6.35936C95.6702 6.74536 95.5316 7.16599 95.5316 7.62621V12.6936C95.5316 12.8421 95.4772 12.9658 95.3733 13.0697C95.2793 13.1637 95.1605 13.2083 95.017 13.2083C94.8586 13.2083 94.73 13.1637 94.6409 13.0697C94.5469 12.9658 94.5023 12.8421 94.5023 12.6936V4.87477C94.5023 4.73126 94.5469 4.61249 94.6409 4.51847C94.73 4.41455 94.8586 4.36011 95.017 4.36011C95.1605 4.36011 95.2793 4.41455 95.3733 4.51847C95.4772 4.61249 95.5316 4.73126 95.5316 4.87477V5.8447C95.8483 5.34489 96.2937 4.92921 96.8777 4.59765C97.4715 4.27104 98.0752 4.10278 98.6988 4.10278Z" fill="white"/>
<path d="M112.839 4.30073C112.982 4.30073 113.101 4.35516 113.195 4.45909C113.299 4.56796 113.353 4.69662 113.353 4.85498V12.6936C113.353 12.8421 113.299 12.9658 113.195 13.0697C113.101 13.1637 112.982 13.2083 112.839 13.2083C112.68 13.2083 112.547 13.1637 112.443 13.0697C112.349 12.9658 112.304 12.8421 112.304 12.6936V11.5257C112.012 12.0404 111.577 12.4858 110.998 12.852C110.414 13.2083 109.78 13.3864 109.098 13.3864C108.316 13.3864 107.618 13.1835 106.999 12.7728C106.376 12.367 105.891 11.8128 105.535 11.1101C105.188 10.3975 105.02 9.60072 105.02 8.71491C105.02 7.83406 105.198 7.04227 105.554 6.33957C105.911 5.64181 106.396 5.09251 107.019 4.69662C107.638 4.30073 108.331 4.10278 109.098 4.10278C109.78 4.10278 110.414 4.27599 110.998 4.61744C111.577 4.949 112.012 5.38448 112.304 5.92388V4.85498C112.304 4.69662 112.349 4.56796 112.443 4.45909C112.547 4.35516 112.68 4.30073 112.839 4.30073ZM109.216 12.4165C109.81 12.4165 110.345 12.2581 110.82 11.9414C111.305 11.6148 111.691 11.1694 111.968 10.6152C112.245 10.051 112.383 9.41762 112.383 8.71491C112.383 8.0419 112.245 7.42827 111.968 6.87402C111.691 6.30988 111.305 5.8645 110.82 5.54779C110.345 5.23107 109.81 5.07272 109.216 5.07272C108.608 5.07272 108.058 5.23107 107.573 5.54779C107.098 5.8645 106.722 6.29998 106.445 6.85423C106.178 7.39858 106.049 8.01716 106.049 8.71491C106.049 9.41762 106.178 10.051 106.445 10.6152C106.707 11.1694 107.079 11.6148 107.554 11.9414C108.039 12.2581 108.593 12.4165 109.216 12.4165Z" fill="white"/>
<path d="M118.291 12.6936C118.291 12.8421 118.237 12.9658 118.133 13.0697C118.039 13.1637 117.915 13.2083 117.757 13.2083C117.608 13.2083 117.485 13.1637 117.381 13.0697C117.287 12.9658 117.242 12.8421 117.242 12.6936V0.83668C117.242 0.69317 117.287 0.574402 117.381 0.480378C117.485 0.376457 117.608 0.322021 117.757 0.322021C117.915 0.322021 118.039 0.376457 118.133 0.480378C118.237 0.574402 118.291 0.69317 118.291 0.83668V12.6936Z" fill="white"/>
<path d="M137.139 1.92535C137.322 2.03422 137.416 2.17773 137.416 2.36083C137.416 2.4697 137.367 2.57857 137.278 2.69734C137.184 2.83095 137.05 2.89528 136.882 2.89528C136.788 2.89528 136.694 2.87054 136.605 2.81611C135.679 2.19753 134.665 1.88576 133.556 1.88576C132.616 1.88576 131.765 2.1134 131.003 2.55878C130.251 2.99426 129.657 3.60789 129.221 4.39967C128.786 5.19145 128.568 6.09705 128.568 7.11152C128.568 8.14084 128.786 9.06129 129.221 9.86297C129.657 10.6547 130.256 11.2684 131.023 11.7039C131.785 12.1393 132.631 12.3571 133.556 12.3571C134.665 12.3571 135.674 12.0552 136.585 11.4465C136.674 11.397 136.773 11.3674 136.882 11.3674C137.05 11.3674 137.184 11.4366 137.278 11.5653C137.367 11.6593 137.416 11.7731 137.416 11.9018C137.416 12.0899 137.327 12.2284 137.159 12.3175C136.709 12.6243 136.154 12.8816 135.496 13.0895C134.833 13.2874 134.19 13.3864 133.556 13.3864C132.458 13.3864 131.443 13.1241 130.508 12.5946C129.568 12.0701 128.825 11.3278 128.271 10.3776C127.717 9.41759 127.44 8.32889 127.44 7.11152C127.44 5.9387 127.707 4.87474 128.251 3.9246C128.806 2.96456 129.543 2.21237 130.468 1.66802C131.404 1.12862 132.433 0.856445 133.556 0.856445C134.2 0.856445 134.833 0.95047 135.457 1.13357C136.09 1.32162 136.649 1.5839 137.139 1.92535Z" fill="white"/>
<path d="M148.626 8.7545C148.626 9.62546 148.433 10.4172 148.052 11.1298C147.666 11.8326 147.142 12.3868 146.469 12.7926C145.796 13.1885 145.044 13.3864 144.212 13.3864C143.391 13.3864 142.648 13.1885 141.975 12.7926C141.302 12.3868 140.773 11.8326 140.392 11.1298C140.006 10.4172 139.818 9.62546 139.818 8.7545C139.818 7.88354 140.006 7.09176 140.392 6.37916C140.773 5.66655 141.302 5.11231 141.975 4.71641C142.648 4.31063 143.391 4.10278 144.212 4.10278C145.044 4.10278 145.796 4.31063 146.469 4.71641C147.142 5.11231 147.666 5.66655 148.052 6.37916C148.433 7.09176 148.626 7.88354 148.626 8.7545ZM147.577 8.7545C147.577 8.05674 147.429 7.42827 147.142 6.87402C146.85 6.30988 146.449 5.8645 145.934 5.54779C145.42 5.23107 144.846 5.07272 144.212 5.07272C143.589 5.07272 143.024 5.23107 142.51 5.54779C141.995 5.8645 141.584 6.30988 141.283 6.87402C140.991 7.42827 140.847 8.05674 140.847 8.7545C140.847 9.44236 140.991 10.0609 141.283 10.6152C141.584 11.1694 141.995 11.6148 142.51 11.9414C143.024 12.2581 143.589 12.4165 144.212 12.4165C144.846 12.4165 145.42 12.2581 145.934 11.9414C146.449 11.6247 146.85 11.1892 147.142 10.635C147.429 10.0807 147.577 9.45721 147.577 8.7545Z" fill="white"/>
<path d="M156.016 4.10278C157.084 4.10278 157.866 4.4195 158.371 5.05292C158.886 5.68635 159.143 6.52762 159.143 7.56683V12.6936C159.143 12.8421 159.089 12.9658 158.985 13.0697C158.876 13.1637 158.757 13.2083 158.628 13.2083C158.47 13.2083 158.336 13.1637 158.233 13.0697C158.139 12.9658 158.094 12.8421 158.094 12.6936V7.62621C158.094 6.86412 157.901 6.25049 157.52 5.78532C157.149 5.31025 156.57 5.07272 155.778 5.07272C155.273 5.07272 154.798 5.19148 154.353 5.42902C153.917 5.65665 153.551 5.96347 153.264 6.35936C152.987 6.74536 152.848 7.16599 152.848 7.62621V12.6936C152.848 12.8421 152.794 12.9658 152.69 13.0697C152.596 13.1637 152.477 13.2083 152.334 13.2083C152.175 13.2083 152.047 13.1637 151.958 13.0697C151.864 12.9658 151.819 12.8421 151.819 12.6936V4.87477C151.819 4.73126 151.864 4.61249 151.958 4.51847C152.047 4.41455 152.175 4.36011 152.334 4.36011C152.477 4.36011 152.596 4.41455 152.69 4.51847C152.794 4.61249 152.848 4.73126 152.848 4.87477V5.8447C153.165 5.34489 153.61 4.92921 154.194 4.59765C154.788 4.27104 155.392 4.10278 156.016 4.10278Z" fill="white"/>
<path d="M166.019 1.31169C165.647 1.31169 165.355 1.44036 165.148 1.68779C164.95 1.92532 164.851 2.25688 164.851 2.67752V4.47882H166.81C166.929 4.47882 167.033 4.52831 167.127 4.61738C167.231 4.71141 167.285 4.83017 167.285 4.97368C167.285 5.1073 167.231 5.22111 167.127 5.31019C167.033 5.40421 166.929 5.44875 166.81 5.44875H164.851V12.6936C164.851 12.842 164.796 12.9657 164.692 13.0697C164.598 13.1637 164.48 13.2082 164.336 13.2082C164.178 13.2082 164.044 13.1637 163.94 13.0697C163.846 12.9657 163.802 12.842 163.802 12.6936V5.44875H162.535C162.401 5.44875 162.287 5.40421 162.198 5.31019C162.104 5.20627 162.06 5.09245 162.06 4.97368C162.06 4.81533 162.104 4.69656 162.198 4.61738C162.287 4.52831 162.401 4.47882 162.535 4.47882H163.802V2.67752C163.802 1.95501 164.009 1.39087 164.435 0.994979C164.871 0.58919 165.435 0.381348 166.137 0.381348C166.464 0.381348 166.771 0.435783 167.048 0.539704C167.325 0.633728 167.464 0.792085 167.464 1.01477C167.464 1.16323 167.414 1.282 167.325 1.37108C167.231 1.4651 167.127 1.50964 167.008 1.50964C166.899 1.50964 166.776 1.47995 166.632 1.41066C166.38 1.34633 166.177 1.31169 166.019 1.31169Z" fill="white"/>
<path d="M177.646 8.23984C177.646 8.3883 177.591 8.51202 177.487 8.61594C177.378 8.70996 177.255 8.7545 177.111 8.7545H170.539C170.539 9.45721 170.678 10.0807 170.955 10.635C171.242 11.1793 171.653 11.6148 172.182 11.9414C172.707 12.2581 173.33 12.4165 174.043 12.4165C174.607 12.4165 175.112 12.2977 175.547 12.0602C175.993 11.8227 176.349 11.5257 176.616 11.1694C176.735 11.0655 176.854 11.0111 176.973 11.0111C177.091 11.0111 177.195 11.0606 177.289 11.1496C177.378 11.2437 177.428 11.3476 177.428 11.4664C177.428 11.6 177.368 11.7187 177.25 11.8227C176.879 12.2878 176.408 12.6639 175.844 12.9509C175.29 13.238 174.696 13.3864 174.063 13.3864C173.177 13.3864 172.39 13.1984 171.707 12.8124C171.019 12.4313 170.485 11.8969 170.104 11.209C169.718 10.5113 169.53 9.70464 169.53 8.79409C169.53 7.84395 169.713 7.01258 170.084 6.29998C170.465 5.58737 170.965 5.04797 171.588 4.67683C172.222 4.29578 172.895 4.10278 173.607 4.10278C174.29 4.10278 174.939 4.27104 175.547 4.59765C176.166 4.91436 176.666 5.38943 177.052 6.02285C177.433 6.64638 177.631 7.38373 177.646 8.23984ZM173.607 5.11231C172.92 5.11231 172.286 5.34489 171.707 5.80511C171.138 6.27029 170.777 6.9334 170.618 7.80436H176.557V7.6658C176.502 7.15114 176.329 6.70577 176.042 6.31977C175.75 5.92388 175.389 5.62696 174.953 5.42902C174.518 5.22117 174.068 5.11231 173.607 5.11231Z" fill="white"/>
<path d="M185.009 4.10278C185.231 4.10278 185.434 4.15227 185.622 4.24135C185.82 4.33537 185.919 4.47393 185.919 4.65703C185.919 4.81539 185.87 4.949 185.781 5.05292C185.687 5.14695 185.573 5.19148 185.444 5.19148C185.375 5.19148 185.256 5.16674 185.088 5.11231C184.93 5.04797 184.771 5.01333 184.613 5.01333C184.187 5.01333 183.767 5.18654 183.346 5.52799C182.92 5.85955 182.574 6.29008 182.297 6.81464C182.02 7.3293 181.881 7.85385 181.881 8.37841V12.6936C181.881 12.8421 181.827 12.9658 181.723 13.0697C181.629 13.1637 181.51 13.2083 181.367 13.2083C181.208 13.2083 181.08 13.1637 180.99 13.0697C180.896 12.9658 180.852 12.8421 180.852 12.6936V4.87477C180.852 4.73126 180.896 4.61249 180.99 4.51847C181.08 4.41455 181.208 4.36011 181.367 4.36011C181.51 4.36011 181.629 4.41455 181.723 4.51847C181.827 4.61249 181.881 4.73126 181.881 4.87477V6.41875C182.158 5.76058 182.559 5.21128 183.089 4.7758C183.628 4.34032 184.266 4.11763 185.009 4.10278Z" fill="white"/>
<path d="M196.124 8.23984C196.124 8.3883 196.07 8.51202 195.966 8.61594C195.857 8.70996 195.733 8.7545 195.59 8.7545H189.018C189.018 9.45721 189.157 10.0807 189.434 10.635C189.721 11.1793 190.132 11.6148 190.661 11.9414C191.186 12.2581 191.809 12.4165 192.522 12.4165C193.086 12.4165 193.591 12.2977 194.026 12.0602C194.471 11.8227 194.828 11.5257 195.095 11.1694C195.214 11.0655 195.333 11.0111 195.451 11.0111C195.57 11.0111 195.674 11.0606 195.768 11.1496C195.857 11.2437 195.907 11.3476 195.907 11.4664C195.907 11.6 195.847 11.7187 195.728 11.8227C195.357 12.2878 194.887 12.6639 194.323 12.9509C193.769 13.238 193.175 13.3864 192.541 13.3864C191.656 13.3864 190.869 13.1984 190.186 12.8124C189.498 12.4313 188.964 11.8969 188.583 11.209C188.197 10.5113 188.009 9.70464 188.009 8.79409C188.009 7.84395 188.192 7.01258 188.563 6.29998C188.944 5.58737 189.444 5.04797 190.067 4.67683C190.701 4.29578 191.374 4.10278 192.086 4.10278C192.769 4.10278 193.417 4.27104 194.026 4.59765C194.645 4.91436 195.144 5.38943 195.53 6.02285C195.912 6.64638 196.109 7.38373 196.124 8.23984ZM192.086 5.11231C191.398 5.11231 190.765 5.34489 190.186 5.80511C189.617 6.27029 189.256 6.9334 189.097 7.80436H195.036V7.6658C194.981 7.15114 194.808 6.70577 194.521 6.31977C194.229 5.92388 193.868 5.62696 193.432 5.42902C192.997 5.22117 192.546 5.11231 192.086 5.11231Z" fill="white"/>
<path d="M203.527 4.10278C204.596 4.10278 205.378 4.4195 205.883 5.05292C206.397 5.68635 206.655 6.52762 206.655 7.56683V12.6936C206.655 12.8421 206.6 12.9658 206.496 13.0697C206.387 13.1637 206.269 13.2083 206.14 13.2083C205.982 13.2083 205.848 13.1637 205.744 13.0697C205.65 12.9658 205.605 12.8421 205.605 12.6936V7.62621C205.605 6.86412 205.412 6.25049 205.031 5.78532C204.66 5.31025 204.081 5.07272 203.289 5.07272C202.785 5.07272 202.31 5.19148 201.864 5.42902C201.429 5.65665 201.063 5.96347 200.776 6.35936C200.498 6.74536 200.36 7.16599 200.36 7.62621V12.6936C200.36 12.8421 200.305 12.9658 200.202 13.0697C200.108 13.1637 199.989 13.2083 199.845 13.2083C199.687 13.2083 199.558 13.1637 199.469 13.0697C199.375 12.9658 199.331 12.8421 199.331 12.6936V4.87477C199.331 4.73126 199.375 4.61249 199.469 4.51847C199.558 4.41455 199.687 4.36011 199.845 4.36011C199.989 4.36011 200.108 4.41455 200.202 4.51847C200.305 4.61249 200.36 4.73126 200.36 4.87477V5.8447C200.677 5.34489 201.122 4.92921 201.706 4.59765C202.3 4.27104 202.903 4.10278 203.527 4.10278Z" fill="white"/>
<path d="M214.282 4.10278C214.822 4.10278 215.331 4.16217 215.806 4.28093C216.281 4.3997 216.658 4.56796 216.935 4.7758C217.222 4.98859 217.37 5.21128 217.37 5.44881C217.37 5.58243 217.321 5.70119 217.232 5.80511C217.152 5.91399 217.044 5.96347 216.915 5.96347C216.796 5.96347 216.697 5.94368 216.618 5.90409C216.549 5.8546 216.47 5.78037 216.38 5.68635C216.222 5.52799 216.074 5.41912 215.945 5.34984C215.757 5.27066 215.519 5.20633 215.232 5.15189C214.955 5.10241 214.658 5.07272 214.342 5.07272C213.693 5.07272 213.104 5.24097 212.58 5.56758C212.05 5.88429 211.635 6.32967 211.333 6.89381C211.026 7.44806 210.878 8.06169 210.878 8.73471C210.878 9.43741 211.021 10.0609 211.313 10.6152C211.6 11.1694 212.006 11.6148 212.521 11.9414C213.045 12.2581 213.639 12.4165 214.302 12.4165C214.723 12.4165 215.054 12.3868 215.292 12.3175C215.539 12.2383 215.792 12.1344 216.044 12.0008C216.123 11.9612 216.262 11.8573 216.46 11.6841C216.549 11.6049 216.628 11.5455 216.697 11.5059C216.776 11.4664 216.856 11.4466 216.935 11.4466C217.063 11.4466 217.172 11.496 217.251 11.5851C217.341 11.6643 217.39 11.7781 217.39 11.9216C217.39 12.1196 217.242 12.3324 216.955 12.5551C216.677 12.7827 216.291 12.9806 215.806 13.1489C215.317 13.3072 214.782 13.3864 214.203 13.3864C213.342 13.3864 212.585 13.1885 211.927 12.7926C211.264 12.3868 210.749 11.8326 210.383 11.1298C210.026 10.4172 209.848 9.62051 209.848 8.73471C209.848 7.89344 210.031 7.12145 210.403 6.41875C210.769 5.70614 211.293 5.14695 211.966 4.73621C212.639 4.31557 213.411 4.10278 214.282 4.10278Z" fill="white"/>
<path d="M227.961 8.23984C227.961 8.3883 227.907 8.51202 227.803 8.61594C227.694 8.70996 227.57 8.7545 227.427 8.7545H220.855C220.855 9.45721 220.993 10.0807 221.27 10.635C221.557 11.1793 221.968 11.6148 222.498 11.9414C223.022 12.2581 223.646 12.4165 224.358 12.4165C224.923 12.4165 225.427 12.2977 225.863 12.0602C226.308 11.8227 226.664 11.5257 226.932 11.1694C227.05 11.0655 227.169 11.0111 227.288 11.0111C227.407 11.0111 227.511 11.0606 227.605 11.1496C227.694 11.2437 227.743 11.3476 227.743 11.4664C227.743 11.6 227.684 11.7187 227.565 11.8227C227.194 12.2878 226.724 12.6639 226.16 12.9509C225.605 13.238 225.012 13.3864 224.378 13.3864C223.492 13.3864 222.706 13.1984 222.023 12.8124C221.335 12.4313 220.8 11.8969 220.419 11.209C220.033 10.5113 219.845 9.70464 219.845 8.79409C219.845 7.84395 220.028 7.01258 220.399 6.29998C220.781 5.58737 221.28 5.04797 221.904 4.67683C222.537 4.29578 223.21 4.10278 223.923 4.10278C224.606 4.10278 225.254 4.27104 225.863 4.59765C226.481 4.91436 226.981 5.38943 227.367 6.02285C227.748 6.64638 227.946 7.38373 227.961 8.23984ZM223.923 5.11231C223.235 5.11231 222.602 5.34489 222.023 5.80511C221.454 6.27029 221.092 6.9334 220.934 7.80436H226.872V7.6658C226.818 7.15114 226.645 6.70577 226.358 6.31977C226.066 5.92388 225.704 5.62696 225.269 5.42902C224.833 5.22117 224.383 5.11231 223.923 5.11231Z" fill="white"/>
<path d="M8.84074 27.9703C9.12776 28 9.36529 28.1237 9.55334 28.3464C9.75129 28.574 9.85026 28.8363 9.85026 29.1382V54.0199C9.85026 54.3663 9.7216 54.6484 9.47416 54.8711C9.23663 55.0839 8.93971 55.1878 8.58341 55.1878C8.23701 55.1878 7.94998 55.0839 7.71245 54.8711C7.48481 54.6484 7.37594 54.3663 7.37594 54.0199V31.276L2.50648 34.1462C2.31844 34.2551 2.14029 34.3046 1.97203 34.3046C1.62563 34.3046 1.32871 34.1809 1.08128 33.9285C0.843743 33.6662 0.724976 33.3742 0.724976 33.0575C0.724976 32.8893 0.774461 32.7111 0.883332 32.5231C1.0021 32.34 1.15056 32.1964 1.33861 32.0876L7.9104 28.1287C8.17267 27.9703 8.48444 27.9208 8.84074 27.9703Z" fill="white"/>
<path d="M17.7444 52.0406C17.5317 51.6991 17.4277 51.417 17.4277 51.1894C17.4277 50.8479 17.596 50.5857 17.9424 50.3976C18.1007 50.2541 18.3036 50.1799 18.556 50.1799C18.8727 50.1799 19.1598 50.3085 19.427 50.556C20.9561 52.575 22.99 53.5845 25.5237 53.5845C26.7609 53.5845 27.8446 53.2975 28.77 52.7136C29.6905 52.1346 30.1556 51.2884 30.1556 50.1799C30.1556 49.0862 29.7251 48.2697 28.869 47.7253C28.0079 47.1859 26.8153 46.7158 25.2862 46.3199C23.1335 45.7805 21.451 45.0729 20.2386 44.2019C19.0212 43.331 18.4175 42.0592 18.4175 40.3816C18.4175 39.3127 18.7144 38.3625 19.3082 37.5312C19.9021 36.6899 20.7037 36.0367 21.7232 35.5715C22.7525 35.0964 23.9104 34.8589 25.207 34.8589C26.3254 34.8589 27.4487 35.0766 28.5721 35.5121C29.7053 35.9377 30.6703 36.6107 31.4621 37.5312C31.6996 37.7192 31.8184 37.9815 31.8184 38.3229C31.8184 38.6297 31.6897 38.897 31.4423 39.1345C31.2542 39.2929 31.0167 39.372 30.7297 39.372C30.4773 39.372 30.2447 39.2681 30.0369 39.0553C29.4133 38.3576 28.676 37.8281 27.8199 37.4718C26.9588 37.1056 26.0384 36.9175 25.0486 36.9175C23.8313 36.9175 22.7921 37.2045 21.9211 37.7687C21.06 38.3378 20.6345 39.1939 20.6345 40.342C20.674 41.3713 21.1392 42.1631 22.0399 42.7173C22.9356 43.2617 24.2569 43.7466 25.9988 44.1821C27.3448 44.5285 28.4533 44.9096 29.3243 45.3302C30.2051 45.7409 30.9276 46.3199 31.4819 47.0721C32.046 47.8144 32.333 48.8091 32.333 50.0611C32.333 51.7387 31.6501 53.0798 30.2942 54.0794C28.9482 55.084 27.2755 55.5838 25.2862 55.5838C22.1289 55.5838 19.615 54.406 17.7444 52.0406Z" fill="white"/>
<path d="M43.3363 37.5706V50.5955C43.3363 51.5852 43.5145 52.2582 43.8708 52.6145C44.237 52.9609 44.7219 53.1292 45.3158 53.1292C45.4741 53.1292 45.6622 53.0995 45.8898 53.0302C46.1273 52.9659 46.3104 52.9312 46.4441 52.9312C46.6667 52.9312 46.8647 53.0302 47.0379 53.2281C47.2061 53.4261 47.2952 53.6537 47.2952 53.9012C47.2952 54.2723 47.0824 54.5841 46.6618 54.8315C46.2511 55.069 45.7611 55.1878 45.197 55.1878C44.4943 55.1878 43.8708 55.1235 43.3165 54.9899C42.7722 54.8612 42.2526 54.4702 41.7527 53.822C41.248 53.1786 41.0006 52.1394 41.0006 50.7142V37.5706H38.1501C37.8433 37.5706 37.581 37.4717 37.3584 37.2737C37.1307 37.0659 37.0219 36.7987 37.0219 36.4819C37.0219 36.1801 37.1307 35.9228 37.3584 35.71C37.581 35.5021 37.8433 35.3932 38.1501 35.3932H41.0006V31.078C41.0006 30.7514 41.1045 30.4743 41.3173 30.2467C41.54 30.024 41.822 29.9102 42.1684 29.9102C42.495 29.9102 42.7722 30.024 42.9998 30.2467C43.2225 30.4743 43.3363 30.7514 43.3363 31.078V35.3932H47.216C47.5031 35.3932 47.7554 35.512 47.9682 35.7495C48.1909 35.9871 48.3047 36.2444 48.3047 36.5215C48.3047 36.8382 48.1959 37.0956 47.988 37.2935C47.7901 37.4816 47.5328 37.5706 47.216 37.5706H43.3363Z" fill="white"/>
</g>
</g>
<defs>
<clipPath id="clip0_90_4132">
<rect width="343" height="134" fill="white"/>
</clipPath>
<clipPath id="clip1_90_4132">
<rect width="343" height="133.97" fill="white"/>
</clipPath>
</defs>
</svg>
